<mxfile host="app.diagrams.net" modified="2023-05-26T03:09:46.803Z" agent="Mozilla/5.0 (Windows NT 10.0; Win64; x64) AppleWebKit/537.36 (KHTML, like Gecko) Chrome/112.0.0.0 Safari/537.36" etag="VQf1bkg_PjqO6ksNyHm_" version="21.3.4" type="github">
  <diagram id="C5RBs43oDa-KdzZeNtuy" name="Page-1">
    <mxGraphModel dx="2389" dy="811" grid="1" gridSize="10" guides="1" tooltips="1" connect="1" arrows="1" fold="1" page="1" pageScale="1" pageWidth="827" pageHeight="1169" math="0" shadow="0">
      <root>
        <mxCell id="WIyWlLk6GJQsqaUBKTNV-0" />
        <mxCell id="WIyWlLk6GJQsqaUBKTNV-1" parent="WIyWlLk6GJQsqaUBKTNV-0" />
        <mxCell id="_DV5pZ1egGBXhp707ExY-48" style="edgeStyle=orthogonalEdgeStyle;rounded=0;orthogonalLoop=1;jettySize=auto;html=1;exitX=1;exitY=0.75;exitDx=0;exitDy=0;entryX=-0.002;entryY=0.048;entryDx=0;entryDy=0;entryPerimeter=0;" parent="WIyWlLk6GJQsqaUBKTNV-1" source="zkfFHV4jXpPFQw0GAbJ--0" target="_DV5pZ1egGBXhp707ExY-39" edge="1">
          <mxGeometry relative="1" as="geometry" />
        </mxCell>
        <mxCell id="zkfFHV4jXpPFQw0GAbJ--0" value="FMinimalSceneTextures" style="swimlane;fontStyle=2;align=center;verticalAlign=top;childLayout=stackLayout;horizontal=1;startSize=26;horizontalStack=0;resizeParent=1;resizeLast=0;collapsible=1;marginBottom=0;rounded=0;shadow=0;strokeWidth=1;" parent="WIyWlLk6GJQsqaUBKTNV-1" vertex="1">
          <mxGeometry x="-800" y="90" width="370" height="320" as="geometry">
            <mxRectangle x="230" y="140" width="160" height="26" as="alternateBounds" />
          </mxGeometry>
        </mxCell>
        <mxCell id="_DV5pZ1egGBXhp707ExY-20" value="RDG blackboard struct containing the minimal set of scene textures common across all rendering configurations" style="rounded=0;whiteSpace=wrap;html=1;" parent="zkfFHV4jXpPFQw0GAbJ--0" vertex="1">
          <mxGeometry y="26" width="370" height="60" as="geometry" />
        </mxCell>
        <mxCell id="zkfFHV4jXpPFQw0GAbJ--1" value="FRDGTextureMSAA Color" style="text;align=left;verticalAlign=top;spacingLeft=4;spacingRight=4;overflow=hidden;rotatable=0;points=[[0,0.5],[1,0.5]];portConstraint=eastwest;" parent="zkfFHV4jXpPFQw0GAbJ--0" vertex="1">
          <mxGeometry y="86" width="370" height="26" as="geometry" />
        </mxCell>
        <mxCell id="zkfFHV4jXpPFQw0GAbJ--2" value="FRDGTextureMSAA Depth" style="text;align=left;verticalAlign=top;spacingLeft=4;spacingRight=4;overflow=hidden;rotatable=0;points=[[0,0.5],[1,0.5]];portConstraint=eastwest;rounded=0;shadow=0;html=0;" parent="zkfFHV4jXpPFQw0GAbJ--0" vertex="1">
          <mxGeometry y="112" width="370" height="26" as="geometry" />
        </mxCell>
        <mxCell id="zkfFHV4jXpPFQw0GAbJ--3" value="FRDGTextureSRVRef Stencil" style="text;align=left;verticalAlign=top;spacingLeft=4;spacingRight=4;overflow=hidden;rotatable=0;points=[[0,0.5],[1,0.5]];portConstraint=eastwest;rounded=0;shadow=0;html=0;" parent="zkfFHV4jXpPFQw0GAbJ--0" vertex="1">
          <mxGeometry y="138" width="370" height="26" as="geometry" />
        </mxCell>
        <mxCell id="_DV5pZ1egGBXhp707ExY-27" value="FCustomDepthTextures CustomDepth{};" style="rounded=0;whiteSpace=wrap;html=1;" parent="zkfFHV4jXpPFQw0GAbJ--0" vertex="1">
          <mxGeometry y="164" width="370" height="30" as="geometry" />
        </mxCell>
        <mxCell id="_DV5pZ1egGBXhp707ExY-23" value="TRDGUniformBufferRef&amp;lt;FSceneTextureUniformParameters&amp;gt; UniformBuffer{};" style="rounded=0;whiteSpace=wrap;html=1;" parent="zkfFHV4jXpPFQw0GAbJ--0" vertex="1">
          <mxGeometry y="194" width="370" height="30" as="geometry" />
        </mxCell>
        <mxCell id="_DV5pZ1egGBXhp707ExY-26" value="TRDGUniformBufferRef&amp;lt;FMobileSceneTextureUniformParameters&amp;gt; MobileUniformBuffer{};" style="rounded=0;whiteSpace=wrap;html=1;" parent="zkfFHV4jXpPFQw0GAbJ--0" vertex="1">
          <mxGeometry y="224" width="370" height="30" as="geometry" />
        </mxCell>
        <mxCell id="_DV5pZ1egGBXhp707ExY-0" value="FSceneTextureUniformParameters" style="swimlane;fontStyle=2;align=center;verticalAlign=top;childLayout=stackLayout;horizontal=1;startSize=26;horizontalStack=0;resizeParent=1;resizeLast=0;collapsible=1;marginBottom=0;rounded=0;shadow=0;strokeWidth=1;" parent="WIyWlLk6GJQsqaUBKTNV-1" vertex="1">
          <mxGeometry x="-330" y="370" width="240" height="350" as="geometry">
            <mxRectangle x="230" y="140" width="160" height="26" as="alternateBounds" />
          </mxGeometry>
        </mxCell>
        <mxCell id="_DV5pZ1egGBXhp707ExY-15" value="&lt;br&gt;&lt;span style=&quot;color: rgb(0, 0, 0); font-family: Helvetica; font-size: 12px; font-style: normal; font-variant-ligatures: normal; font-variant-caps: normal; font-weight: 400; letter-spacing: normal; orphans: 2; text-align: left; text-indent: 0px; text-transform: none; widows: 2; word-spacing: 0px; -webkit-text-stroke-width: 0px; background-color: rgb(251, 251, 251); text-decoration-thickness: initial; text-decoration-style: initial; text-decoration-color: initial; float: none; display: inline !important;&quot;&gt;A uniform buffer containing common scene textures used by materials or global shaders.&lt;br&gt;&lt;/span&gt;(Deferred에서 사용)&lt;br&gt;" style="rounded=0;whiteSpace=wrap;html=1;" parent="_DV5pZ1egGBXhp707ExY-0" vertex="1">
          <mxGeometry y="26" width="240" height="80" as="geometry" />
        </mxCell>
        <mxCell id="_DV5pZ1egGBXhp707ExY-1" value="Texture2D SceneColorTexture" style="text;align=left;verticalAlign=top;spacingLeft=4;spacingRight=4;overflow=hidden;rotatable=0;points=[[0,0.5],[1,0.5]];portConstraint=eastwest;strokeColor=default;" parent="_DV5pZ1egGBXhp707ExY-0" vertex="1">
          <mxGeometry y="106" width="240" height="26" as="geometry" />
        </mxCell>
        <mxCell id="_DV5pZ1egGBXhp707ExY-2" value="Texture2D SceneDepthTexture" style="text;align=left;verticalAlign=top;spacingLeft=4;spacingRight=4;overflow=hidden;rotatable=0;points=[[0,0.5],[1,0.5]];portConstraint=eastwest;rounded=0;shadow=0;html=0;strokeColor=default;" parent="_DV5pZ1egGBXhp707ExY-0" vertex="1">
          <mxGeometry y="132" width="240" height="26" as="geometry" />
        </mxCell>
        <mxCell id="_DV5pZ1egGBXhp707ExY-3" value="Texture2D GBufferATexture&#xa;....&#xa;Texture2D GBufferFTexture&#xa;Texture2D GBufferVelocityTexture&#xa;" style="text;align=left;verticalAlign=top;spacingLeft=4;spacingRight=4;overflow=hidden;rotatable=0;points=[[0,0.5],[1,0.5]];portConstraint=eastwest;rounded=0;shadow=0;html=0;strokeColor=default;" parent="_DV5pZ1egGBXhp707ExY-0" vertex="1">
          <mxGeometry y="158" width="240" height="62" as="geometry" />
        </mxCell>
        <mxCell id="_DV5pZ1egGBXhp707ExY-10" value="Texture2D ScreenSpaceAOTexture" style="text;align=left;verticalAlign=top;spacingLeft=4;spacingRight=4;overflow=hidden;rotatable=0;points=[[0,0.5],[1,0.5]];portConstraint=eastwest;rounded=0;shadow=0;html=0;strokeColor=default;" parent="_DV5pZ1egGBXhp707ExY-0" vertex="1">
          <mxGeometry y="220" width="240" height="20" as="geometry" />
        </mxCell>
        <mxCell id="_DV5pZ1egGBXhp707ExY-17" value="Texture2D CustomDepthTexture&#xa;Texture2D&lt;uint2&gt; CustomStencilTexture" style="text;align=left;verticalAlign=top;spacingLeft=4;spacingRight=4;overflow=hidden;rotatable=0;points=[[0,0.5],[1,0.5]];portConstraint=eastwest;strokeColor=default;" parent="_DV5pZ1egGBXhp707ExY-0" vertex="1">
          <mxGeometry y="240" width="240" height="50" as="geometry" />
        </mxCell>
        <mxCell id="_DV5pZ1egGBXhp707ExY-18" value="SamplerState PointClampSampler" style="text;align=left;verticalAlign=top;spacingLeft=4;spacingRight=4;overflow=hidden;rotatable=0;points=[[0,0.5],[1,0.5]];portConstraint=eastwest;strokeColor=default;" parent="_DV5pZ1egGBXhp707ExY-0" vertex="1">
          <mxGeometry y="290" width="240" height="30" as="geometry" />
        </mxCell>
        <mxCell id="_DV5pZ1egGBXhp707ExY-25" style="edgeStyle=orthogonalEdgeStyle;rounded=0;orthogonalLoop=1;jettySize=auto;html=1;exitX=1;exitY=0.5;exitDx=0;exitDy=0;entryX=-0.014;entryY=0.039;entryDx=0;entryDy=0;entryPerimeter=0;" parent="WIyWlLk6GJQsqaUBKTNV-1" source="_DV5pZ1egGBXhp707ExY-23" target="_DV5pZ1egGBXhp707ExY-0" edge="1">
          <mxGeometry relative="1" as="geometry" />
        </mxCell>
        <mxCell id="_DV5pZ1egGBXhp707ExY-28" value="FCustomDepthTextures" style="swimlane;fontStyle=2;align=center;verticalAlign=top;childLayout=stackLayout;horizontal=1;startSize=26;horizontalStack=0;resizeParent=1;resizeLast=0;collapsible=1;marginBottom=0;rounded=0;shadow=0;strokeWidth=1;" parent="WIyWlLk6GJQsqaUBKTNV-1" vertex="1">
          <mxGeometry x="-303" y="20" width="213" height="310" as="geometry">
            <mxRectangle x="230" y="140" width="160" height="26" as="alternateBounds" />
          </mxGeometry>
        </mxCell>
        <mxCell id="_DV5pZ1egGBXhp707ExY-37" style="edgeStyle=orthogonalEdgeStyle;rounded=0;orthogonalLoop=1;jettySize=auto;html=1;" parent="_DV5pZ1egGBXhp707ExY-28" source="_DV5pZ1egGBXhp707ExY-29" target="_DV5pZ1egGBXhp707ExY-36" edge="1">
          <mxGeometry relative="1" as="geometry" />
        </mxCell>
        <mxCell id="_DV5pZ1egGBXhp707ExY-29" value="커스텀 뎁스 텍스쳐&lt;br&gt;(5.0 에서는 Mobile용이 따로있었으나 5.1에서는 PC와 같은방식으로 SRVRef 사용하도록 수정됨)" style="rounded=0;whiteSpace=wrap;html=1;" parent="_DV5pZ1egGBXhp707ExY-28" vertex="1">
          <mxGeometry y="26" width="213" height="94" as="geometry" />
        </mxCell>
        <mxCell id="_DV5pZ1egGBXhp707ExY-36" value="&lt;div&gt;FRDGTextureRef Depth{};&lt;/div&gt;&lt;div&gt;&lt;span style=&quot;white-space: pre;&quot;&gt;&amp;nbsp;&amp;nbsp;&amp;nbsp;&amp;nbsp;&lt;/span&gt;FRDGTextureSRVRef Stencil{};&lt;/div&gt;&lt;div&gt;&lt;br&gt;&lt;/div&gt;&lt;div&gt;&lt;span style=&quot;&quot;&gt;&lt;span style=&quot;white-space: pre;&quot;&gt;&amp;nbsp;&amp;nbsp;&amp;nbsp;&amp;nbsp;&lt;/span&gt;&lt;/span&gt;FRDGTextureRef MobileDepth{};&lt;/div&gt;&lt;div&gt;&lt;span style=&quot;&quot;&gt;&lt;span style=&quot;white-space: pre;&quot;&gt;&amp;nbsp;&amp;nbsp;&amp;nbsp;&amp;nbsp;&lt;/span&gt;&lt;/span&gt;FRDGTextureRef MobileStencil{};&lt;/div&gt;" style="rounded=0;whiteSpace=wrap;html=1;" parent="_DV5pZ1egGBXhp707ExY-28" vertex="1">
          <mxGeometry y="120" width="213" height="120" as="geometry" />
        </mxCell>
        <mxCell id="_DV5pZ1egGBXhp707ExY-38" style="edgeStyle=orthogonalEdgeStyle;rounded=0;orthogonalLoop=1;jettySize=auto;html=1;exitX=1;exitY=0.5;exitDx=0;exitDy=0;entryX=0.01;entryY=0.029;entryDx=0;entryDy=0;entryPerimeter=0;" parent="WIyWlLk6GJQsqaUBKTNV-1" source="_DV5pZ1egGBXhp707ExY-27" target="_DV5pZ1egGBXhp707ExY-28" edge="1">
          <mxGeometry relative="1" as="geometry" />
        </mxCell>
        <mxCell id="_DV5pZ1egGBXhp707ExY-39" value="FMobileSceneTextureUniformParameters" style="swimlane;fontStyle=2;align=center;verticalAlign=top;childLayout=stackLayout;horizontal=1;startSize=26;horizontalStack=0;resizeParent=1;resizeLast=0;collapsible=1;marginBottom=0;rounded=0;shadow=0;strokeWidth=1;" parent="WIyWlLk6GJQsqaUBKTNV-1" vertex="1">
          <mxGeometry x="-320" y="760" width="410" height="320" as="geometry">
            <mxRectangle x="230" y="140" width="160" height="26" as="alternateBounds" />
          </mxGeometry>
        </mxCell>
        <mxCell id="_DV5pZ1egGBXhp707ExY-40" value="모바일용 SceneTextureUniformParameters" style="rounded=0;whiteSpace=wrap;html=1;" parent="_DV5pZ1egGBXhp707ExY-39" vertex="1">
          <mxGeometry y="26" width="410" height="80" as="geometry" />
        </mxCell>
        <mxCell id="_DV5pZ1egGBXhp707ExY-47" value="Texture2D SceneColorTexture&lt;br&gt;Texture2D SceneDepthTexture&lt;br&gt;Texture2D&amp;lt;uint2&amp;gt; CopiedSceneStencilTexture // AF_Mobile_Toon_Outline&lt;br&gt;&lt;br&gt;Texture2D CustomDepthTexture&lt;br&gt;Texture2D MobileCustomStencilTexture&lt;br&gt;&lt;br&gt;// Deferred ?&lt;br&gt;Texture2D SceneVelocityTexture&lt;br&gt;Texture2D&amp;nbsp;GBufferATexture&lt;br&gt;...&lt;br&gt;Texture2D&amp;nbsp;GBufferDTexture&lt;br&gt;Texture2D SceneDepthAuxTexture" style="rounded=0;whiteSpace=wrap;html=1;align=left;" parent="_DV5pZ1egGBXhp707ExY-39" vertex="1">
          <mxGeometry y="106" width="410" height="214" as="geometry" />
        </mxCell>
        <mxCell id="_DV5pZ1egGBXhp707ExY-50" value="&lt;b style=&quot;font-size: 15px;&quot;&gt;Mobile Forward Rendering 기준FSceneTextures::&lt;br&gt;Create타이밍&lt;/b&gt;" style="rounded=0;whiteSpace=wrap;html=1;" parent="WIyWlLk6GJQsqaUBKTNV-1" vertex="1">
          <mxGeometry x="390" width="570" height="50" as="geometry" />
        </mxCell>
        <mxCell id="_DV5pZ1egGBXhp707ExY-51" value="FMobileSceneRenderer::Render&lt;br&gt;&lt;span style=&quot;&quot;&gt;&lt;span style=&quot;white-space: pre;&quot;&gt;&amp;nbsp;&amp;nbsp;&amp;nbsp;&amp;nbsp;&lt;/span&gt;&lt;/span&gt;- FMobileSceneRenderer::InitViews&lt;br&gt;&lt;span style=&quot;&quot;&gt;&lt;span style=&quot;white-space: pre;&quot;&gt;&amp;nbsp;&amp;nbsp;&amp;nbsp;&amp;nbsp;&lt;/span&gt;&lt;/span&gt;-&amp;nbsp;FSceneTextures::Create&lt;br&gt;&amp;nbsp; &amp;nbsp; - ShadowDepths&lt;br&gt;&amp;nbsp; &amp;nbsp; - CustomDepth&lt;br&gt;&amp;nbsp; &amp;nbsp; &amp;nbsp;- SceneColorRendering (BasePass)&lt;br&gt;&amp;nbsp; &amp;nbsp; &amp;nbsp;- PostProcess" style="rounded=0;whiteSpace=wrap;html=1;align=left;" parent="WIyWlLk6GJQsqaUBKTNV-1" vertex="1">
          <mxGeometry x="460" y="60" width="450" height="170" as="geometry" />
        </mxCell>
        <mxCell id="_DV5pZ1egGBXhp707ExY-52" value="FSceneTextures : FMinimalSceneTextures" style="swimlane;fontStyle=2;align=center;verticalAlign=top;childLayout=stackLayout;horizontal=1;startSize=26;horizontalStack=0;resizeParent=1;resizeLast=0;collapsible=1;marginBottom=0;rounded=0;shadow=0;strokeWidth=1;" parent="WIyWlLk6GJQsqaUBKTNV-1" vertex="1">
          <mxGeometry x="-810" y="490" width="370" height="356" as="geometry">
            <mxRectangle x="230" y="140" width="160" height="26" as="alternateBounds" />
          </mxGeometry>
        </mxCell>
        <mxCell id="_DV5pZ1egGBXhp707ExY-53" value="RDG blackboard struct containing the complete set of scene textures for the deferred or mobile renderers." style="rounded=0;whiteSpace=wrap;html=1;" parent="_DV5pZ1egGBXhp707ExY-52" vertex="1">
          <mxGeometry y="26" width="370" height="60" as="geometry" />
        </mxCell>
        <mxCell id="_DV5pZ1egGBXhp707ExY-54" value="FRDGTextureRef SmallDepth{}; (Deferred)" style="text;align=left;verticalAlign=top;spacingLeft=4;spacingRight=4;overflow=hidden;rotatable=0;points=[[0,0.5],[1,0.5]];portConstraint=eastwest;" parent="_DV5pZ1egGBXhp707ExY-52" vertex="1">
          <mxGeometry y="86" width="370" height="26" as="geometry" />
        </mxCell>
        <mxCell id="_DV5pZ1egGBXhp707ExY-55" value="(Deferred)    &#xa;FRDGTextureRef GBufferA{};&#xa;    FRDGTextureRef GBufferB{};&#xa;    FRDGTextureRef GBufferC{};&#xa;    FRDGTextureRef GBufferD{};&#xa;    FRDGTextureRef GBufferE{};&#xa;    FRDGTextureRef GBufferF{};&#xa;" style="text;align=left;verticalAlign=top;spacingLeft=4;spacingRight=4;overflow=hidden;rotatable=0;points=[[0,0.5],[1,0.5]];portConstraint=eastwest;rounded=0;shadow=0;html=0;" parent="_DV5pZ1egGBXhp707ExY-52" vertex="1">
          <mxGeometry y="112" width="370" height="108" as="geometry" />
        </mxCell>
        <mxCell id="_DV5pZ1egGBXhp707ExY-57" value="&lt;div&gt;// Additional Buffer texture used by mobile&lt;/div&gt;&lt;div style=&quot;&quot;&gt;&lt;span style=&quot;white-space: pre;&quot;&gt;&amp;nbsp;&amp;nbsp;&amp;nbsp;&amp;nbsp;&lt;/span&gt;FRDGTextureMSAA DepthAux{};&lt;/div&gt;" style="rounded=0;whiteSpace=wrap;html=1;align=left;" parent="_DV5pZ1egGBXhp707ExY-52" vertex="1">
          <mxGeometry y="220" width="370" height="30" as="geometry" />
        </mxCell>
        <mxCell id="_DV5pZ1egGBXhp707ExY-60" value="&lt;div&gt;&lt;span style=&quot;white-space: pre;&quot;&gt;.....&lt;/span&gt;&lt;/div&gt;" style="rounded=0;whiteSpace=wrap;html=1;align=left;" parent="_DV5pZ1egGBXhp707ExY-52" vertex="1">
          <mxGeometry y="250" width="370" height="30" as="geometry" />
        </mxCell>
        <mxCell id="_DV5pZ1egGBXhp707ExY-63" value="" style="shape=image;verticalLabelPosition=bottom;labelBackgroundColor=default;verticalAlign=top;aspect=fixed;imageAspect=0;image=data:image/png,iVBORw0KGgoAAAANSUhEUgAABREAAAFMCAYAAABcXfslAAAAAXNSR0IArs4c6QAAAARnQU1BAACxjwv8YQUAAAAJcEhZcwAADsMAAA7DAcdvqGQAAHw4SURBVHhe7d0NkJ1Xfef5I4vGilaaRt4GsgnTLchWHJsZlmwpQyaEiBQzQDNRMovLqVDLJFhOIrlbFWbAJhliYACTTbAJk5S7LREsB4YUqVBiwiqx40xlgyDsZjaqZcYZbCaZCZZh8gIag2JKsVEs7fk995zb5557nvM89z73Ps/t7u+n6nHf85znvDzPvd3q/vu87FhcXLxiAAAAAAAAAKDEVe5r3zXXXGOWl5ddqn1dtw8AAAAAAABg0FAQ8aqrrjK7d+92qfZ13T4AAAAAAACAQUNBRAAAAAAAAAAIDQURL1++bC5evOhS7eu6fQAAAAAAAACD2FgFAAAAAAAAQBbTmQEAAAAAAABkEUQEAAAAAAAAkDUURNTOyNdff71Lta/r9gEAAAAAAAAMSgYRr7vuOpdqX9ftAwAAAAAAABjEdGYAAAAAAAAAWQQRAQAAAAAAAGTtWFxcvOJeF3bu3Gmuvvpqc/HiRXemXV23DwAAAAAAAGDQ0EjEp59+utMAXtftAwAAAAAAABjEdGYAAAAAAAAAWUNBRE0n1g7JXem6fQAAAAAAAACDhoKI+/btM8vLyy7Vvq7a/9CDj5lzJcddLv+uHb1rQ8V59zqnrHyKr7Ps8qr8HJXt39c4FUxJ2K/4qPN86/jV35lcXeNQ++E9jfr4p9X/ss9T0/Ym3d93Hz9k7jvRO17ozo1C5ccpV+WOkv40bW9a/R3J/zL4vThwfNjl62vMnn/0Q+51Tln5lKprR6krpv76789x65gG3VP83P0xqX7q3u17taOrfw+aPvtp9V/PPtWfpu21/bxfZMwHXmfMr+i4zp2bJNVv65347dh6iz6HR5v9V/vTaA8AAGCTYzpz4GOvXjRLrxo+bnX5m52COl8J7mvhgekEpcbxY0G/PmnTH7Nf97v0Vnj+CtSdX964x2fb9J1t/RG5BShQ9+u3nDY3Hekdr1PgjufXjr/a+NwOHD/q8jc7BYvevGie778/39cLHnUWVAv9x+B5v8Wmw/diKzz/WX72W4ECYZeMOfJRY35Cx1wvMLZpHu9/cP3erP0HAADYgggijuDGaGSVgnIvd68nSQE1Bc4Gts1uyAexwoDcG17dC2bNSiBxq9KzV/D2tuAN1Xs8S0HcG6Ogpvr8/TPyl5oCiB89ctp8Lnh+t9v0j9wzAyP1nFujoKb6/Lzt8pfuc6PAjwJD751CIEgBtUkHzlwQS/Ve8Z8vtfO+x8wXftWlMR0Vz34mAoltfbZzvnfdrB3bUR44K8t3AcSfeCT4XeKhXiDuBIG4iXrL2pp50Ux8YAEAAKZvKIionZEfecT+1tmRrtvfbnzAEu1TEJdnP763HT1tPudeAxP1HxfN/h9zr9Eu9+z7gUXAIwgKAADQuWQQ8eGHH3ap9nXdfo6mO/uRe35kn6behnTer1lVtoZiLl90jdoY55fksvr9yLfivDuXEpZPXVtWf9Fnmy7L96ryq6TKF23br3F1fk0+X0Yj6zTirk754lxwwqd9XWF5T+3182zaZ+vZ63PzqDtfpqx80/77/A+V1C+aPv5sNzJS12vk5CejP+LL+uc1zS+jUYeavly1FmLZmokaFahzGhmoEYP9a1wHUmsaFuei/DsyazLepT66kZG6XiMn/1v0/KrWdIzz4+dTVT7tfWZ9fb3keJa7piFNsfUj9/zosrdEQSB7PrvuXVW+qO6yvCpl9buRb9l2JSzvrh0YeFRWv+9zWb5XlV8lVd63HdO1WpNP+bpeI+u+ebB8cW+p8u7cwMg8pVVnXN6L8vqiZ186kKusvNrWuXH77/PL6pfgs108r2l8tqvy/2DFrN59pXxmQlV+7CFjflKjE1Nr/rlz/bdC6bI1CX2e/WG048WD6y4OvJX2uuSajGHdKuPTcfkqufqVrmp/3P4H3ru6ah4i6g0AALYJpjMHNF25+EU+OBTsqEtBktyag6p/mmsSVrWvkW86r4BWcW/Rb+pxeX+tr6Pp/VWVr1JW3gfp4um4fvq28nX979vf8RUs8+VvHfF3/vj+wvK+PZ8X98f3of/s7bnw8efKT6L/Cj5+JdO/KlX3l8p/eUX+KO0rkOjXQkwF0RS4K1sz0Zf9kn1eCvb5a8Lp0VUUfPxogzUZc/2TVP63VuTXa//NZmVlpeT4mrumgqZ02vdr4Piw/fzWvX8XfCld90715/KbqmpfwSx/3t3bgLi8u7Y/3bnp/VWVr1JW/qFMW28w5oq/bwXF/nLR7PdrAofTi+uw9/do2H5Yvuregmf/BfvzXHkDcuUn0f+mn72q+0vlh9Ohq8p3SUE2TYcuW5NQowJ17nP2ef8HY37SXxNOn3Z1lK7J6Nc81OhC39YoIw2r6n9xJr9O/3PlAQAAtimCiIHUxirxdFMfsFIwKVzjzgdJcmsOqv5cfhN12vd8UCoM4qXKi67VuXHuLzRK/1Kqyquf/n50bfz+TELZ/aXaC/sT8s9e/fZBtFHKj0vBx6r6/fNUX3Sf/vKq/pXlK+gpk7y/MJgYjhSc9pqJCj5W1X/70V6/ir7YtL+8qn9l+Qp6Shv3l5XaWCUO1PzHRbP/F3sBEeX1uSDJwPUK/rwvCMKp/lx+E3Xa93xQKgzkpMqL7lfTnce5v9Ao/UupKh+87o+kK+vLuOz9JacfV/RtIFBmzxdBQJuXffZl5ceV+ez1q1ff7Gf7C2/qXdv3oor+lfXfj2SsKj+J+5s0Bd7CIFuOD0KG109yOnKd+hWkbNJ+XB4AAADDQcT5+Xlz8OBBl2pf1+1vZqmRlLmNX0YJ4smo9cemXb4sCNYGjfTTdOWwb7mNSeIg2qjlN5tJ318cRAunKftjK21sMv79tTCdedalRlLmNscIAjm1jFp/bNrly4JgbWjw7ItLmj6bWTfL9+cCbskpvrNCIwX9VGN/2H8UtsrHAwAAYBYNBRHn5ubMwsKCS7Wv6/Y3s9RISh2p0XPjaFp/1+WnSSP99kf9GqVvTcvPumnfXzhNOTy2ysYr49/fBKYzb3apkZQ6JhVQa1p/1+WnKdO3/ui7nKblZ12d+xt3d+YyLzLmA3WDggokumm8J1wwcab46dDx0fLoQXZnBgAA2wnTmcegUWQKfmymv2E0pTReA3Gr8Wsm+tGVs3K7xbO3X7vsj0YCptYwjIN4/rM9SzSdt5VpuxkaCZhawzAO4mmE5FYJXI5Mo8hmIXA1Ck05/bB7vVXZe3z0TYvm+ZpuPkv3OgvPXiMB/fRpcVOQizUj3amCRnNu5926H3JrBmpkYpejEv0aiHWDhBqpGPZ31PIAAAAYMhREvHz5crFDcle6bn9cqTXefFDLB2U0HTeX30TZGnM+gFXVv3HKi8+vMu3y+uqDYro2XHNw2sra0/NV31L5dfrry0+CRgJq92U/ZU7ve7hGYc44/Ve+n67c9P4UmCvbiEQBu1S+aDfjSQUf/e7LfipxvEZhzjj9V76frtzG/U2Nm55aFqgpZAI5jaXaFwXWPmS/VvVvnPLi86tMu3xwL8VGKqlrp6Wib7U2fsmVn8Q9aCSgbaPY1MX+jFLbtUc5jtN/5fvpyqnyEt/fuLsz++nI4wbRdG2TkYdN26+Sql9sG/2Rlhqp6EdR6ojXUAQAAMDIdiwuLvL7lKWgR9n6fEUAxuZ/5dWLQzviqlwYCAzrKTbicNcX19n0s38nnR/ydd5mX6fenFx+2L6o775vUtY/b5Ty4vOLPkX1KUh0XudcWqrql6KuEe6veG8S11e1H78/Yb2Sev9S75en9sJ1/uLnG+ar36n+5srLOP0v+l7yPKUsP35+o/S/eF9sunhmvVO17i9HQTMfWCs2Oum97Avz5a6jw4E+Bee+1b0O88Pzns9Xnt8sJaUsX/35ddURpOv2vwha2vRHS8pL6v4mzgU9klwAxgdeBigQ8qZg9JbSv2D/wVH/Vc5fr/pV3taTzA/5a8tGO+byw/bFtjGwGUhZ/7xRyovPDzbP6HP9rFU+fH9dudr3p2eaul7XamSiAl0l999vW23G73+cH99LLNW3snu3eSM/e4nqqNX/1HsTUtk6zy9qO9t/5et9KSsvqftrQkE1v06g2yikT0G9+P9E2Gt+0gfa4vy4vBe10S8vZe2rbhfUK66xr1XOvz4y1ys3INV+WL/49sP6q4R15Mq7c+H9/fT6unlgddU8NLE3DAAAYLYRRAS2uKogIvKqgogANqGyICG2hlGCiAAAAKiNICIAAAAAAACArKE1EXfv3m2uv/56l2pf1+0DAAAAAAAAGJQMIl53XZPVtJvpun0AAAAAAAAAg4aCiAAAAAAAAAAQIogIAAAAAAAAIGtoY5W5uTkzPz9vzp8/7860q+v2AQAAAAAAAAwaGol46dKlTgN4XbcPAAAAAFvBM9fWzC8Hr39pxw6XAgBgdEMjEberDz34mHm5ex372KsWzbNt/ldevWhujZ6Wyn3F5t/q0mWK6xLlU3ydt9nXqcur8lNS9/exmv1pou7zqdJV/yXZ9ojPfxb86u88Zs7rmbn0ZnHHiUPmW91r764jp83n3Otp67r9SXn38UPm149uvn7X8uZD5uS323/Q9Pq+0+amPyzOTp9t977PZNpTvu3XgHH79yZb1/+dKVuVH7LXnrTXHm7rOZm/NY8e/prZf3LBpWNN88fxt+bc4T93r73dZmmibbSh92yeb/s9U/8ePfCYOVe2YM4/WTT7Tz9mHv2BRbP0tDvn2X+ndP75f1vx76vqT5VPsdc+esi2aetMqspPSd3fa2r2p4m6z6dKV/0XPW/b9kAYy34mlkZ5/rPgbfYZftl+bk7M9u+CChreeeyYeeOVjV7q3F2rq+anXBoAgFEM/Yq3c+fOYofkrnTZvoJSS68aPjZb0KVMfH8L9he5u1zeZtBl/xU03B+0raDynfyP3NYoaHdTcLzuxCHzwhaff9ftI8MF8m72789Lbfq7oz9Qu6SgYfDZmbn+bWsKGtqf6f3jWebc4fO8N5OioFTw72b/aBoAmxXx/f32Y+bczk30vd1l/xU0DNs+3Wsbk/XM9fUigPjPgwCifGN11dxq8zQ6kZ93AIBRDQUR9+3bZ5aXl12qfV23n3Pj7wwGrTSyq2z0YhM/Zn+hUuBy2r9kv+HVvWDYZgokhrrsv96jzRaE3UpuP3La/Mg9h8wLXbptXbcPJxgJ2P95+b5eoO7e73bpWTNu/36xd5+YpmcUgcQvEEgczx3rZn3dHs/bUe/53R8FrezvVOdsYuLPfnnEUYbj0v/o/O3HzBeesUkDM132375Hmy4I2xGNIlxzAcBpUxBSU595TwAAoaEgIgBMwxvsL76vca+BqXpfm1N1keen2/ZG+WELencvqLF+fMWsrNjjS1e2xkhDYAZpFOGq/T7TSEIF7X+5JMinAOBd9jqNQkx9P37D1fGvCRICAEZEEHEEmk7rR75pnbzzy4vmk72sPp0/5467Ev8qV+WLrlEb4/yjXqf+nLLyRZ9suqr+Jvka2emfbf+aXlalsIwvF1bfNL9Knfpzzy9XfqBMkE49v1z577cnbnSvRykvqmPc/r/B/pIaBg/j9CRo3cL7giMeIdg0v0qd+jX9ObwunA6dKz9QJkjH06m15mGu/PPs9be616OUF9Uxbv+zftiNXEodPxx1cFwarajpw/rq+xhOJw7Pu7w+V1ZfT6byvar8kOrU9GsFOX39IXdu6O615mFV3WW0BmLQv6E19eN8d7qge9M59avsmk4pSGl/7hRHKkgZ5veuqd93rZs4WHaQ8lXfYB826s+VD/N6dWy8DpXdn7/+z+31F0val9zzyfU/13fHjzw8ccwcK4KH7nxdmk7rR75pjT5Ncb0SzcKw/y496v9tSU13rcoXrcFn2xhLnfpzysrrfpVuen+5fJunc3q24TW1Pv/qny+jI35+TfOr1Klf95t7vmXlbd7A8/DpsLzo+aXK3+6u/177+rVBXUd62X1aM7Esz9ZRnLPXJMsr359PlbcUBFTQ/ta77zZ32+/DaYxMVBtaS5H/KQAACA1trLJ3715z7bXXmrNnz7oz7eqqfQVBUlOTtRaephYrXxujPNv+UqGNQvxGKz6ta+KNK8K0r9/XJ/H1XtGWvW7UjVWq2o83dsldH6fr9D+VVuDKlxn1+lCu/8V7ET2P8PrU82oz36fj5+eNUv+vutfx80y1F6Ylft6hqvJKj9t/UeDwH/Remt+yv5Te717XoQDVR48MbghSnNMmIbb+Wc/3aW3OktqQZZT6w9fhRinh9RKnJbexSlV5pcft/1S5gFx2mq+u0eYmqQ1NUuXdOY1kvBKULdLj5ofCfrhrS9t3pwoKIo6zsYqt76StT0FL379iExrfj1R+7vqRKUDVG4mor+mNS3rXjL6xigJdvfO9Z1WVllx/wut7r8vzfVqbs+yO2pCq8mF+eH++fxvXDLYXpiW8PlZVXulU/1PPu1e2fz/vXjPrJ1bLA4cK4qT+N/VrFs3+p+1nS/naGOW3H+ttFOI3WvFprZto/81SYLG4XmXDtK/f1xfnK+0pSDTOxipV7au/9nVf7vo4Xaf/qbQigDpX9XxS1+ucl+v/bz1mvhA/j/D61PNqM9+n4+fnjVK/vefk5y3VXpiW3MYqCgJ+xV5v80rTL7NfP54ob/MetdfqfF9cPsGPPHyjfa364nRKsWbi6mrpaEUAAFKGfsV74oknOgsgSpftpzZWiQMmWguvH7QK/sVV0EQjE8Pr4zX7VH8uv4k67WtNx/D/bIbXj9P/UFl5P1KzTv2SClJ5Zf0fZw3JokymQJyvEXz9/1tsj/D9r9t+2fMbp/8hPdv486g6667ZWLd87v2Pxc9Pfsv+ovr/utejCkfQ6SiCVq5+rU+YCozlFGUyDzzOn0T7d5UE8Mbpf6gfxAv6qzrrrtlYt3xZ/1Pi59eaNwfvUzhqzwX5hmh9wqrAmAue9W8nXtMwzo8p3z6PTjZW0fMIA4Kiqd7/2aXL8r8nWrOx7PlV6gWeegGu3nqDwyPlxrUR1Np49uGahql8eUYQMLtor7E/0/tHeL3qCoNoZVIBRKlbvkzV/VWpW76s/7Hoft62alaOupGIZWsgaqSh/bdg4IgDPvbfFe3UrKDVQIBGQZt/El1vrx1Ys0/15/KbqNO+1nQMfi8YuH6c/ofKyttE7fpFQTYFyFxyQFn/7e9WAwG4OmwZlS0V59t+DrQdvv912y97fuP0P2SfrYKMA/1V/9XnOiM5XRBwIOB3h00/x5Y/EpT/eO+a5HsTU/mSAKJfI1EBQ+22XKs+AAAaSP1/YmxScZBNRzi6Mg6SxkGiqvJNNa0/7n8YpFIgrKxeBbQUrFQQMBVUq8oXBTfD3ZnjoF+u/Tqalo+DnDo0qrOuJuWrnp9GIX5Zow+vXDG/ar8+x6ZHnc4c744cB7MUCAuDfBo15ymgpd2UdT4VVKvKlybt19G0fBzk1KHpy3U1KV/n+ZWa9HRmBfj0Hv3JCH9IhYFHHfHIwUmLg5Bdu+nQxlRmf1xb4w/lLSHenTkO+ikQZ38e9g+N2htF0/JxkLNXR/33ZtzyCrQq4KvrMwHL290aiEd60ynXn+fObxVxkE2HfRj95xEHSeMgU1X5pprWH/c/DJopSBnWG/61oCCddlPW+VRQrSpfFLAM246Dfrn262haPg5y6hjljXttorymP9dxh31+z3ZlwqBjRKMI9W/lXcd6ywkogAgAQBsIIm4hcZDNH2Wjx1IjDUcpP6pp1e9H0oVBvnitSgW6dF73q1/MdM/hL2ZV+Tl12s9pWl7iIKc/6j7bpuVzz0+Bw3D6cpxuyo+kC4N8/83leQp06XxZsKsqP6dO+zlNy0sc5PRH3ZGDTcuP/fx+wwUhUsdvtDCewo3EG7jvP3F524VGGYb374+xRh6mhOv1jRpE65IfyWd/tvWPb3F5dTQtL3GQ0x91Rg5Kk/IaeahrNXJR711iTUTvbb2NHipHJm42cZDNH2Uj+/Q7TjgScNTyo5pW/X4kXljnZZfnaWSezut+9e++vecBVfk5ddrPaVpe4iCnP1IjH1M0yjBVfpSRh7r+Oe75BWsihiMP9W/lT01xKrIClezODACIDQUR5+fnzcGDB12qfV23X4cCJgquTOsfbUxPGOy6M/FbUVU+8mb9+YXBrnhjEanKR96WfH43HRqcfhxMAUZOKoimo+50XMwGjUrsvW/ZQKL4kYmj7s6skWtNpp+iO692/wNSIw/jjUmkKh9573bPTyMTXSDR785cNfJQm6Lkdl/2ayayHiIAYFRDQcS5uTmzsNBkHZ9mum5/XAqexNODtZGFRpj50VyazpvLbyLVvmiUW3wuZRrldX9+Wm7T+pvwbZT90VqVP+v0bFNBOz3/Os+2aflZf34a6ZcbGVeVP+sUuEsF7bSRSp37alq+0+fnpgYPBfm0EYhLNqY1DTX92N5nMdVXIxfDNQRH1WYQMpg6HT6fk366cipf3mSvGWm69bPM2tp73eu29Nb3G5xu2wtc5tdg1KYhmyGI2bT/Tcr3rumURrLF04Ptv0lat6/YBENpTefN5TeRal9sG9rpOf/8rGmU1/3ZRJFuWn8T9ne57G7XVfmzzj7bYjq2fbYD9Pzj553ipyPHOyprI5bM9OQ+rakYlwUAYIYM7c6sAJ5GAp46dcqdaVdX7SsQEu9mGyrLL86/aiMQqLQPnGn6rr/el9duzqn8kK8z3O02lMsP2xe/UYlvf5T+S668gkzxbr9hed1fuHu1lNUvqfq8VPuhVL1F266+VH68m3BZftF2dH2sTvvj9l8BPt9+2e7MonS4jmHq8xW2E+fnyo/T/9zzGoWf7pubWqtrwnUENT33dcdtObcZSCo/rC+XP6n2c7sV58orwOfbD/sS77asdLiOYbERStRe2E6cnys/Tv9zz2viFBjzgUMX9NMOw8VmIC5oN7TbseeCjn1hefvVBw2TXN0D+WF7cd2i+uPrE9cM9Xfc3ZlFQUEfOFTdChy6PhbCfAnbt/0b2K05SUHEt5rV1be4tPiRiMPrDA7vJtw7N7gbcCiXrzy/zp+m76baC9cB9BuJlPUvpGvCKdiqv7erc3r35FiufLg7dHh/vdcbz6es/6HBZzCYnyuf63+q77lnFXngseHdbENl+fbfof5uuT5tO1/0X9N3/fW+/G+X5IcU1Dq0WD7aMZcfti+2jeTuvV6u/5Irb69VEHRgt+H4/nW/derX61R9Xln/PeWHwww0vfe3gvpS+eHzy+XbvOz7IXXaH7f/4e7Ten7+ecbPS+n+g7VSn6+32fLf656/2yilT0HDcB3EML9qt2Xla/dmL657BJr+fOexY+aNVzY+BTp31+pqdjRjnd2dAQDb01AQ8ZprrjEveclLzAMPPODOtKvr9gEAKKSChAAAbCJh0DAVVAQAYBRDQUQAAAAAAAAACIWD/QEAAAAAAABgCEFEAAAAAAAAAFlDQcRdu3aZpaUll2pf1+0DAAAAAAAAGDQURNyzZ485cOCAS7Wv6/YBAAAAAAAADGI6MwBg+3jHull/gTE7gtcAAAAAgGoEEZ0fP3HI3BcdNxZ/Zbaj6/YnRfdxo3u9abzCPu9VF1QIufMDUudm3H77ntxlv8b3t/9473zIX9uFBw4/Zs6545g7NwqVz5Urq/93xmyvSlV/6lL/fL9T/d8MpvWMR6ag4b9ZMSt/ZswVpd9pX/+zIKgIAAAAACg1FES8cOGCOXPmjEu1r8v27z962tx0ZOOYv6fdgFjX7QNdUZDpt08umiV3/MCEg07Trn/a7gz6vhn7PxPevtYPIA5wgcS7X0AYEQAAAAByhoKIly5dMufPn3ep9nXdfuiDR0+b+Q5H1nXd/pbxvHWzvm6POyYQJPi90+amNfd6C3r0yGlzq3vdFgX4fuvkornbpeXVNv1PJhQom3b9Xdjs/d+UFIRk6jMAAACAbYzpzNj6vrRiVlbscfxuF0x05z0FBj9/yNwbTlN+xSFz8ju2RsBQgcG7TxwydwYxVE1bPnZL+wHDUSxHgb9Jm3b9mCHvWDdrHzk2PArRe+eKWX29/flAkBAAAAAASu1YXFwsloba7rSW34Wjp83HoqdRnD9iz+v18UPmpUEgRtOPw+ub5E+qfdWh0Ysvdefud2Wlqv2wjK8jLC8D15WUD9UtL036PxKNTHyr/fr4qlm53VXggoaHfdAwTntaE7EsuKi8H3avH+qVLWp3ZfppL1dX6Odtf/+Oex17x4pZ+Yp7nVEEDe3zutV1IE57xXn7zFPBRa2h+A73/P+7veY2+1XFfRmf9nR90YZLl0mNFEzRGoPXu9ea3uuvV/nr3OtQ6prwnOfb1xRhX098XdxGqp64f6ovvK+y/kuuDz4v1Z6maPtrcv2rusdc+TBP530duWvK6vXCa6SsvChv3L73KYj4b1bN6p9FH/iQRhp+xP5MKAs0AgAAAMA2NxREXFhYMAcPHjSnTp1yZ9rVVftFsC4KSvmgVhHAm/F8n1aQLQ7cySj1F69dHQOvE+2FaQmvj1WVV3qs/vugYMrjK2bldvc69rw1s35UgUT7Og4axmmvLPCXK+/KFEHEsHxZXVPQNIiYK+/LKIi4FJSfZBAxviZVJgyqlfEBp1QQKj7n60+1FZ9LpcM6R70+FF8r4bmqfJ+eRP3ha/+842BpVX2xOC+VHrfvfQQRAQAAAKAxpjMHXnP80MDuyBdu2QhmfVCBrczfnyla0zAVTPPi/Em0nwrAyTj9DxVBvKA/MsqajXXLl/U/pf/8/HTl1JEKIPo1Eo8e28j/vdPm8Oftc9eUZhfcu7lucC91fVjfDCimNN/T23m5H/Sr+XlIXR/WN2kKAoW7EKeCQuOuCahyqY1JUgEqT2XK8qSsfw+713X7n+vDbfbacHfmsL6q/nll9dctn6J+pe4tfr5lyp7NKO9PrMn9AAAAAADKEUQMaHpsuDtyHHTTyLcwyBdOrVWQTrsp63wqqFaVL03ar6Np+TjIWdTh8upoUr7O86ukkYdF8NAHGBtEVWMvOmRORvfWn9rclKYzq9+p49numin7H+39xPfnpzZPmoJACvT5IJzEQTQdfmrwONTGKEHIMLCpQyPjRtG0/wqihbszx0Gypv1rUj51b22V9wFHlan7XgIAAAAAxjMURHzqqafMuXPnXKp9Xbdfxo+kC4N8n4liUBoZp/MaXacgy41RkKUqP6dO+zlNy0sc5PRH3ZGDTcuP/fzCkYdloxOb0hqI0X0VRzg60U9fdiMUa7/9P+OCnqmjxnqIk6A1EFP3F05VXjreG7GoTVwmPUIxDqKVBdOmwY+WC9t9xOXVNc3+N+1f0/JN761peR90VlB4qsFEdmcGAAAAsM0NBRGfeOIJc/bsWZdqX9ftT4JGzSnAopFzZaMSc/nIG/n5+enOVSMPf8/WqwCfW6dwYuMUXb33hiMTNXKxpfUQvUeP9gJ8fs3CSd2f3/357UFUVCMXZ2X3ZwXJGKW29Wm3bQUTk1Opq3Zfrtq9GQAAAADAdOZJ0Ui/3Mi4qvxZ56cTx0G74r7c65ym5Wf6+fkgYbz+oUYehuceckFDXf8bEwxSTpkPEt4ZPX9tnBKOOHz8aC9oqOvf2Ts15A3r6+Y17rXnp6SGgR8F/vx031S+aGOPOsHBsvqrNmGpa9r9n2UaRZi6t7qB27JnU7d83esAAAAAAM0N7c68XSlIFe/+G/O7B3uanjtvz4W7F8f5YX25/Em1H+52HMuV1xRh337RF19n8FqUDtcxLNtJ2V8T5+fKj9P/3PMaS9WOybl85YWjDX3QUGxerd2fp8xvklI2QjCXr6BhuA7if7fPv2y35zjtKYj45ZUVc79LhxRU84E3H5wKN90I80XXxEFABZX8enpxfly/z1OZeHOP+FxYr1T1b9T+p/rg5fK8qv5V1ZErX1aP7scHYlPl47bKnr/kyo/T97JrNeJw/d+sDI44dOdW7bnSHyd1dncGAAAAgC1uKIg4Pz9vXvziF5szZ864M+3qun0AwBYWBg1TQUUAAAAAQNLQdOa5uTmzsLDgUu3run0AwBb2zl7QsPi/Z+41AAAAAKAaayICAAAAAAAAyCKICAAAAAAAACCLjVUAAAAAAMDInn76aXPlCiEFbE7PeMYz3CvUteNlL3sZ3/EAAGwiR48eNZ/5zGfMH//xH7szAAAA7fuThx8y37z7aZcCNo+/+Ou/Nde+6LtcCnXteOUrX0kQEQCATeRd73qXuf/++80f/uEfujMAAADt+9M//iPzAy8giIjN59Nfuso859p/4FKoqwgiPvXUU+bJJ58sTjzzmc808/Pz5itf+UqRblvX7QMAMOve//73m49//OPm05/+tDuD7r3VvO1td5p3v/uSSwMAsPX9+Z89Yg59G0FEbD6f/tIOs/tbj9vf3z5mf3/7S3cWVYog4vnz540OWVhYMAcPHjSnTp0q0m3rqv0fP3HIvNS99u4/etp8rKVxml23Pym6jwtHbL9delN4xSFz33ecNofXjBl43O78TfZ8Vln5lKo667YZUpkfdq+9h2r2ZxK6br8Vl8yjh//C7Che7zVLJ/cVr9qj9r9u9o/c7iVzzpYb7m/d+srKp1RdO0pdnsr8hXvttfX8u2xbyp5X7/xn/tH95kMf+rB58MEH3fmcqvd78POt66b/vTvJ51vV/zbu75fM+vptZmXlGy7tPPuQOflu+8uWGn/C/my/tXd66my79/10pj3l3+Fee+P2T/do2zqcaSubH3LX3nyb/fejw39A/sXxQ+Zz9new33Vp71/Y33GK80HfimtvGTzXrW+YR3/nL3ufuSHPMvtfvct84YEn7de/48553zDnHuydzz971Z8qn9K79vnLZXVW5aek7u9ZZulVdfozAbc/Zh59mf2edsnCxxfN0gn3epP4rtcZ85Pu9X/9qDE/715vD3vNfSde7l5fMIePfmrEnzcq/53mpiOfculJ2WtOHv9Oc/MtcX+atjet/m546sKXzQ8evtn8yLf+ivl1+3ka8H0/kT4fq3udVF07Sl2eyrzSvfY+N2IdTXTZfqptb5J9GOd9mbJPfXGH+Ztdz7Wv3m3W1j5gjh374og/D7YndmcOKGh305GNY/6eQ+ZGl9eGrtvHJqagXfDZuenzh8y9qy6vDV23P1W9oM3zT9o/Eopjj01/dfAPCEyRAkv+2bf9/NNtby29AOPG57uNAKI3ife2qv9t3N8v2V8835IMICqQd/Mt7ufiL9j0XS6gOAsUNAx/bs9a/9CAgmr28z50jBKsm2Xx/e0y5x78a5fXAgUNw/af/Zg5d8TlbQIKIL7C/hH/E+74PZv+GZe39fUCdRs/+z5r7r3n+1wetj0FzG4Pjv/2E+ZH7PdHa7pq/1NBm/q/Z2E/ZijgN11vM6urP2HuvvvvujRyCCJmfPDoaTN/ortAXtftbxnPWzfr6/a4I/OX0YsOmZNh0OsVNh2PrpuE37O/sIwyynBctp3Dn7d/EHYVyOu6/YnZGA228XfXnE3vMV/YNMGkJ6LATG8E2OTjBHoubYzS6/L599refEHkuRqjTmfBxnu76eNYLoCokX39oM1XeoG6e++c0UDduP2z5WqNMtyi3h+NTNwcvhYF3TQKcRrTuJ5ZY2TjJDyzH0js5HvrjkWz9JxeILGt5p9pf6/9Zfu1rL2yfB9ADEce/tG2CSRujPTb8IQ5fPSz5r4TsxJInLd9DPuiPvtRk5vAC6OgV26EWxMKerUR3FI7bQcSQ123j4R3mfV1Ao1DQcSvf/3r5uzZsy7Vvq7bxxb0pRWzsmKP43e7YKI7DwBAI79cjEI8duwpl67gAm5MlZltCgy+8MQhE/7tW0xlPrIZA4YA8p4w05zqC2CzeHsxGpEgYbWhNRG3q2ItP/tLY7wGYbjG348fP2ReGvwvvXjNwib5k2pfdWj0ol9f8X5XVqraD8v4OsLyMnBdSflQ3fLSpP8j0cjEt9qvj6+aldttBW4dQo2cO6n1CDWCLkz7kYPh2n/hmn9h+VR+yF071pqIVe2H7dlz6rvO9dO2bP/xxf2rypdR2hd3vriXpu1X5ZfaZf8h+EX3OnbJrKy80b0uszESsVzvmv0n9xTrrvXE664Nrsk2WF9vZOCGMD/O8+rW7/uvvvX6OJjeuK66fFn/PX9tKk9y+VXth2V65zbuX+m6zy/V9/CaqrYlbL+q/ib5+fY/849+2/z9Pztu/v7tvx/Ukbo/6U3p3Xi/JW7bG/Wz2/tcfSG4ZvjZ6Jz//gjzc+9tnfxc/6vyvXHvz1MQ8bYiiDgQGAxGIpZy1xzW6L9g3cTDfj1A5Yf/0ytcs9DXb8sm11ysmx/2z/dH7S9U5Ef3OvaaiMoL+6f+2mv7ayLG+an+lD2/hvpBw5K0l1sTUWVe5F5/NKxLZezvMHXWXBxd1ZqFPl8j93pfe2sk+rQfORiOTgzXHAzLp/JDVWse5vKr2g/b663nGF4zOLIy7l9VvpS0rzURv7Jo9sdrIL7tMXPuy73zV+w1517mzku8ZmLT/AZSIxHFn9eIRP+1bM3EcD1FSa2pGF6j/LDeuP1Un+Lycf3j643s27HjQiZwWLZmoi9bZAR8XRsjHTc+z71zqmMj/7NFPT1x/T5fU657XzfSvr9VazrG+aOWH93AmogaOZf6at/HQjg6MVxvz6+Xp+tT+aGqtfVy+VXth2Xic2FZiftXlS+jtC/h+abtV+VLWT8kLD9K38P3NOTrSJWPz6Xqyt1fzXvfWBPR00jDX7F/I37RpZHyDPcVCUVQywWximCe/cXupuCHrPJvVCBLrxvmp4zSvvcae50Cbze5tFenvA/KFde6OvT6Rt8H1x9fd1j+g/b8B3XOlQ375OXKe2P13wcFUx5fMSu3u9deMTLRfn3emlm/Y9Ws/H7vdJaCWAqI+TVvlF61f6woQCaaDm0y+U3VaT/8BdMF2Qr22iLIZ8v2H19Yvirfp3Ptx/z1depvmp/1ZDEKdfqeMI8eNkZrrg3zgYhF13+lvxoEOhQoCcuF+ZreqbxUEMjL1V9HVXlNhzYN6q9Sp/0nilc9qUCbnpHny/cCpam88vJxfsxfr/y4rITlm+bX8WRUxyjlBz9bz7dlht/PXh/32+vK3/veZ3/jmpB/r3ptbLT3VdveHvs6995Wqep/G/c3AXvtzzIFwm6xP9/CBlyArP8zV3TuLnutgmRK27JFEM2XHSc//HcjDtJNmw8Chv1T0NR/JFL5vv/FDVhlz28G+KDj+4O0selRgpDj03Tlr7nXXlmgL8UH5fQ95NN/HZRX/aqvLL+pOu2H9xfeWy/IuFFWwvJV+T6daz+ioN+XXaDPBRmXXtXLKij/yITyW/Btr7P/sX9c/0QvWQT0fsamFcjzAT+fJ2G+T4fX+IDgf+0lK6XKh/U3o+nLp+1XBdLs9+RQEK0XyNN6iRvp7yuuGSwbBuVGoenKZfXXkeufT8f5Chhe6CUry0+ZDwT5v82Ufl0Q7NF0aJPJb6pO++H/vEsFysK/K8PyVfk+nWs/5q+vU3/T/Cpx+bCspl3Hdfnri7T9qo/YwLkxxJ+PUK5/cZ64/E+/16UxEtZEDLzG/iKnf1D8ccH+UucDXAqSjTrqTWsapoJpXpw/ifbjkX/eOP0PFUG8oD8yypqNdcuX9T+l//z8dOXUkfoh49dIPHpsMF/rFbpRiAp+9R+XC2LdHAas4jX/wqCdTHJNwLrt22enXwqKw+b1NzbRfYX3U4fq9+3Vab8IYtq0P8Lrm7afUpXfut7opGG9IIUCIxv3v7HuW+913aBJSlX93pztnx+FGLZXp3wvsJOvf1x127d/PPWPcE3CUZ9feP1G2xt6bW/UryCX/eOtf4TXj9q2VJUZtc5dY/Shrvx7szEQIx6ZN4rcezttbdxfQAEw//Mx3LykbOSc1iesCui5oF+/bLimodJxfkz54b8btmxrG6u4AOFQ/+2/yUUyGAmZvL+q5zcB77fPpJjSbNsqAn02HQcAy6SuD+ubvl6Ab/CIA2C9dQQ1ClEjATf4IFt4Ll5zMA5ITnJNwrrth/fWy+vprcM4GtXvy9Ro/7X234MHg0NBPx/guyMxSrGK1lTMlanKn7B45F+4ZqJe54J5PgAYl/+Ae12lrLxvf3I0hdn+TBnYWKUXYJvumom9oOWGVP3qm86lRzWW968s/5PudRv3Z/l1/OJgUSqAFK/5F48em+SagHXb9xuK6AjzdG1Yto6wTJ32iyBmcITXN20/pW6ddfoeplPXT0L8+fDq9C/m7n0Kvz5sC0NBxIWFBXPDDTe4VPu6bF8j8cJfqOOgm0a+9f8IsEc4tVZBOu2mrPM3unOhqnxp0n4dTcvHQc6iDpdXR5PydZ5fJY08LIKHPsC4iX5sxEE6HX5qcUoc5NPIvahs/+1XkE9BR50vC3pWtR8HMeOgYZP26/SvlKYzu6Dx0PFL7pppiwNROvzUSFEwYzBvNFX1z7pR+78R6Okpe36963rnygJT6bY3xEGuOGCXe++q2q/Tv+0mFcSbpha/dxQA089GHySrIww86pj2er5xELJrxUjJ4WewWb5XXhf33R5+ajOqaKSh/X4cOMLpx7E4yKiRg2VlFWTUtTpfFvSsaD/enTkO8GnkYFg2nJqsIKN2c9b5I4nPc1X+DFCg71eCI5zaPAkaCRnWP402NsRBNI0UjL93/dTfrWCr31+FOEinIzXN1osDUQpWlZX11+q8vz5W1X4cxIwDZk3ar9O/nDrPzrcxjQBilVz/mt47hjASsSY/kq4fJLHHZ6K/BDQyTuc1uk4/lG+M/uWvys+p035O0/ISBzn9UXfkYNPyYz+/cORh2ejEWRcH6fxRZzSeH0kYlvuN6A9ZBR11XoFHPd/V6BfXrtuvyi/Vm86cPqrWQ8zpTcmsJw5E+UMBKT8aKjz/P/WK1ZarfzNo0v+q56eglM4pMGX/IBt6z8rbrv7xWOe9q2q/Kh/T1eT9nzI/Ui/8ubkZ/+1qIh4p6Y/c6MoZojUQU/0Ppy0XU57t72YvvGdwExekRlLqqLPT88Z05Y3jm12ep6CjzmskpgJ24U7V0qD9/nTk4Pi0y/M0slDnn/OY+YILFg6oyrfG3Z25qf5U4+CoO8qwLo2EDOv3x2SmM1fRSMHU9244em8z2+r3VyEO0pUF61L8aLewXDw8XcEqnS8LWHXdflV+TpO+t6Gqf03ufQC7MwtBxCnQqDn9QNbIubJRibl85I38/Px05zojDzXqbaamybZM96/nq5F/I4/6m4Cq9rvu36amgNVmCSxO2lyxpl1v5F8Xgbqq9rvuH8b3U2Z19b3m7ruvdukWaaReOP3YBR6LTUncKTRTTEG2v2sUaxa6c5Pgd38ORyZq5GIxBbrVN6839XczBGWnQ/evgF04HbpF7140+xUs1MjDRKCwMn9KNBIwnDqcmmJcJjX1WOWnN5JwFL31/9KjT9uikYDh1OHeFOPhIF5vx+hN+72pgM2sBJe6EAasxg5WNVDV/rT65wOdXd13HdG9D/44eJdZW2NTlTqGgohPPfWUOXfunEu1r+v2x6WRfrmRcVX5s85PJ46DdsV9udc5Tct3+vwUuIqDVpqe+x32vA84arpvLr+JVPuiEX5lgbRR2nf1lD7ecdofRVX7VflT1ZteqcDORvu9EWjaqKFaqryMMpIxp2n9de5PUz7Hvf8q4/S/bvu6LvcMNtoe1Cs32J9xVLVfld+1/GdjOn/XTLv+UP6z1/j9d1ODh4J8k5yOq5F6mn5s/20tRmjHawiOqs0gZNXzOZ/IF3vNyRHXbfzBtTXzoy1HDXyQMB5dqJGH4ZqIxY7N9mHr+ofcuUHfYv+geY+93zb776f7hkE1v9GIDzhqum8uv4lU+9Lb3CT9KEZpXyMVcwHDcdofgUYq5gKCVfnON1ZWzE/Zr2W3W5ZfFuQLg4R+N2U/lbhuANHzbYTl645WLFv/UH2Mz925vm6eNdIb0pu6vLEGooRBvFS+aCOVSa0ZqJGAmj5tf74VR7xGYc44/Ve+n648wv29YN2sv2OC/16JgjdxcMkHnez7XtCU1Fx+E6n2RW3E57xR2s/VI+O0P4qqepq0U6fveu2fVdn101LVvyb3jqQdr3zlK6+cP3/e6NjOFKTS7r+5zUe0pmC4jqCm587bc/0dlBP5YX25/Em1X9TRyx6SK68pwr79oi++zuC1KB2uY5jaCCW8Js7PlR+n/7nnVZuCVN9xutioY6A6d74fiFParwPoNlIprvflP2//uEnlh+I6Y7n8sH2xbRTXxeclbt9eo771H5/y1V/fVio/LC+59nX/8fWhpu3X6d9UKbDg10rTFMgwgNULfOQ3XwjLS7hZg8rH6/D1dhYe3KwlvC7e7KGs/l7fhkcg6vqw/rL78+XVn7L798ra8nL5uf6Hz0ZSz7/s+SlIFOfF7afK65qq+5F02yqX7n+dvufypXfNr/3aR8yLvnDc/P3b/8Cdl7I+x+93qJdXHrgr+2xIr73evcbCvoTt+/Z6n6lB9e5/sL06/a97fxJ/b5bdX+yXzPr6bWZl5Rsu7Sjo9W77s0sNuKCfdhMuAnVu85DSjUFcUK0vLO++KmiY5AKCA/nuXNGe2o7XWFT98fWJa4b6q3tUvZm+lOYrr+z5qI0wX8L21T9/P5k3SEHEZx07Zj6cuyijavfkXL6ChuFowyJo6F773ZvL0j0KIq6aY8dut/dYt/8Kkv1lSbDrWUWATJupDG8+0gvEbYxMVNqvAxhupNKbLtwLtKXyQ71rtXFLuvu5/LB98W2k7i9uP1VW/fX3V1Z3qOQaN105u3mK1kQM10HUGorPsee+3Ct3JZUf1leVPwHh6MBwI5U6ow7jkYU+6JgrF9Ybl5d4M5dUG3HdCiK+Z3XVfG3k720FzXxgLd6dWcJ8uZAYKThYx0Z+L2g3+Pn0+b2A3+BmKaGyfLUVjlYcpf+9oOXgaMca96cg4j9bMavvtJ9XdyrnqQtfNj94+OZ0wC0MLvm0/z8smoIantd1Cgal8kNxnbFcfti++Dbi8xK3nyqr/vq2yuoO5drP3ZM0bb9u/8Z5dqkyqfNhHWH7cd0S54/zfMrqd3mf+uIO8ze7nmtPvNv+e/sB++/tF0u+P6U3UnF1lZGKBBEBANhkfu3Xfs18+MMfNg8++KA7g+79sllfv9X+cvmNzC+gE+ICaKVBRBR+UCOVVlfHDiB261vs52nVfp5GCSACzdQJIo5j0vUWAcSVFfM1l94cqoKIM+IFa2b9n62alXe6dA1FEPF/vuxSwObRCyJ+wP57+4EiOMg/t/UQRAQAYJMhiAgAAGYBQURsVhsjETGKIoiodQiffPLJ4sQ3fdM3mec973nmT//0T4t0257xjGeY3bt3m7/+69x6JQAAbF/vf//7zcc//nHz6U9/2p0BAABo35//2SPm0Lc97VLA5vHpL+0wu7/1hS6FuoogontdUADv+c9/vvnc5z7nzrSr6/YBAJh1r33ta81DDz1k/st/+S/uDAAAQPv+9I//yPzACwgiYvP59JeuMs+59h+4FOra8bKXvWwgiLh3715z7bXXmrNnz7oz7eq6fQAAAAAAUO1PHn7IfPNugojYfP7ir//WXPui73Ip1LVjcXFxIIi4sLBgDh48aE6dOuXOtKvr9gEAAAAAQLWnn36aDaCwaWk5PYxmKIjYNU1n3r9/v3n44YfdGQAAAAAAAABdmrkgIgAAAAAAAIDZQhDR+fETh8xL3Wvv/qOnzcdaejpdtz8puo8LR2y/XXpTeMUhc98Pu9feQ6fN4TVjpvr41e53nDY32XYaSfXfs/fRuP5JmdT9TtRec9+Jl7vX3gVz05FPudfTtl3b32tOHv9Oc/hok3ZSffcuFHXPxswa9bN3r8z0AQAAALCZDQUR5+bmzPz8vDl//rw7sz0Uwa8oaPfjx905l56mrtuflE0bRPyOKGhoz51056ZmGkG1mQzUOTMbRPzOKGjWZtBnu7Y/iSBiaNL1TVKb7ycAAAAATM9V7mufAoja2KQr11xzjVleXnapbn3w6Gkzf+KQudGl29Z1+1vG89bN+ro97tjhTtTwe6fN4c8fMvetujS2kSfMTUc+a+695/tcum3bvX2k/PDaGv8WAAAAAOjUUBCxa1dddVWxuQowMV9aMSsr9jh+twsmuvMAAAAAAACoZWg688LCQjES8dSpU+5Mu7pqPzWdWMLpuZpe/NJgMFu8ZmGT/Em1rzo0etGvr3h/MLW4qv2wjK8jLC8D15WUD9UtL036PxKNTHyr/fr4qlm53VaQms4s8fRbpf3ag+Gaib785w+Zk6l8Ly6v6+vULzavmF6t0ZHBNUNTg11fUufVt/7jG7X+uLzE7avtVP/D86Fc/XH/Mu5cXzf/g3sde+vKivmae51WZzqv0uHae/GagVX5oum2Lzc7ihsM81PtSzg9t2n7ufw67ft0rv+fLcn34vK6vk790mvj8NFeGz3xmodxf706zybX/7i8pOrY6Fe+rOSuiesGAAAAgNkxc2siqu0Xv/jF5syZM+5MO4pgXUlQqwjgzXi+TyvIFgfuZJT6i9eujoHXifbCtITXx6rKKz1W/31QMOXxFbNyu3sde96aWT+6alZ+vxd4SwbVwiBXWdoHyeKgWFV5Bc18mVGvL2OvGwoiunOqK3t/ZfXXLZ9Li6tnrPqnpipIpPxckLEqvypdVb7r/Kq0Xuv5hUG9OuV7ZXrtjnp9SiqI2KsndW8b5zbq3mjPq1s+l5beufHqBwAAAIDZMTSd+dKlS51uqnLhwoXWA4jea44fsn/AbRwXbtkIZn1Qga2BPwCraU3DVDDNi/Mn0X4qACfj9D9UBPGC/sgoazbWLV/W/5T+8/PTlVNHKoDo10g8emwj/0WHzEnbl/7z/47T5uYgIDaQlnjNRDdyLqms/G+413Xql6oAYhlbl8pVvv3j1l+3/6NQ+XH6MhYFp+y994/P2s/A97lRaVofcNSATq9MGBDbSEu85uD8xueuOMLrm7afEufn2q/T/15wL91eWflPjlC/9IJ8o+ndZ7Vc/3NSAb9e3zc+P6Oq22cAAAAAaN/QSMTtKjXSLeZHyoVS023LAmGjjrSL1Wk/HNkXy5UP2y9eh+ft63CKcWygD0HZkM5Xla/b/9Tzq0UjD99qK4hHJ7ogWOlIOOVrpGGKAm8KllWVj/PFnS/K5+p3ddQamefrjK9TeY00dMlCGDTM1e/qzN5fVf/F1ZMMVKq+spGQFSY/nVnCkW26Zni04sbIMp+fGimXKuvpegWcUu2HmrQvVf2L2++d69Wfatsr639cPvd8VT5Xv8qF9fVyhtWdzizhcyjrn6TywnOpur3cyMyQryM1EhIAAAAAZstQEHHnzp3m6quvNhcvXnRntocwiJaSyi8LevmAWdmafan8SbSfC8JVlQ/zi9c+sOdeK4gYl08Jy4ZS7cdy/Q+prtzzHRKvgRhLBcnEB71SQcJQqryCYu5c4/olrC/H1xlel2o/ri9Xf1X5VH6Kuy4bJNQ1Ckg+VKO+iUgFiiQMcqUDScNBn42A0Mb1ZfV74+SP0n4olV/Wfu7+Q1X9a1q/hPW5U0NSQcTyvm2cK+ufVJXPlQ31rqvuv9ZkLHvverszX1ldrfz5CAAAAADTMjSded++fWZ5edml2qedma+//nqX2pw0dVjTIufvSU/1rcpH3sjPz093TgUQUU3ToT9/yNx74pDpT3mNRzVOitrS+6v2xp0K3RlNRVX/FRgbdzprE1Xtd92/zcZPTQ4+96UjD5t6whw+uvHeAAAAAMAsGgoidk1BxOuuu86lNg+Njrsx80d5Vf6sU+AuFbQr7su9zmlavtPn54NocVBLo+bqBLpS5TWSz08Bblp/G2wfDxcBKHf8RjBKsGn/3XWz8+3RGzl28y1VI8xE1+aCPj4QFQftNPJsEsGiqvar8qs07X+qvPrkd0Ke9vNpSv0LPvdHPunOy0bfB/We+eD9pDR9bwAAAACgXUPTmRcWFszBgwfNqVOn3Jl2ddW+glR1ptuGawpqOu28puDaPy6Lqb+J/LC+XP6k2s9NB86VD6crF33xdQavRelwbcPU+oThNXF+rvw4/c89r9oUxEpNx3XnB9b0C9f+C9YrzE739cLymq77+d41lfVLqr4U15ehKcMqH44ejNvP1e/qHOn+JOy/F14T31/cv7C9qekFtAbFU0rja5T/2WD6bCo/DkD66aouaa/JT/cNNW0/l1/WvvobTg8epf+9c718d2qgfNx/Katfr1P1xeL+eql7V+DP11d2/1J+b8PnRnn/4+dfVdaYH15f701lLn8AAAAAADB1Q0FEjQTcv3+/efjhh92ZdnUdxASQ0FmQD+hSvSAfAAAAAGwHM7c783bd2AUAAAAAAACYVTO3JuLTTz9NABEAAAAAAACYITMXRAQAAAAAAAAwW4aCiPPz88WahF3RdGatywgAAAAAAABgNgwFEefm5orNTbqyb98+s7y87FIAAAAAAAAAusZ0ZgAAAAAAAABZQ0HEy5cvs7EJAAAAAAAAgL4di4uLV9zrmaD1EPfv328efvhhdwYAAAAAAABAl2YuiAgAAAAAAABgtrAmIgAAAAAAAICsoSDirl27zNLSkksBAAAAAAAA2O6Ggoh79uwxBw4ccKn2XXPNNWZ5edmlAAAAAAAAAHRt5qYzX3XVVcXmKgAAAAAAAABmA2siAgAAAAAAAMgaCiJeuHDBnDlzxqXad/nyZXPx4kWXAgAAAAAAANC1HYuLi1fcawAAAAAAAAAYwnRmAAAAAAAAAFlDQcSdO3eysQkAAAAAAACAvqEg4r59+8zy8rJLtU8BzOuvv96lAAAAAAAAAHRt5qYzK4h43XXXuRQAAAAAAACArrEmIgAAAAAAAICsoSDiU089Zc6dO+dSAAAAAAAAALa7HYuLi1fc65kwNzdn5ufnzfnz590ZAAAAAAAAAF2auenMly5dIoAIAAAAAAAAzBDWRAQAAAAAAACQNRRE1FTigwcPulT7du7cWezQDADjunN93Txrxw6XAoBRvcusr/9d9xoAAACADAURtSbhwsKCS7Vv3759Znl52aXa86HDj5lz0XGXyxuV6lLZshBGVX7IXxsapfyoUu3NEvWvyftTdX9N88cR3lN4b22FwLpuf9IUQHzPyor52pVwuded5uTxQ+a+Ezra/Pmys6I95ft+Ne1fnbbq1q3n1eZzKnHEPo9Xu9che/5kfL7s2g5979B7e8j8jMtrQ9ftT8r32u/dn2n9B9LbzcrKTxaBRP5/BAAAANDDdObAx04umqXgWHDBFMyGX7Xvx1e26Pujz97+4N6ebe/tTpfXhq7bn5R+ANGlexQ8e6W5+ZbT5qYjOn7XppdnKDDwt65fs9o/NPGfB97b0+YPWg7kJdvns1XT24pA4t13E0gEAAAAhCBixhtcMGXUQNWP2XK32q8zte31JqfRcufdc/XGfX+a8O/tVqf73BpB2l4A8aYjD5iNgYlP2/TvmnvvmYGRdknj9k/lHnCvt6ETp81Nv+Nez7A/6DiQV7R/D4HEyXqXWVtj6jMAAAC2vqEgonZGPnXqlEu17+LFi+aRRx5xKWB72jpBvPa8d20tMQqxzNPm8NFtHHDbLBQYXDpUTFPux7w0bfncaXPzJggYYit4m1ld/YliNCIAAACw3c3cSEQFER9++GGX6pafPquRZ6m18JSfCvL4a8cZ6BGuTzdKAMm3mSuv/vq8ON+Xe7l9fWPJNVXlq9qXMD91TVX5mIJtfjRi+Lx9fyYtVa8/F/c97o/PC6+pq6wNL64/bN+XjT+PZZ/flFz90rR/4Xmfrlu+ud5agTt26KtfOy6cThye7+Vt6JXV1/yai6OsydgbPXnzLQpy+vpDvXPD0ytT19bVpP++P/q6cU3r0z9zayJqDUXft/CasjK6vqX1FeN1C+Opzk3zq9SpX6MWtS5h/5rgvc2VD/OKOoLXoYG63Tnx199sr7+2pH0pKy9N+l/f283q6hfdawAAAGDrYjpzIAye6Yinz06bD1r6dek0Ek1BvbrU/7I1AxWE0f34vDhfwTid+6R9Ha4N6e+/qrzk2pf4/nSE05FT9x+Wn2XxvYdrCurZKS9cc1DPeVRxG+F7E9cfth/StXWeqX+/fQC9Tv1N+ufXZNR5X4d//0e5v/E9w5w8rmnPfu04P/1ZgbHwvI54zcJnFNeUr7lYJz8MZMTTr6etd4+D/XtN0L9UfhwkLHt+M8CPXPR9i0c2erkg5AQpaPW9th8/b5+Pf73x3AbXTGyan1KUse9ltv3o4SiApzL+GpWVOuX9moyaQu2vDadT+/6kymvqtc7da9v7z0c3rvHtS66816T/AAAAADYMBRF37dpllpaWXGp76XJjlTBo42nNv1GCTep/WL6K6q97fZ21AHPtp+5PfL1l969g0WYIJOreb3Ovp6Xs+fpnGPxdPTIFAB+1hw+gK2jn76du/dPsX6zO5zFtcLTchr8tmd5cZ51BbYySW3Mxzo91ubGKD5LG/b/fpcvy4zUby57fBLgpzfcqwOcCglr7sPRxhlLXh/W14Nr+5613KGj18y5PQTL/uq6qMnF+sn33MOq2rwBeGLjzxul/yAfxwrpVZ901G+uWL+t/SnFPNa8FAAAAtpuhIOKePXvMgQMHXKp98/Pz5uDBgy7Vrc0UxKqioIuCogoQjXs/8XTm73fnJ0WBrLB+HaOMxNzOFIRt8twUAAxH+sVBv6b1Nymvz66+DxXkbP69qACYAnU+SFZHGHjU8Rp3flpSQbouxSMle8+gnSDnBPxvcd/t8b9Ocjp8Xrw7chx0UyAs7NvN7rwUATF3PhVUq8qXJu3X0bR8HOQs6hjhzWlSvs7zAwAAALBh5qYzz83NmYWFBZfCJCkoqgCRAjIK5IwSkPEjBX2QScfvu7xJUSArrN8fuRFn6td2DzTqGcTTfVMjWP10cR8Yr/s3c936yzQtLwokqlz42W3nb34/Ei8MxNzv8raLeKSkPzbJxjT/NtV3e4Qbs2gNRI1YdFOd2+JH0oX9utfleQp06bxG1xXBLnfeq8rPqdN+TtPyEgc5/VF3NGDT8k2e34Z3sTszAAAAtgXWRNyGfEBmM605uJmFI+nqjsTzQdvxpuwO8u2Hbfr1CydRf5vCYGK8JuJbVlfNz66vm2e5dHs0Ui+cftwLPPY2RsFEnDhtDivA56YmT4zf/TkcmaiRi1pDccZ2f/4DtyZgsWafOxeqykfewPMb+D8U7zZra79ijh1j4xQAAABgKIh44cIFc+bMGZdq3+XLl4sdmmeBH7nVRqBFwZE4qKf2JzXKTkGpLgOGqfsT369x8v37M84mJW3zwS9/dNFnv2ah+rIZnpnnPwPjjTzsTQ0eDvJNcjquRupp+nFvJNPwGoKjajMIWfV8Uvmi3ZpHnG79yjWz/uPudVt8kDDeSEUjD8MRh//2tDmsoKGu//96p2Lza2vmfe51WzTSLxcQrMqfdX46cTyVWDsp15le3LT8Zn9+AAAAQNuGgoiXLl0y58+fd6n2Pf744+aBB7oZwROvyReOBPNBrDB/0msC+jUYw/YnFexJ9T810k3XhX3wQbuy8ro2DvyVie9PRxikHTXf99/3eZSRfm2qEwTLbWxSJXX/Kq9zdd+bnKb1T6t86vnctrKSGI3o1xgMg3x110T0QTRf1peP1yx82hx2I5lGn+YbrzkYBiFT7U96Tcaq5xPn967ZNCMt/UYq/b7bY0ZGGvog2MZz7U0P9oGxsny/rmFVfpXS9u17PUoQb9zyUtQx8Nmydbjdoz2NEgyvCeuuU75M6fPrl323WV//QDEKsfznBSMVAQAAsH3sWFxcrPGrNoAmFEgMA5saFaggGN9803Hn+rp5z+qq+dr4wwFr8msmMnU565XrZm1x1ax+cHN+4uft5+lt9vN069Q/T5gd7zLr679iVlYIDgIAAAAeQUQAAAAAAAAAWUPTmbUz8g033OBS7du1a5dZWlpyKQAAAAAAAABdm7ndmffs2WMOHDjgUgAAAAAAAAC6NnNBRAAAAAAAAACzZSiI+NRTT5lz5865FAAAAAAAAIDtbuY2VpmbmzPz8/Pm/Pnz7gwAAAAAAACALs3cdOZLly4RQAQAAAAAAABmCGsiAgAAAAAAAMgaCiLu3bu3092Rd+7caXbv3u1SAAAAAAAAALo2FES8+uqrzdLSkku1b9++fWZ5edmlAAAAAAAAAHSN6cwAAAAAAAAAsggiAgAAAAAAAMjasbi4eMW9nglak/Haa681Z8+edWcAAAAAAAAAdGnmgogAAAAAAAAAZgvTmQEAAAAAAABkDQURd+3a1enuzAAAAAAAAABmy1AQcc+ePebAgQMu1b75+Xlz8OBBlwIAAAAAAADQtZmbzjw3N2cWFhZcCgAAAAAAAEDXWBMRAAAAAAAAQNZQEPHrX/+6OXv2rEsBAAAAAAAA2O52LC4uXnGvAQAAAAAAAGAI05kBAAAAAAAAZBFEBAAAAAAAAJA1FETUzsg33HCDS7Vv165dZmlpyaUAAAAAAAAAdG3mRiLu2bPHHDhwwKUAAAAAAAAAdI3pzBnP+z/+nnmue51SlQ8AAAAAAABsBUNBxEuXLpnz58+7FCbteT//98w/dMdzd7iTI1Id2eBmJr+qbB112u/fozu3HY0aZN5qQem272czPL9JfP9tVvxPl+kpPldj/nsyi4rPyha6HwAAAGCrGAoiXrhwwZw5c8al2td1+57+KLv01v9k/sqlY1X5KfrD6NLP/Cfz/7hj7ue23h/VxXMJ7nGU5wMAAAAAAIDZNHPTmbfqSMhU0PFL//I/mTmNIHHpSfnSlIN3064fwNajn3f83AAAAACAzYs1ERP8aLq/uuJORKryR0FADgAAAAAAALNux+Li4kAobO/evebaa681Z8+edWe2n36Q0KVjVfllNJ357+4w5s8SZYs6NTJR17hzf6aRO4lA5Tj90zlfbyjVlyrTqL+oM3G/cVthO2XPJ+brKJ6tW2cr+R5MOF/tFffUO1Wq9NlF91fVfo5/vrnPV1n94z6/+P5z/a/TvzJ1nl9V/XEdo95/rnzI1zV076lz0f2Hz0+m+f6J6i/ew9S1if5VUf3h50H6fbNf++9Lor0c1VHn2ZepUz68JvlsM/2vqr9fR+b9Kysf53lDbVS89zlF//RZ+Lmgjil+9pRffO40ct9/f2bK1+lfmTr9i5/xKPlVZQEAAIDNZiiIuLCwYA4ePGhOnTrlzrSr6/b9HxVlv+hX5dfh/7BIBTEG/gDRH1K6xqW9Jn2cVP8nXX9Rzj2PsI6B19HzKHs+MdWRet6+vWml4/ezSu5+qtqrUtWfXP39spn2U+mwvVGvH0fV8yurv+hLdD7sX79sSf+ryodKr60on6ovvN/c9Xo96vsnql+BldJnFl1fJfX+9PsWtFHUnWgzJXXtpMvn0nqd639cVlL1xe+PV6e8FOdK3o84L3dtiq4v65/k6k+VzV3v02GZUa8fRapsWH/xOvOsc/kKahbXufOSuh4AAADYTJjO3AFNYU5trFL8IeNey7TWTNyMij++GqwpWfyRX/IHZv8PuyBf75F/f8bN/2JJe6Oqar+u+PPl1al/nOfn779u/8v6Nyll9asvVe3m7j+lqHOE63NSz0/8GoPTeP9E9Rc/p2x++D6VXT+uMAA3qjrv3ajCOvv36tJSPFs9k5KRa2F+3f6VvT9N7y/72XD9ryMMsoXq1D/qZ0/la/3sCPpf1r864v6F9ev1qM+/KFPSl3HqAwAAAGYJQcRAMVIm80t+Vf6oCBKO5gX2+f9D+7zCQ6NIJuEFUb1F3cEfqVX5m92072/Wn5+CFQN9c+frKIIOrlxX38tb/fOZM7H3ruR5JZ+ty6ujSf+kafnN/r3d9Wc79/xznx//73sqDwAAANishoKI2hm5q6nE8tRTT5lz5865FLYb/cGmQG0RXI3+8NJoE42Mio9JBHU1GiVXd1X+Zjft+5vl5+c/c2G/vujy6lIwQeW6CiZO8/n6QIm+H/2zmpXP/UTfu59Lv3elz7bGyLem/ZvE/TXpfx2bvf6cOs8/9/mp+mwBAAAAm83MjUR84oknOtnUpfhjIZouG6rKr6LyVaMRNNIu/CNj0iMfZ1kRqLB/aIWjPPQ8tsv9Y2voBw1qfL9jtpRN366ikXIDP7f1b4V+brUQ5EJzxfsXfK/2/60f8f0b+PxE3/vjfrYAAACAWcN05pb4IFkuSKiRdvojQyMWdDQJWm5WGnWie9bzCtcUTD0/KYKz7vW4irpVT/SHn94f1T1Ovvo1qSl3ZfVP6vNRdX9Vqu6/af2zbhKfwZyq5zeN90/C8sU19vtvqwX1q967/rNxaa8o556Xfmbpmv7P7Rl6Rtn3Njo3jqb1p8rX/tlRo/46ivfPjRTsv381A4i5z0/d7z8AAABgMxnanXlubs7Mz88X05oxecUfSO51uBi8zoc7TuYU1+oPHZeO1cnv9yFzXZlc/VVt5+iPrnA3yzgtYd+lTv9TfSrORc9b7YWBv3ix/lHyiz9ME/2vEt5fVf2j1lv1+Sq7v3GeX+r+c8+vTv/qKHt+VfWH5STsv4IYVfefKp96f4pyiby4vOTef6mbn2oz7r/Uqb8o49KjSpUv7VvJ80uJn13x3iXur0yqfNx22TV1+lrVv6o6qsp74fsX30PVe5tT9K/i+rL6U/eWqi/ue/G9F4wGzPW/Tv/KpPoX0zVDzz/oXyrf15fLAwAAADajoSDiwsKCOXjwYGfrIu7du9dce+21nUxp7lKTP4QAYBrCIMgogaftovi5TWBo0+L9AwAAAEYzc0HErtsHAAAAAAAAMIg1EQEAAAAAAABkDQURv/71r2+7qcQAAAAAAAAAyg1NZwYAAAAAAACAENOZAQAAAAAAAGQRRAQAAAAAAACQNRREvOaaa8zy8rJLtW/Xrl1maWnJpba2O9bWzLe418C4nrm+bn7Zft3RSwIAAAAAAEzcUBDxqquuMrt373ap9u3Zs8ccOHDApbrxs+86Y1bc6xTl/647ctflvGd93awfO2b+3KXvO3HI7MhEgZQfH7nrp0ltt63sfsfpS65Mnfria5SOjzZ9Y2XF3Go/T/+6qw8EAAAAAADY8pjOPCIFEL/69oPmle5Yd+dHoQDi2sqK+fMro+1pc/joaXPTkY3j3nvaDVahXPi+6FAgsc2YngKJt919dzEiEQAAAAAAYNKGgoiXLl0y58+fd6nt6T1jBgfbpqBi26PeREGyLpw8Pnivcbotde5f1xDkBQAAAAAAW8VQEPHChQvmzJkzLtW+r3/96+bs2bMutfX0RyG6NDAp31hdLaY1MxoRAAAAAABM2sxNZ37yySfNuXPnXKobqTUR/TqIB+3rf+peN1kTsUy4rt4402Grysf5+urPx9eXjfTzZWL+el9/6rowL9VeLj8ceamvN9+yMSIwdf0oIxV9m+Frn46Vnc8J60yVb5oPAAAAAAAwTayJWJOmOGsNRI3R/E33etw1Ecso6OXX1KszHdZf71WVH7X+cSjAFbYRyrWvcgoKluVPm28zfO3T4/D341+HderQOR/0bJoPAAAAAAAwbUNBxL1793a+O/J2pZF2oXjNQwXhlPZHPBIvTEtu5J7E7U2CAlwpVf1LSfXPB9D0dcR9aaZKfQqPsH9lzySn6v5m7f4BAAAAAMDWNhREvPrqq83S0pJLtW9hYcHccMMNLoWQgmoKHvkjNdIwDmbNklz//P3MWp/rCt8XHbGy+xZdnzrvVeUDAAAAAABMG9OZN7F4JF8cZPTHrKjqn8/3AbOtMl1X91J2z54/7+89VpUPAAAAAAAwTQQRW/azKytmdX3dfItLt0UBqNTIxVnkA2ZlayIqb6vy965AYSqImst/5tqauct+vn7KpQEAAAAAACZlKIj41a9+1TzwwAMu1b5Lly6Z8+fPu9T2Egf1lK4bMNN1qaBbOGrNj1z0R7xG4TRV9U9ft+tGIf4ZlKnKBwAAAAAAmLYdi4uLbM8Q+dl3nTFfLdl5OZc3ivesr5u11VXz5253DAWKFOQLA4lK+80zfH68mYbOh4HGOOBUFYQMy6vtOJCXKh+36am8+piT61/c/qj337T/XtjHOuWr6pOwTtH14fNK5Yeq8p9pP0932s/TG+MHBAAAAAAAMAEEETt0x9qaWVcg0aW7UCcAhtmmAKKmMb/RvuabGQAAAAAATMNQEHFubs7Mz89v2ynFAAAAAAAAAAYNrYmoAOLBgwddqn179+41Bw4ccCkAAAAAAAAAXZu53Zmvvvpqs7S05FIAAAAAAAAAujZzQUQAAAAAAAAAs2UoiHjx4kXzyCOPuBQAAAAAAACA7Y7dmUu8fn3dfI/9+uDKivlE7xQAAAAAAACwLRFETFAA8QmChwAAAAAAAECBNREBAAAAAAAAZA0FEa+55hqzvLzsUu2bm5szCwsLLgUAAAAAAACga0NBxKuuusrs3r3bpdo3Pz9vDh486FIAAAAAAAAAusZ0ZgAAAAAAAABZQ0HES5cumfPnz7vU9vL6tTWzzqYqAAAAAAAAwICZ2515165d5rnPfa45d+6cO9M+dmcGAAAAAAAANszcdOYnn3yy0wAiAAAAAAAAgEGsiQgAAAAAAAAgayiIqJ2Zr7/+epcCAAAAAAAAsN0lg4jXXXedS7XvmmuuMcvLyy4FAAAAAAAAoGszN535qquuKgKZAAAAAAAAAGYDayImfGRlxexdXzfr9vghdw4AAAAAAADYrnYsLi5eca8LO3fuNFdffbW5ePGiO9Ou+fl58+IXv9icOXPGnQEAAAAAAADQpaEgIgAAAAAAAACEmM4MAAAAAAAAIGsoiKjpzGxsAgAAAAAAAMAbCiLu27fPLC8vu1T79u7daw4cOOBSAAAAAAAAALo2c9OZtanL0tKSSwEAAAAAAADoGmsiBpjKDUzGa9fXzet27HApAAAAoJn3rq2ZZ/H7JQB0amh3ZgXR9u/fbx5++GF3pl0LCwvm4MGD5tSpU+5Me7ps+9zhx9yrDftPLpppb52tdpdsO02l+u9Nov6u+Oejr6n3Y9Tnl7v+UddGTqq8zsW6fOYKIF69smI+6tLe0eOHzEvc732fOHLa/Gbv5dQdPXHI/GWmPeW/xL32xu1fnbZy+SE9r7882t5zSvq2Q+a+t7jX3l+dNje93b2etq7bnxR7Hyd/7LQ5vMn6fcJ+Xp/pXnsr9vP7N+71tG3X9o/b7/033XLaXGzwC4DquLrk7+xV+3OlSd2TpGf8Lzroz4/b53PBtvsxl/Z+3PanOB/0p7jWvh/huUmaZP2p/rfvu83J439iDh993KW97zb3neidv9LvX+/am28Jz82IG+y/P690rz9t/935iHvdtTvtvyd/x/4B55IDbrf/znzFTOZvh7vs/f/CBOubIAUSf2511XzNpQEA7RoaiXjx4sXOAojy1a9+1TzwwAMutb0ogKTgjz++kAgOzbK4//7A9MXPXIHFLv4/bWkA0f5h85f2j6Sb7B/gOr7Zpv/pDP2PZAUNfd9msX+dUtAufD4fsn9YvMv+AdPW8+m6/W1OQbPw+f9r+72xu8Vnv93bH9fRoxt9fupKL3Do07MSQARmlgKI37TxPXPT39j0611e1247bQ77fj1hzBUFDn16BgN+0/CW1VXzs/b3zWe5NACgXTM3nfnpp58uApnoBeVSo8zQDY0UDMXpNtQNyuq6WQlC90ffBb/ZHrfpb77nkPmnLj1rxu2fynU6crAN/9X+ofKhQ+bed7p027puf5s7Yj/jv2i/N7oKpG339tG+D3Y+sm8r+8NoZOIMuOGQOakAYjjy8JRNu0Ai3/qbx50KNPJ/HAFg4lgTMaDg5SOPPOJSAEbx2rW15CjEMsftH2ZbPuAGAJg5CgzOnzhkbnRpKaYCHyFg2JwCg99u7jtxjUtLbyrzTUdmcNpyXQokfmR7jPTbDG6zv28WoxEJEgJA64aCiNdcc41ZXl52qfbNzc0VaxN2oeup3HVoZKI/wn82fbos32uS70fehdeMKiw7Sv2p6yW8RuXDsuP0P8yLy4cjQ/X1+W5UoD8XSpUvo2v99f51WXmdH0dYb6qOpvlNabSipg/r633uCKcTh+eLPHdeirL6ejyd71Xlh4rRk7f0gpy+/lBxLvEGpa6tq0n/fX/0tX9N6gM0DVq3MGhXU40HNM2vUqd+TX8Or1PaP59c+ahMPx2WF3v+ZK78W+z1z3WvRykvqkPX+7ri8uH5VPkJ0xp24Xp9Softf1PvdF9Vvmj9vlx+TtP26/SvSln/VbfSVffXJF9taFRkeE3dUZJ1nk2u/3H5OF/Ca8I8X6fWnFyrWX9cd1u0ZuGNJc9UgUffv4GApMq41yFdX1ZXyJcvq98bN79p/yZHayJeU7I8hQKPvv+DAUmVGabry+oawanT5rBGHard3MhDTXnu96937YAwP8zTSEely/I9rUno85/tzo2irLzWVEzVp+vt+R32a/Hv0V577o7g3yZfJlXenovbKNK+rrgPkrs/lfd5qfyaFGj82qaNWgPA7BraWKXLzUWk6/a7osCMglThm6Ggl855ubQP7ITTXeuU1y9Hvsyo14fKAktN+hMKn49e+2v86zDfG6V+yV3v69e5OC1xnan+iO9vStx+Sqp82TnVFT8vb5L5XjEScXU1vR5ixTRfXaPNTVIbmqTKF+c0ktF2oF/WpcfND4X9KK7NtB9KXRsqy4/rUzp8Hqn83PUTowDVj50e3MjEnTv8DmOuvGDG8/V8lNbmLKkNWdy1teoPr7Wv+xulhNf79sK0hNfHqsorPW7/fftjUhAnt7GI8v95kBad8xtlVOVXpavKd51fldZrPb9wI5M65cMyo16fooBdvFGLzqme+N7C+83VXbd8Li06F96PV6f+phQwK0YelqS9so1PcuWLMrb//deufHGNzgd1perXuZfaX0Duz/QvlX6p/Xq/q7/O9bl0MxsjD9Npr2xjlVz5cOOWsHzvmolOj1bA75X2j6V4YxUFAOMpz+7cYY1WjPPDdKrO+HoF0d5r018pSXsK0v3CaXNzvBZiVfk69SvIl9pYxV570l6r832p+v6O/Vq20Uuu/Tr1O5qu/B5tsDKxNxwAUAfTmWeIgkgKzvjDj3STOC0K4ui8p3SZsvJenfolDiaFdL3yw8ObRP05KlfnV4iy+quej6fyurZue21Rn8Ij7F/ZPedU3V+T+1fAy//f5XBEXRHkc69DddYZLIJnQYfiNQ3j/Jjy+wuoq6z6pghyC4qAYNQ/9f/fu3RZfrxmY9nzaywcQafDBa2K39m1PmEqMJbjypT+zh/nT6L9v7J/kLzDvQ6N0/9QEMTr91d11l2zsW75sv6nxM+vodzGIlofcNSAjsqEATAFhcIAUrzm4Hr43kfXN20/Jc7PtV+n/3p+Ze2VlddGKFKnfskFEMto45U6zy7X/xwFAdX3sA31vcnGNCo/qQCifNDWV0xptv0pAnk2XTeAlro+rG8SwgBirKz9z7jXdfrX5P6r/aH9edGb0rxjRy/QNxxALJO6PqzPnWqDRiXa5zKwsYqCgHEAUfx051R+vKZibrdnF0QbCJjdZtM/bcs/25XPqVM+TCsQmQjQNXZ7r86hHx9V/UvdoPIn3T8AwNiGgoiXL1/ethubzM/PF6Mgu6KglYIz/og3xoiDjDomadr1T1vc/zZ/z+xa+LnREQufi46Qrk+d96ryR6UAmIIRPkhWRxh41BGPHJy0VJCuSz8U3X/xDNr6gMe7I8dBNwXCwr5p1JznAmLF+dQ026p8adJ+HU3Lx0FOV0ftt6dJ+TrPb8LiIJYCXWHfw5GLPmik82WBozhIp+Pq4No4iBkHkZq0X6d/uSCqVPW/qWnWn3t2k5Dqe902FOSsem+69prgvvyhkYCzok7/ikCi/X4uRkK6c7PhpUN9v+/EmHNaJyEOAlZ5Wdx3e7zS5dVxR6K8phfXVaf8rfaefvqQudeNZGxVrn+2X4ff4s7VCZoCAFo3FER8/PHHzQMPPOBS7etyc5Mu12NMUVAxDNzEQUZ/TMq0658EPQ/1SV/DXyyU1kjCsN9jDJ7YkvwzC4+YP69rdcSq8qfJj8QL/5D/9y5vu4hHSvpjKiMPR+FH0oX9eq/L8xTo0vmyYFdVfk6d9nOalpc4yOmPONhZpmn5Js+vIT9SLuz3N1yep0CdzivwqP7F69rFQTp/1Bn9Non2q/Jjuj4Mojbpfx3Tqt+PFAzrjJ9dU037Pup70zaNFIzvTcfAtGTbbwXoFKhLrUE4TXX6N7s+k+y7RidujLLuTV+++ZZvN/fek1ojsUMaaZjqv0YqukuyNIovVT41si+laflpq+qfRh4qrSCn/R5SMHEc7M4MANMxc9OZN8PmJmifAlipkZk637Yu2mxLGCxM/dqVy//46qp5yv7C9jqXbpNG6sUbsfiNUTAjwmDXuxJTlqrykTfjz08jy9S/eCRfW6ra77p/m004UtAfkx7J6IXvzaQDidMaied3fw5H/mlkYDFleCaiOD3TDXL2piDfe09vzcLJ8bs/h5EljVzsTYFuvJSDpiOnNjrZatyahzcrUNfhIM8sjUq03zM3aWRi1MdiPUQ2TgGATrAmYmCWp3IrcBMH0aTuqLBUeQXhvKb1VylrX+dH4a/X10n+2lDWv+2g6j1u+hkopgbbP1TiIN8kp+NqpJ6mH/s/ZuM1BEfVZhCy6vmk8kW7NY823fous74+7163RCP9ciPjqvJnnQJ3qaCdva+Tde6rafkRnt+b1tbMAfe6CY3+izfpKKNrc0EfjTRLBe00Sm4Sgbyq9qvyqzTtf6q8+uSnK0/7+TTlRwr6IxzJ6IOM8fPV/dXpu+6x7nvzMvvZXm05au6DhHHgTUG5cE3EYl1D+72i6/16hZOQal9t+6Blnf4VAcSgf6nrjflRs7b2gy3/TwkfJIxHF2rkYbgmokYrKmio60vm437nulm7dcdoU2L97sxhIDHY+ORKKl90jaY7V+W7ZKnb3HTeOLCnoJ89N5Hy2qjkF+z9aOSfnz4cXz8tVf3TGo1t9QUAMJah3Zl3795t9u/fz2jAlilQsz8RGNP5MNAWB3R8Xqq8gmA6FwrLKy8O5JXVL6n6vFT7KXH7Vf0NxfmpdPjLlfJ0zt9DVf1S9nzK7k/nfX4sd32ZuP065avqlLh/uj58Hqn8UFV+6LXr6+bqlZXhXZrtH4U+MFYE/Wy62GFYefaPl9Rux14RVHOvJSyvAFtqx2OvqDvKD9uL6xbVH18/dE2iv6m2Qrn83PORMF/KdpsupyDiu83KygWXrkFBKrfxRyldE64jqOm5H7J/BNhy/d2L4/ywvlz+pNrX67LdinPlFeDz7Yd9sa8HdltW2tbRf3tsHUPthe3E+bnyrt2R+p94Xgoifmp11Zx16ToU8IlHl2mKarguYXyN8t9vP6s+0JjKj9c1VMAoXOcv3Jk43pwj1rT9XH5Z++pvGEgdpf86F+9GHJaP+y9l9UuqvljcXy917wr8+frK7l9UZ53dk1NtpJ5neP8+v05ZURDxRceOmbXkN0i1YlMR+3zKRgjm8sPAnYyym7KXqr84Z59veG2qfNi+2lYgMNz9uax/qfqlaCMo3wsifs0cO/Z/pn/+VCrbfdnL5StoGEaTekHDnnC35lTaURDxFavm2F1XKn8/HaKgn1/HMLURSpgvqR2cU/n2vDZe0S7Ofbo23oxFQbVwHUO3UckABdxSuzNLWXm3scnA7sei6+PdmFW/raP49gzbVxBSuy+H4vyqzVpy9xfXH937e+33/M9pV2aXTumPVHRpAMDkDAURtSagNhc5deqUO9Oua665xrzkJS/pdF1GAM0UgUT7C95Hx/yjbhRVgTvI++wfgu8yq6sjBBCxZRQBxGPHzNkWvh+xfdQN8k3Ty+y/NS+y/9aMG0BEzo+a9fWv2X83xg0gduw71836K1bM6l2JABs2rSKAaP89YxozAHRn5oKIXbcPAAAAAAAAYBBrIgZ27dpllpaWXAoAAAAAAACADAURL1y4YM6cOeNS7bt06ZI5f/68S7Vrz5495sCBSSw9DwAAAAAAAGwdQ0HELoN40nUQEwAAAAAAAMCgoTURAQAAAAAAACA0NBJx586dZvfu3S61fbx+fd2s2+OHXBoAAAAAAABAz1AQcd++fWZ5edml2qcA5vXXX+9S7fnIyopZscdeAokAAAAAAADAgJnbnVlBxOuuu86lAAAAAAAAAHRt5oKIAAAAAAAAAGbLUBDx4sWL5pFHHnEpAAAAAAAAANtdMoj48MMPu1T7vvrVr5oHHnjApQAAAAAAAAB0bcfi4uIV9xqOdmr+Hvv1wdVV84krPB4AAAAAAABsbwQRIwogPrGyYj7h0gAAAAAAAMB2NzSdeX5+3hw8eNCl2rdz585ih2YAAAAAAAAAs2EoiDg3N2cWFhZcqn379u0zy8vLLgUAAAAAAACga0NBRAAAAAAAAAAIDQURL1++XOzQDAAAAAAAAAAyFER8/PHHzQMPPOBS7VMA85FHHnEpAAAAAAAAAF1jd2ZHuzJ/j/36IDszAwAAAAAAAAMIIgIAAAAAAADIGprOvGvXLrO0tORSAAAAAAAAALa7oSDinj17zIEDB1yqfddcc41ZXl52KQAAAAAAAABdGwoidu2qq64yu3fvdikAAAAAAAAAXZu5ICIAAAAAAACA2TIURLxw4YI5c+aMS7Xv8uXL5uLFiy4FAAAAAAAAoGvszgwAAAAAAAAgi+nMY/jZd50xK+41AAAAAAAAsNUNBRF37tzJxiYAAAAAAAAA+oaCiPv27TPLy8su1T4FMK+//nqXAgAAAAAAANC1mZvOrCDidddd51IAAAAAAAAAusaaiBGtd/i77ljZscOdreet7/xkv2xZ+Sb1AwAAAAAAAF0YCiI+9dRT5ty5cy61vSgI+NW3HzSvdMez/tXv195ARcHBr/2r7++XTZVvUj8AAAAAAADQlaEg4hNPPGHOnj3rUu27cOGCOXPmjEu1xwcB111afu4dLzf7NGLQpUel8r6+adQPAAAAAAAAtGHH4uLiFfd6W1OQ76B7HfvNtx8cCP7pWo0oDM+JRhq+fMeOoetllPoBAAAAAACAWUIQ0SkCgxo5eKX6cZQFET0fMPzNoL5R6gcAAAAAAABmydB05vn5eXPwYNmYuenbuXNnsUPzZvaet7PmIQAAAAAAALaOoSDi3NycWVhYcKn27du3zywvL7tUexT4SwX9NIKwTiCwuC6z23LT+gEAAAAAAICuDE1nVgBRIxFPnTrlzrSr6/b9VGSvbH3D3JqIXjid2atTPwAAAAAAADBLCCICAAAAAAAAyJq5jVW0HuL+/fvNww8/7M4AAAAAAAAA6BK7MwMAAAAAAADIGtpYBQAAAAAAAABCQ0HEXbt2maWlJZcCAAAAAAAAsN0NBRH37NljDhw44FLtm5+fLzZWAQAAAAAAADAbZm4689zcXLFDMwAAAAAAAIDZwJqIJV6/vm7W7fFDLg0AAAAAAABsV0NBxAsXLpgzZ864VPsuX75sLl686FLdUADxiZUVs2KPT7hzAAAAAAAAwHY1FES8dOmSOX/+vEu17/HHHzcPPPCASwEAAAAAAADoGtOZAQAAAAAAAGQRRAQAAAAAAACQNRRE1M7IN9xwg0u1b9euXWZpacmlAAAAAAAAAHRt5kYi7tmzxxw4cMCl2vX6tbViR2ZtqsKGKgAAAAAAAEAP05kDH1ldLXZk3ru+bn7InQMAAAAAAAC2u6Eg4lNPPWXOnTvnUgAAAAAAAAC2u6Eg4hNPPGHOnj3rUu27cOGCOXPmjEsBAAAAAAAA6NrMTWe+dOmSOX/+vEsBAAAAAAAA6BprIgIAAAAAAADIGgoi7t27t7PdkWXnzp1m9+7dLgUAAAAAAACga0NBxKuvvtosLS25VPv27dtnlpeXXaobH3E7NK+zSzMAAAAAAADAdOYyCiSu2OMTLg0AAAAAAABsVwQRAQAAAAAAAGTtWFxcvOJezwStyXjttdeas2fPujMAAAAAAAAAujRzQUQAAAAAAAAAs4XpzAAAAAAAAACyhoKIu3bt6nR35i7t3LnT7N6926UATMsb1tfNa3bscCkAANCOHzJra693rwEAAEYzNJ15YWHBHDx40Jw6dcqdadf8/Lx58YtfbM6cOePOtKfLez93+DH3asP+k4tm2nPNH7Xtqp2mUv33liZQf1fi56O0D33pfPz+TOp5lhmn/tR70+V7ogDil1dWzP0u7d16/JB5oXu4Hzpy2nyy93LqbjtxyPxRpj3lX+9ee+P2r05bufyQntfZo+09p6TvPmTuu8m99v7ktLnpfe71tHXd/qTY+zj50tPm8Kbq9zPNfScOmpuO/DuX9p5pTh4/aG6+5d+ZK/0fkL1zh4/G107KJOtP9b8D32c/299pP8u/5NKePX/Snr/Znu93z507HF87C+zPqZP253rxo/0Wez+Xi7Pdu8c+37K5OCv2WT4dPN8mdP+r9v2aVH0T80NmfX2vWVn5iEsDAADUM3PTmefm5opg3nak4JCCO/74QhCw2gzi/vtjq1AA7/nBfW2m9yd8P3QosNhF38sCiAqendUfmEd6x3fZ9Mtn6OEqaOj7Nov965SCduHz+Yz94/zNLmjQhq7bB5B23H4vrpw2N/vvzfVe4G4mvjeDf28U2Lxi+9lPz1zAbxo+YVZWnjDr6683TAoAAACjYE3EGaagnAJV6J6Cbgoghn9YpN4fndsMZikI2h99FzzcO236wD2HzMtdetaM2z+V63TkYBv+0P4R/plD5t43u3Tbum4fCd+Y4ihEmE/N4ChEjfRTYE4BOnfKHLXpdfu9uZMg/+bRm/pMoBEAAHhDQcSvf/3r5uzZsy61vVy8eNE88sgjLgVU2yxBw1nwhrW15CjEMnd1PVUXQMY3zE1Hzpj7TvzjIMDQm+Lc+VTgreBTp81Nnz1k7ntjEHBzU5wHpjJvNvbn+sSmCqOh3mjEu+8mSAgAAOobCiI++eST5ty5cy7VvvPnz3e2HqOCiA8//LBLzSZNqdWouHg6qk+X5XtN8pWncz6/rI6ccetPXS8q44V1p66v0/+y/vmRezqfE/bH82XCumP+fHik7jcnV3+VsN1U+ab5TWm0oqYP6+t97ginE4fnizx3Xoqy+qqpdYl8ryo/pDo1/VpBTl9/qDiXeANT19alNRDD/sXVx/kh3x997V+T6N9UaN3CoF1NNR7QNL9KnfrtuR3hdUq77Gz5qEw/HZYXe/5krvxN9vpvd69HKS+qQ9f7uuLyYdk4rzVaZ/Afu9cx5fn+hdcoIJkq06urOujhy5fV742b37R/E6Q1Ed/oXseUV/TdHuE1Ckimyri6Gndf04U1fVnt5kYe2mc78PmMpzuH+eFvrH5Nw7J8ryq/SlX7MV2v+1W+ytib2WGfQ1hHcX+p8rZsP1982l47VN7L3Z/K+7xUfi2fMKurH+F/CgAAgL6hjVXQDQVeNKotfDMUFAqn0ObSPnAT1lGnvH4ZVYDMp0e5PlQWOGrSn1D4fPQ67LPO131+ZfVL3etTz9rz/Qmlri+7Hy91P5KqX+LrR6l/2vleMRJxdTW5HmLVZiK6RpubpDY0SZUvzmkko+1Av6xLj5sfCvtRXJtpP5S6NlSWH9endPg8Uvm56ydGgauXnh7cyMSd0yYhV2Y936e1OUtqQ5ZR6o9e9zdKCa+Pyyst4fWxqvJKV/Q/1dbN4bmx9UYeaqpyL8gQpz0F1lIbn+TK9173Nm4Jy/deV2/covKvsl+fLKm/LB2WqXN9Lt2QG3moqcpFdXHaU+AvtbFKrrx7XWzcEpZ3ryc62lFBMAW/4o1VFOTSJibhlGcFxfxGJHF+mPZBOFtnMr9O2lP/jtnzts0Bo9aXqt+eS26sov7b89nnobR+CdG51OjNXPt16i9ouvJec+wYgUIAAFDPWP9fEtOhAJGCL/4IA1pxWhSkCdfki4M2obLyo9QvOldGeQomhcck688J28opq7/q+YT8vY2ypmDd/o1DfY/rj/una8IjvF6vR1V1P1X5OQp4+ZET4Yi6IsjnXofqrDNYBM+CDsVrGsb5MeX3F923R5sbqxQBwah/6v/nXLosP16zsez5NRaOoNPxUvuMfIBK6xPGga0qrkzp2xHnT6L9P7F/WKeuG6f/IRfEG+iv6qy7ZmPd8mX9T7HlB4KKjfSmNN97j0be9QJoCvrVC0akrg/rc6caeTLTn7L2H3TpOv1rcv81uCnN92pkYBD0q1V96vqwPneqFQr02Z9JAxurKMi1Ys8NBLQs+3OqCJil8m3ewJqKLiiZfB51yufUKR+my+6nKT27VABxnPtT/qT7BwAAtp2hIKJ2Rr7hhhtcqn27du0yS0tLLtWu+fl5c/DgQZdqn4JWCr74Iw5SxUFGHZW/CI9g2vVPW9z/afdd71ccBO1KeN+p+w8/VzpicdmQrvfnU880zJ8EBcAUqPNBsjrCwKOOeOTgpKWCdF36sej+dbywrW/eeHfkOJilQFjYN42a81xArDifCqpV5UuT9utoWj4Ocro6ar89Tcr7gKPK1Alatm7X8L2deFW7U4Gz6vRPm8YokNgLIM6U6+O+2+N/H+GzN2mjBPFEgbK4/7Zg7f63Ud7e0+G77T0ds/d22Z1rS65/CrDaZ12cq/u8AQAAapi5kYh79uwxBw4ccKl2zc3NFUHUWREHqeIgoz8mZdr1T4IChepTHNBSWiMJw35vp//bHt53eNR5Bnp2cbmYP6/PYypY6POVl8qfJj8SLwwkzfbKppMXj5T0x1RGHo7Cj6QL+3Wfy/MU6NL5smBhVX5OnfZzmpaXOMjpj7ojB5uWt8+vGAUWPL/ZCShopGB0X8URjubz05d7m7i0q07/ZtjDqb7bIxyd6Kcvu01cZooCYan+p0bmpXRdftqq+qegrdIKcup7f6zf+NmdGQAADGI6MzYFH8AKf49VQFGBwzYoMDat36HD4FsXQbhR+EBz2fMIg4lx/q+urprnrK+b17h0mzRSL96IxW+MghkRBgtTga6qfOQFz09ToSf3/KY1Eq83VXhw5J9GBs7a7s9TDnJ+6rQ5rCnIbmryxPjdn8ORiRq5OKn1EDVKbjv8hnm8t57izXfP8P3af+uGppMXfsisr7MeIgAAGM3QrzyXLl0qdkjeji5fvlzs0DyLUkE0USCtjlR5lfXppvVXKWt/1CCgglii+ib5O+84z2ec/pdR/eExCl2fCtqF/W+iKqjZNOipqcHxGoMK8k1yOq5G6n1XMPUrXkNwVG0GIaueTypftFvzSNOt966Z9V90r9uikX65kYVV+bNOgbtU0NPe18k699W0vHt+0Ucj6R1ra+b57nU7fJAwXv9QQbnwnN/kpLde4eSk2te6hj5oWad/vXUQe0HNsuutZ6+ZtZ+PT06ZDxLG6x9q5GF47uHTvY1WdP2vuXOxN9v+f+eI/dcouTho5Tb2KDYZSeWLgnKafluV75Kl2ihf536mpap/2yWICwAAWjdzuzNrSrHWJtxugUwFYhQgi98MBYJ84EziwJAvkyrvg1zxOV9e1yswVqd+SdXnlfU/Frdf1d9QnJ9Kx30P76+qfgnriMtLnB/XpfzwetGziQOD4fOqyg+l6vfCvkmu/piuCel61eefVyo/VJUfesP6uvnyysrQLs0KevnAWBH0s+lih2GbLqYs63X8QBzlh+sghuUVYEvteOwVdUf5YXtx3aL64+uHrkn0N9VWKJefez4S5kvZbtOlFER856pZeZNL16Egldv4o5SuCdcR1PTcz9g/dG25YjOQVH5YXy5/Uu2718nHkyuvAJ9vP+yLfT2w27LSto7+22PrGGovbCfOz5V37eb6X9m2pSDih1dXzRdcejSp3ZFDuXzlhaMNR9lN2UvVv7HRyYZU+bB9TV8+U9S1MdqxrH+p+qXXl4HRkgoivvmYWf2ZgU7X56YcD+2+7OXylReONvRBQ722ef3dmlNpT0HE/8v2/7Nj9N/+XDppGy/aV+ArXjcwzBd7zdDuxql8Bcnq7D5cVb/YupK7M8so7Yuuj3djVv0+2Be2r/72K3bi/Ph+Yrn7i+u3eRv97Y1CXFn5iEun9K5ZXWWkIgAA2DBzQURgOxolCLcVFIHE1VVzfwt/mVQF7mDtXTdr/2rVrL6Zfw62oyKAeOyY+QKRgsl7tv3eevOqOfYvr2zOQMyttv+/Z/v/Wdt/dwqbndY57AUHAQAARkUQEQAAAAAAAEDW0Iope/fu7Wx35K7t2rXLLC0tuRQAAAAAAAAAGQoiXn311Z0G0hYWFswNN9zgUu3as2fPtg2gAgAAAAAAAGXYuw0AAAAAAABAFkHEgHaEPnXqlEsBAAAAAAAAkJnbWEVrMl577bXm7Nmz7gwAAAAAAACALrE7s/P69XXzPfbrg6ur5hNXeCQAAAAAAACARxAx8vq1NfOEAokuDQAAAAAAAGx3Q2sizs3NFTskAwAAAAAAAIAxxvz/nuCKL08JsYsAAAAASUVORK5CYII=;" parent="WIyWlLk6GJQsqaUBKTNV-1" vertex="1">
          <mxGeometry x="180" y="250" width="1054.82" height="270" as="geometry" />
        </mxCell>
        <mxCell id="_DV5pZ1egGBXhp707ExY-64" value="UniformBuffer (UniformParamter) 는 매 Pass마다 새로 생성한다.&lt;br&gt;어떤 Parameter를 Setup을 할지는 SetupMode에 의해 결정." style="rounded=0;whiteSpace=wrap;html=1;align=left;" parent="WIyWlLk6GJQsqaUBKTNV-1" vertex="1">
          <mxGeometry x="475" y="545" width="420" height="40" as="geometry" />
        </mxCell>
        <mxCell id="_DV5pZ1egGBXhp707ExY-65" value="" style="shape=image;verticalLabelPosition=bottom;labelBackgroundColor=default;verticalAlign=top;aspect=fixed;imageAspect=0;image=data:image/png,iVBORw0KGgoAAAANSUhEUgAAAxwAAAFMCAYAAABBFrrWAAAAAXNSR0IArs4c6QAAAARnQU1BAACxjwv8YQUAAAAJcEhZcwAADsMAAA7DAcdvqGQAAI7+SURBVHhe7Z0JnB1Vmfbf3vfudBIImyEhIrIMi2EUQY0gCFEUcENQcQECdBhAkSgBZ1RAxjAw+A3psIo7blFUFByNiIqgAy5sYZElbEIISXrfO9/zVJ+TVBd1b93bfe/t293PP79KV533nLdO7e9T55xbJXPnzt1i+eRTV1r9FedYp1sMOPcrVn/52aPTSJDOvPmtUsHY8yb76sYT7RMvptieqN0vz/yO3bjxBPv4zBTlkS+wv+iWU5Fq/b58Kv+esZYP129PbsuJ2+oaXk7lf7zkon4oyzyfQPqo0kl2j1vHKHs22xtXPkrUX3g5k/VnWt7Nj9pfSdsfJlzeE/bvkkYRZ0faqPqOhejxJpnWL7z+ODvJ1f5xvGflSqtautRucstxvKe11apaWtLmEUIIISaSUvc3f1BsQEg0hCdnEtOEfRFQHeGmXUpcYhFRqPqtRQA689t24xy3nAv2RYC7te5maWsft/5syk80+dh/2ZCL9VOQTFT9hRBCiAki/4KDXH62dYQnlywi+IAGgV9Kgjeo8W9Di47gjfCH7OO/Qn3DE9/+5iLoov854wiR09Uv7hj4/MWw791b8ZNfUfcMA+JsyuO8nBTnWxhuH7ajqAVUBvxo6VLra221E9xylKAFRK0bQgghipzCCA4xMcS9kaVgSSdowqQqn07wFFIQjaV+YnpAkQTheENYkBZSME70+oUQQogiIv+Cg2M43Oy0JNxlJTxF3yJ71p5oH3/WzZNo+WwDFvrjG/tw+XT+OYXrFlc+vP7x1i9p/Ukk1W887IsAMVwvtgiExw9E7X7Kpv6TmfFuf773nxek3m/0+I0HLyjC9Q7WETr/crT+H7W0xLZyBGM3zjxTrRtCCCGKHg0an8zwjWmqfvf3TYG3/FN5+9jlJ1VL01Q4dvlmGu6/QGBwAPmWLRooLoQQYlKRf8FBIgPFt8SJDTLFBEcFpjfWVNkOZaV2T2+/PTU4ZMMjJisvKbF55WV2QFWFPYf0v/cNWBcCCc+M0lI7vK7atiDtjp4+2zDkS5rVlJbYAZUVtgvK/w3lHkf5IVe2DH7nIv1A+H0RZf6C9XaG/DbB76GoUyWi+Nvh96WQ32qU3Q/ldkX5++H3sYFBG3Q2NoXtjPSDqiuDutzb12/tw9v8NqJOi2qqrRZ+f9vTj3UPOYtZFfzug/ouqCiztf2D9vDAgA24ohQTO8LvIfC7Gf7+jPq2DW+rUwP8vqm6KvB/B2wvYFs93Ia9KivtNfD76MAQfA9YX2hbt8d+fwu2tRN+/4Sym0J+61CnQ2Brht8/wMZj4OFx2wP13bOy3J6A3wfhtzfkd1ZZmR1WW2U98PdHlN0Y2oe18PsGbAvXfXfvgK0b9HsQxxzT7vC7D/w+jfXdD7/doX3YjDKH11ZbP/z+HvtwY6i+tajngVWVOpfgd7qcS0IIIcRUoaypqenzbj5/3HWb9Ycnl/wK0tkmIQyo3o4AchgByQcbam09golnEIwwQFyIYOzUpjpjaLI/AsldEeg8CVsPghEGTRfObLRSxCUMCN9fX4MgaDAIQBk0faC+Fr6r4NfsvbAxqGIAy4BrP6xzKfwOYmkvBDkMdp5A0NsNv3Pg9zPNDVYHHyWow0dQp8cQBDHoY9B0HHwtQuA0BMH3LqyjD8HVOvhlCPRa+Pp0c2MQ3O2O+X3pF2UZgG6HYOxT8DsTwRNDqZMba+0RBIMvoV4MlN+JYPftmIZgPAp/S1E3Bszc9t2w3ctnNgT13bWi3F6P/fIPbCv9zoLfM2c02E74uwX1Ox3bRb/cjwxoj6itsXfRL/wwaKtBGv2yjnPh9wszmzC/xXbCdr+5ptIeR30Z2M6Ev9Oa6m0+1rcF6z0Ffml7AYFtJXwcCp/vw/bTL8tRCDyJOvHcZGD+pdlNgShg/bhd/0DZzVhmvo831tleOJ5DOBgnNdTguAzbP+GXgefBqCP3Of2+HsdpB+yvJ1GWge1O5aV20axGY9zdCD/vrq+2x7Ctm5DAwP5DKLc/9nmuz6X361ya0HPpEpxLA6Fz6XcQbswrhBBCTCUKIzimKXzDy7eWfEuLsMzOnlFn9yPImYnA6SwEKbd199oPO3vsJQQnR0KYMLDkm9lPN9fbOgQt17d32QPIz+DpaNj59vlQBEP7VFTY9zu7bQ38MvBqQZDzMPLXlJp9FsHlL7t6YO+xFxDIvA3lGBy+jHX8G/LxLfQN7d32l77+IHh6P4LiRxAAHYzgkG/mV6PsL7v7bADh06mo49PIz8DvYgRcv0YwdFNHtz2LerwJ+ecjWOTb59Ma64Mg9Guw/Rl+GYSdhMD7of4Bex0CYL4Fv7mr127F1IPtOwlBJAPIQThegYDrdqzvW6gTA9I3IPhlwP5PzH8UPkrg9+vwezf81mIfnub24V5V5fZuBGg/gc9bMPHN8wkIehlc9qHGl81qCoK3b8Av99sB2LbXYXoW9T0ewXA99vW3OrrsThyfKvg9B37/1jdoCyrL7Pi6GvjsCXy3wd97kJ9BILeRooAtDDeiThQEeyNY5tttBunHIN8c+P0O9j1bKCgGluFY/gX7gW/0T8H2/BzH/Eewv4z9+i6ICgalHfB7IQLlB/sG7AbUiW/u98AxfhuONYUDA+vdysvteygXPpfuQ75Z4z6XyoNzJe5cOn+SnUuX4Vz6zSQ6ly6OOZcewb7vwPqFEEKIqURhulRNU3ZEsPSCC7LYPeVIBEv/jiBjE9IYADJwYvcVdjFhsHH2jHp7Lf7+DAFKa1vn1sCDXWI+isCKwQ274VzT1hV0f+HbYvo93Pllt4zr27rtByjv/e6BgPLfmhtsX4if2xA4tqKs76pTj7IfQSDGt9MP0y/q9H8IgLzfRQiqLkDQWV5i8NtlN6H8IPzy7fer4Xcp6vuvyPMrBLtXw+67qPCN8YnweSp8Pz44GNT3TgRs3i+7vJzv3o4zAPw6Ajnvdx788u0z8/wOQfAq7AcGpdwTDOA/iH3A9a5DYHsd6vtb+GWgzG1li9Ky4O04gv6OnmAfe798m8z68O01RSDr9AR8eL/HIpj+NIL+5wK/3farHh6bEb8Hwu+nZzTYjuWl9n34XRXyuwP8noxtXYyAlV14rkVZ7kvv9x1Y33LsQwbnrO/PQ8ecgpRv8+dBTPyYx3xzZ9Ddhn75xvvjDXV2LEQJjzWPDbsm0a8/l/4Dx5xdcMZzLl2L8+WvCMB1LhXHucTDFO5CJoQQQkwFJDiEEEIIIYQQeYMv3YQQQgghhBAiL0hwCCGEEEIIIfKGBIcQQgghhBAib0hwCCGEEEIIIfJGcXz4L9MPAwohhBBCCCEmFfkXHJ+60uqv4NfDQwRfFHeiIskuhBBCCCGEmLSoS5UQQgghhBAib0y84Ii2bgghhBBCCCGmDGrhEEIIIYQQQuSN4hMcHNOh8RtCCCGEEEJMCSbkV6pI7C9RBYPF2cUq/1USQgghhBBC5J/CCI4ocb9CpV+mEkIIIYQQYspRHF2qJDaEEEIIIYSYkuRfcHBMhpuNRWM2hBBCCCGEmLLoV6qEEEIIIYQQeWNCBo2PGjD+qSutoaTELWwjdlC5EEIIIYQQYlIxMYPGhRBCCCGEENMCdakSQgghhBBC5A0JDiGEEEIIIUTekOAQQgghhBBC5A0JDiGEEEIIIUTekOAQmfG+2+yghW6+SPj7L5+2dSmm/Z39gFf+AFqQTnsSqcrHkeQz03XGwbJ+uzKtTyEI1ys6jXVbo/ztttz5Ggtc/3i2KV/1T3U+jXd9E72/s6cPx6bDzWdLnz11W6qy9Bs+p6P5kuxCCCHCSHCISc2xR821XY985fQ3Z5/sMAD8aGi7bry1eALC/UL12ozlY0LLU2H/M6j/+OJt2/R1LBeT4BP5gmKif+txH5kqA1Ex8gvuSXYhhBBRCiM4+B2O0PSKL48n2YuAEjxJMp1E8XBz5I0tA/gZbj6XMPjOdZDtA96w3/0hsBj4Tq630JMP7nsKvb+GfjScx7iYBN9PIgKIdW4uqtvPfFu58vNuPl9UIdgPf+VJCCFEMZJ/wfGpK63+8rOtIzR1hkVFkr1I+NKXvpTR9M53vtOVECI/5EPciMyg4NO+n+okiRiJHCGEyBZ1qcqC//mf/7EvfvGLKSfaY+H4h39308LQK8hgXASWk+xh3nfrtrEUo8qFlrMdaxH2k2151mdU2Zj6jsc+TtjlyrcI+BYDdv8Jw3TfFzvVmI90dsI8Y33zncq/f6PO9HS+w+Xj8qbyz3Qup7J7kuxJxJVnWtw2+TEEvgzf2PNNfiblmRaun1/2vsLlPVyft4X9cd/zvImmR0lVfrz19/ZU/gm7sPkWF+Zni8ymyGdc05Un47Wn50lbunQsLRxx4zJG0l7ZgJw6L/8+tbX+4Ty0M+1F+Nvk5kfyqIFaCCHyw8QLjivOsU43W+xs3LjRenp6Uk60vwIG1E8eZXd/0U3zfzE6oH9ngj2Jny925RCsez+cz9RHtH7ZlKdQefIdkbKh+o/XngHsMrUtYBiZsgmMGFClGyNB//kcQ5G0fr5RZ7oPfuMC5nB5n9f7GO/2JZVPIlV5H9CHt4dBs+9CRjvzM4AOjw0Jd3HKhOj2hcv79XlbtD6+DqmER7ryuag/hUq6+iWRtH1x9nCXrKTyxQ2FRL/N31r/8BgLtlAwbY5t2dLs5jk1YDkoDLwo8RPHbITtYZg3nV0IIYRaOPKJD6jvdcvkhxAI4YCegiFsLyRx9SM/ROCfSZ2CfFk+Ybn96Xwn2SPEDRqPdnnxwS0Dz7iAM90YCfpPZx8Pmazf4wPYcMAfV54wL9PGsn1hsqlfHEnlWU+/PcwbPT65INX2xa0vXJ8wft+z3j7gzqb8WKFQSfLv9yfrEt7OpPqlsvsWkkJsX36hkBiPAPCixE+pBoVvExtCCCFSUxyCIzRgPBg0znEczlRsvPrVr7YDDjjgFVNK2IIR7jLEaS9nmwqwhWTUtoWeyBQkbLFgelyrRZJ9GhDXQpNuUHs2AT/J1n+UfJdPFTAXgnBXJz+lG3QdDbizLT/ZmOrbN37YZUtiQwghMiH/goNdpiKC4hW350kwaNxz1llnBWM1olNKfJen6DRRrRq5JK5L1EORV4pssWA6W3UCYRGJWJLsU5y4FhpOuQq+x+t/osvnk3BXp7HUbbzli53xb18hfqVqohhp2Zi/WGJDCCEyoTAtHBFBMZk/kUTB8aY3vekVk0iArRmBsEgxRiPJPk74dnqyBYLs1jJ5+syPDT/GI5tWm0LAfT/R9WELQ9yYi+h5PBnP7eKGYiLdU0pjNoQQIls0hiOf+C5D0QCaLQPF0IUo3/UL/KSJmJPseSauT7oPgH0Axy5B6ezjIVWfeB/sJtVvLOVJpsF0vsvzrw+gmTc8RiLfpFof9y/rFmfPpL6+fC5gCwP3n+/OxOMeHlORjrHUn3bfZSo32zfWX6kSQggx1SiZO3duft/R8Dsb0V+iYpcpdp3ifJK9SLj00kvtC1/4gvX29rqUV1JdXW2HH3643XLLLS7FwcA6PG7j5wj02aWK6U9ykHToEAS/GhUaOM3l8LgIElc+mA+nu/lMSFW/MKl8RuvHLmTzuQ2+LjH26Pams6eBAVKq8QQM1hgwfeyoVwZpLBcWDWE/7ALk8zOd5b+GICvOHibqM0o6e3j9hHUP50tVP0825Ym3Mz26fxhQMi2T8mGYJ5vt47GJy5+0/ujxCfslcccv7nh5uL7wuITo/g3b47Y7qTwZS/1pG8v5FN1/2dSfdp7rqcqTuO3LD2xFeNHNe5pt3lHRVoW4Qdup0+LL+/WE/UfXPzIIfYSozRNXPyGEEESCI0MoODhWY9OmTS7llTQ3N9vrXve6VwoOIYTIgiTBIYQQQkwm8i84CARE+F3TlqiYSLIXARQcmXDnnXdKcAghpjUNpSX2mooK6x4eticGh6xPr/2FEGJaUxjBIYQQYlrAgYEXzGy02aWl1guh8fDAoP2kq8c2Dg2PZBBCCDHt0KDxMTJ//vyg1aPklV+CEkKIaUsV7olDEBqXbe6w1RAa+1SW27F1NbZDeZnLIYQQYrohwSGEECJnsMn82vYue3ZwyP7W12/f7+ixPSrK7d9nNppezwghxPREgkMIIUTOYDeqDa77VD/Ux58hOr64sd0+/3JbIEaEEEJMPyQ4hBBC5A2KjC6IkPUawyGEENMWCY4Cctlll9lvfvObYPrc5z7nUoUQQgghhJi6SHAUCIqNhQsX2u23326HHXaYXXTRRc4ihBBCCCHE1EWCQwghhBBCCJE3CiM4+GG/0FTvkmP51JXJeYQQQgghhBCTgvwLDgiI+svPto7Q1ClBIYQQQgghxLSguLpUUYhc8UnrcItCCCGEEEKIyY3GcOSZFStWBL9K5QeMa7C4EEIIIYSYThSP4GDrBrtbTbFPQy1btiz4Vap7773XDj30UP0crhBCCCGEmFaohUMIIYQQQgiRN/IvOK44JxgkHv6VqgZn2srW1g0hhBBCCCHEVKIwLRyhX6gKJpcshBBCCCGEmNpMfJcqfncDf0oiLSBcLgsyCCGEEEIIISYr+Rcc/A6Hm43linNGt364FpAt+Ds0kkMIIYQQQggxSdGg8QJx3nnnbf2lKv5Mrn6tSgghhBBCTAdK5s6dm//foXXdpDxsvUg7QBz5i30Q+fz5823JkiW2fPly27Jlav2UrxBCCCGEELmiMIJjCiLBIYQQQgghRDLqUiWEEEIIIYTIGxIcQgghhBBCiLwhwSGEEEIIIYTIGxIcQgghhBBCiLwhwVEAmpqabNGiRW5JCCGEEEKI6YMERwGoqKiw2bNnu6XCMecEs/9y82FSpQvxChZ82VbdvGJkusGspMSlCyGEEEJkiATHFKdR4kKMlQUrrHX5Z+2MY5eNTF9aYSuvl+IQQgghRHYURnDww3+hqd4lB3zqylG22DxCiMICsbFq+TJbekroGzOPL7OWL/1n0NIhhBBCCJEp+RccEBT8anhHaOqMCAp+eTxsD/I421Rgw4YNtnr1ardUWNpvMrtMrRxCCCGEEGKCUJcqEYzpuM5NYWHix3qksnuS7GIiuNRaW1tTTNu7PEIIIYQQ+UeCYxrwYqiVI9oDn2LhPNhPdVO0NYRjQNLZk8qLieJ8a2lpSTGtd3mEEEIIIfJPUQiOkik+fqO6utp23XVXt1Q8eLHwabdMwuKEsEtW2B4mk/JCCCGEEGJ6UxSCIzqGIzrGY7JTX19vBx54oFuaGLwQuMwt5wq2gPjuVH662NnERKIuVUIIIYQoDvIvOK44JxAQ4RaMBmcKoN3NiskHW0B8d6rwlKpVRBQKdakSQgghRHFQmBaOSAtGh0sWhcW3cqgFQgghhBBCFAoNGi8AbW1tdscdd7il4iFuvEXcuIxUpBqvQR8awzHJeTzmQ3/+Q4Anu2XPAa3WqiYtIYQQQqQg/4KD3+Fws7Ek2acAAwMDwbc4igGKhAvdPPGiwY+/yFRseKLlx+JDFCn+Q383rxiZoh8CFEIIIYTIgJK5c+fmN4KgoIiO0+CgcA4O53ySvUiZP3++LVmyxJYvX25bthRnEMZ30/WlJVZZUmKbhoZteCR5K9VIr4W9e3iL9Ua2AcnWVFpqQ0jvgD1sDfvdDBvzhKGKja5LTFEOWGmtb1tqLWrSEkIIIUQK8i84SGSgOH+VKiow0tqLkMkgOA6oqrBPzmgIxMH/dvfadzp6rH142MogFHarKLMTG2rtgMoKu69vwG7q6LbHBodsENtCEfKe+lr7QF2NbUD+1Z3ddntPXyBMKqE2Dqquso811tkM5FsDv9+C3zbko0jZtbw8yPfi0JCrhRBCCCGEmM4URnBMQbIRHLNnz7ZFixbZ6tWrXUphOGtGvT0IMfEkhMQXZjba3/oH7Gvt3dYMZXB8Q411Qhj8srvP3lFbZduVldnX27vsOQiFD0CIHFRVaf9vc6fNLitF3lr7ZVev3d7bFwiUY+prguVHBwbtgpkN9mj/oF3b1mWNyPtB+P0q5tcPqY1DCCGEEEKYlTU1NX3ezYssaG5utoULF9qaNWtcSmpqa2tt3rx5tnbtWpdSGNjGcA8ExwYE/w9AbLytttr2h2DYu6rC2iE2vtfRY+sGB+2JgaGgxeMQCI9/gX2PinL7SlunPQQh8SLKsrvVItj2Q7m9MP22p89+C/FBUXE//L+tDn6Rvk9VufXDL1tDJDeEEEIIIQRRC8cYmQwtHOw6FR5f0VBaEnR56kPas4ND1hOyVSHv3PIyq0GepwYGA0HiKYeNLR3blZbay0NDgdAYdDZSB/t8iJQBzD8NAdMTKiuEEEIIIaY3+lncAtDX12fr1q1zS4UjOpibg7/Z0vEYBEVYbBCKEKZzPEdYbBCO63gBAuV+lH0+IjZIF+z0+wgmiQ0hhBBCCBFGgqMAdHR02D333OOWhBBCCCGEmD5IcEwD+CE+/42MYvz10lzUz39skD/ZK3LMghW26gY3X2xc/OVt3wk5WsdfCCGEKEYkOKY4/svhp7op7svgE0mx129awy+L/xiB/OVuudi4BPW7+7N2xrHLRqY3rrCVR0tyCCGEEMVGYQQHv7MRml7xZfEk+ySnoaHBDjzwQLdUOHwwH/7qt/8yeDEE9cVev2kPvzR+HAL5c93yeDm01Va2tlrr6W45SpI9DMTGqruW2dJbQmOGLkB9D/rPoKVDCCGEEMVD/gUHvyR++dnWEZo6w6IiyT4FqKqqsl133dUtTTwM6sNBvhB5BUKilUJijxY7s6XFWq526Z4kuxBCCCEmNepSNYXxrQVJYyPY0uDHUMTlDdvDNqZzOZXdk2SPEhVE2ZaPkq58ptsw+bh0JIiPnbZ3efKMb7GAkGhxQmLUb5gl2YUQQggxJShOwcFWDjcrxgeDdz82IlXAHR5DER1HEbVHuzs1JtiTyidRiPJNkTxTo/Xn/JEgPnZa7/LkEbZapGuxSLILIYQQYsqgFo4CsGHDhoJ/9C9KWHj4gNsH49EA27cwxNl9q4n30R5T3pNJ+XQUqnxbJI/IAbdDSDzSalexBSNuTEaSXQghhBBThqIQHCWhAeNTcdB4MZFNwE7YguG7GvnpYmfLhPGWF2OlCLpUQVQsZQsGhEWwXgiLUb8hlWQXQgghxJQg/4LjinOCQeBhQdHgTJ4tU3zQ+GSGLRi+q1F4yrRFYCzl2TKRqSASqZjgLlVh2JrB9aZq0UiyCyGEEGJSU5gWjoig6HDJ04Xq6uoJ+ZUqBe6iqPAtGqnGbCTZhRBCCDEp0RiOAlBfXz8h3+GI6z4VHteQqnuVFypJ9iTG4j+pfmF7EuMtL4qYC2I+9Oc/BHiLW/Ysb7XWPd28EEIIIQpO/gUHv7PhZkXh8UG3Hz+RahB1eIxFOE+SPYls/SfVL5t1k/GWF0WM/9DfzStGpuiHAIUQQghRFJTMnTs3v09oCg6O43CLARyjwbEanE+yFynz58+3JUuW2PLly23LlvS7cPbs2bZo0aIJ/6UqIaYd56+01puXWstatyyEEEKIgpN/wUEiA8U5SDwqMNLai5BsBAfHcMyZM8fWrVvnUgpDbWmJLaquskb8vaO3314YHHIWs8oSs70qK+01FWX26MCQre0fsL7QdmxfVmpvqamyzuEt9ieU3TQ87CxmdSUldghszfD7B9ieC/mtwLRHZYXtWVluT8Dvg/DbG/I7q6zMDqutsh74+yPKbhza5rcWft9QXRms++7eAVs3OOgsZuWYdofffeD3aazvfvjtRt08zShzeG219cPv73vgN1Rf7ocDqyptB+S5B+t8CuW9tRzrnFdeZgdUVQTb8fe+AetKOJ5CCCGEECJzypqamj7v5vPHXbdZf3hyyVtJshchzc3NtnDhQluzZo1LSc0gAue2tja3VDg+WF8bBP5bEFSf3lRnj/QP2noE+NVYPqK2xt5VV22UChQANUhjID6AWHsuRMgXZjZhfovthGD8zTWV9jjEQzsC/JkI2k9rqrf5FfBrJXYK/NL2wtAQREyJHQqf78N66ZflKASeHBgMjuku8HXJbPiFGJiF9Lcj7z9QdjOWme/jjXW2F4TBEMTQSQ01EBbD9k/4pYg5GHX8SMOI39dDlOwA4fIkylIk7VReahfNajTqj0b4eXd9tT2Gbd2EhKbSUvsQyu0PsTKM+n0Q89wHz2BbKTYWQmicim2g3/2x7h1Rx79BdAghhBBCiNxQGMExBclGcEwU+1WV20+6eu3uvn6rhTg4bUad3Y9AfC+kvxvBPm23YGIrxgkIxDsRvPdBRlw2q8l+19Nn32jvtscRmB+AAP91mJ5F8H98fY3VI4j/VkeX3dnbb1Xwew78/q1v0BZUltnxdTXw2RP4boO/9yA/g/luzF8MUcAWhhs7ugNBsDdEAFtK2GJxDPLNgd/vdPYELRQUA8ua6+2v/QOB6DkFYuTn3b32I9hfhmB4F0QFBU4H/F44s8EehEi4AXVaC797VFTY2yBQnoTfo7Cdu5WX2/dQ7rfwW4J/Z6O+9yHfrNISOwvi6Tb4/SHsL2H73or6/ArbLoQQQgghcoMExxiZDILjBQTmnNhqcf/AoJUh2L54dpMtqCi3b3d22x29fdYHGwN+tlCcNaM+aA34WVeffRWigF2h2oeH7R8ou7Cq0j4JO1sNboQQYesC/T4IWw/Svrxdk+0DvxQMv3Z+n4Xf57H+JY319tHGWvtVd59dg7L0S3HzGOx7o8ynmxusFz6+1tFjj0Bg9MO2Fn7Z3WrF7Bn2+uoquwl+b0V5tmiw1YO+PwoRwlYRduu6pq0rEDU9mB5G2QUQHZ+BX/6G0dewLQ84v484v1dsN8PeDHHxXfj9qfP7ItIpql7CXyGEEEIIkRsKM4ZjCqJB40IIIYQQQiSj73AIIYQQQggh8oYEhxBCCCGEECJvSHAUgIGBAduwYYNbKjz8urb/8F30q98TCet1bahu+aof1xPnN1W6iLBgha26wc0XI5egfke7eSGEEEIUHRIcBYA/iXvHHXe4pcLCoJpf1z7VTfzqdjEF2e2huhVj/aY1EBqtP0Ywf7lbLjYgNFr5hfG93bIQQgghipLCCA5+2C801bvkgE9dOcoWm0eMCS82Pu2WyYsK6kWmPL7MWo5bZmec65bHy6GttrK11VpPd8tRkuxRLkD9jkX9HnTLQgghhChK8i84ICjqLz/bOkJTZ1hQXHHOKFswOZPIDxQdYRFSTEgQTUEgJFopJPZosTNbWqzlapfuSbILIYQQYlJTfF2qnEDpdItTgYaGBjvwwAPdUuHwwXvS2Ai2hKQbRxG2h21+DEQquyfJnsRY1890jhG5GPNNKfKQ8davOLl0JIiPnbZ3efKMb7GAkGhxQmLUD0gn2YUQQggxJcj/dzgoIK44Z7SAYAtHKlERl78ImWzf4WBQzcC7LdK6wfRot6twWtQetV2EvxyHEWdPWo7aPOnyRG1J6ydxaSTT8tMeDhpfvszOONktZwJbLSAklqYSEUn2bOCg8btQv1vcshBCCCGKiuJq4aAQueKTU6p1o1hga0d0UHaq4Np3uYqzR7s8hYP1KJmUT8dY1p+Nf5Ku/mIc3N5iLY+02lVswYgbk5FkF0IIIcSUQb9SNc3INiBvRF7f3chPbCnJlIkuP30pgi5VEBVL2VUKwiJYL4RFiTMFJNmFEEIIMSXIv+Bg9yj3y1NbJ2eaLvAbHBPZnWo8sAUg/LO1fsq0VWCiy09fzh8ZFxE7rXd5CgRbM7jeVC0aSXYhhBBCTGoK08IR/gUqTi55FOxOFYzr0LDRXMEuSZm2ZBQLqbp5pYItIOFtzLa8KCC+RSPVr1Al2YUQQggxKVGXqilMXPepcECeqnuVFypJ9iQKUZ4tIMzju1tJbIhXsLzVWvd080IIIYQoOPkXHPzVKTc7XamoqAh+qWoi8EF7qoA8ao/mSbInkVQ+OkYj2/oR5knX1SrqIxOxI4QQQgghckPx/CxuXFoRM9l+FncqEm6tESKW81da681LrWWtWxZCCCFEwZmQQeNT7cN+xcou5WX2s51m21/nzrGjaqtd6gizysrs/JmNgW15c4NtVzb6VHhLbVVg+9EOs2z/ygqXOsKCinL7wY6zAvsxdaP9zigttXPgj7Yvwv+OqEOY11dXBrafo17/WlXpUkeYD7/f2GFmYP9Afc2oXyxqKC2x05vqA9uXZzXZq+CXLRdebBxQVRHYfr3zbDso4nduRZldt31zYD+podbCW1MHvx9rrAtsV86eYbuWlzuLmBJcKrEhhBBCTDRlTU1Nn3fz+eOu26w/PLnkUaRKL1Kam5tt4cKFtmbNGpeSmtraWps3b56tXVvYyOcMBOi/7e6zGzq67cuzG6192OzxgUGbCXHxIQTesyAOLtvcYQshAvZCkP4P2PqGt9hbaqrssxANy19ut8cHBxGQ19oLQ8O2fmjIdq8st0/NqLdfd/fbtR1dduHMBhvcYvYYyjbB7/HwOx9B+5c3ddoeyPs6+OU6e+D3EPi9aFajnQ+/f+sfsNPg9yWk/xN+FyDvWTPq7P96B2xVW6d9CuunBHoEZSkK3ldfa/tDVHxpY4ftBLFxcE2lPTU4ZJ3Dw/YG1P+S2U12Afz+oac/KLse9X0efneF2DijsT7wcxX8noJ9UldSYg9huRp/j4Gw4fZetLHdGrGeQ+Dr9p6+kR0ohBBCCCHGTWEExxQkG8ExjKC4vb3d2traXEphqEEAfXtvnz2DwPyB/kE7GQF+JYLs/RC4M2i/vq0rSH98YMgWIYB/VUW5zUH6yU119p+bOuzO3n57FrYqlDmirjpoZTiqrsb+DrFwc1ePrYPtIZQ/ranWymHbB353h49r4Pc+5HkCQf1B1VW2G8TE9vB7EtZ/OQTO7yEKKAbYEW1x4LfU3oagn/VYDb9POr+nw29FSam9FuUPqKywVe3dgVB5Avb9IWT2xPpmQ+ScCJGzcnOX/RZC4Z8QGhQ3bHmpg1+KCQql73X2BOUeht+PYftqYHs1/NL+P6jTX/oGAgGzoKLC7sZ2CyGEEEKI3JD/MRxTlGzGcEwEb/+3lTZYWm8Dpdu6CM3pfMn2Wf+odVXW2COzXm2bahqdxayxrxO2R6x2oNfWzl5gzzXu4CxmlYP9ttvmZ23n9n/aC/Xb2eMzd7Xe8ipnNduu62XbF2V7y6ps7XYLbGPNDGcxa+jvsr3WPxb8fXTWbvZ0047OYlYxNGDzNj9nc9ues/V1s+3xWbtad/m2LlqzujfZ/i+utf7SCntou1fby7XNzmJW19dle254wmb0tdtjM+cFfrdAnJCK4UH4/KfN2/S0baidaf+Andvsmdmz2Q544SEbLCmD393tpbqZzgK//T2j8sZRPtxvD37/c7b+n8+6FCGEEEIIkQoJjjFS7ILj8E/daGvu2+CWRC7ZfacGG/rzSnv84ftdihBCCCGESEX+B40LIYQQQgghpi0SHAVg5syZtnjxYrdUeOZsd55d66b/ysOX3Ok/H9+2oN9rQnUvdP1H0tUAaAtW2Kob3HwxcckKa70ZdfPT0Tbql82EEEIIURxIcBSA0tLS4JeqJoI52y2z8166zJa46bLtPpMXcZAvOl5asbXuk7H+kxoIjdYfI5C/3C0XExAbq+5aZkuPXWZn+OmNK2zl0ZIcQgghRLFRGMER/Q6HS95Kkl2MCb6hP++lL4/+KjcC+MtSvNEXYhSPL7OW4xDIn+uWx8uhrbaytdVaT3fLUZLsQgghhJiU5F9w8Evjl59tHaGJHwLcKiqS7FOAgYEB27BBA7hzgQTTJARCopVCYo8WO7OlxVqudumeJHscF0AI3WLq8CaEEEJMAtSlqgDw+xt33HGHW5p4XnzpsqDVI26MArtghYN5LqcaQ+HHWFyE+cZReUbDfOnK+zJ+OVsxkc4/l5PWP9b6FzeXjgTxsdP2Lk+e8S0WEBItTkiM2ntJdiGEEEJMCSQ4REoYaLNLVqoxFBQup2H6HObbQ3nCXbiSxpD4MRpstWC+0918pqIjyX9DGnsm9Y8r3+Jsxc35I0F87LTe5ckjbLVI12KRZM8WP6bjFkkWIYQQotiQ4BBZwS5N4YA8HV6w5GsMSSb+KWjGs/5oeZEht0NIPNJqV7EFI25MRpI9G5zYUBcrIYQQojiZeMFxxTnBmI1Rg8Y5jsOZpwINDQ124IEHuqXJA1sA+EY/rptRscAWCN/dyU/sIiWKoEsVRMVStmBAWATrhbAY9RtSSfZMuPjLW8WGEEIIIYqT/AuOGEHR4EwB02DQeFVVle26665uaeJhy0CmAoItAiNdiYpzDEP0Z3P9pFaJCe5SFYatGVxvqhaNJHsq+B2Ouz8rsSGEEEIUOYVp4YgIig6XLCYPbO1gIB8dI1Fo/JiNTAUFW0DC9c22vMghvkUj1ZiNJHsYjdkQQgghJg0awzGF8V2ixhpwj7SEjD2gG+/6k4jzT8ItOGwB8a0znKJjPsQ0YHmrte7p5oUQQghRcPIvONhlys1OVzZt2mS33nqrWyosfpB0XMAdHqPhp4tCAiPOHhewj+TblicsANKtPxOiYzRSDRIfnWe0oGH9tnW1euUogXT1F0XMKSus9eYVtio86UvjQgghRNFRMnfu3Pz2SaDg4DgOtxjAMRocq8H5JHuRMn/+fFuyZIktX77ctmwpvm4dh3/qRltz3/T+2ODIr1jxV6ZyG4TuvlODDf15pT3+8P0uRRQt56+EKFlqLWvdshBCCCEKTv4FB4kMFN8SFRNJ9iJEgmP6MhkEByXWDuVltjOm9YND9vzQsA0W4XkqhBBCiKlPYQTHFCQbwVFRUWFNTU22YUPhBIAER/6YDIJjRmmpfbq53urwt394i/26p89+j6lXokMIIYQQBUaDxgsAxcaiRYvckhD5Z6fyUnu0f9Au29hu9/QN2Lvrqu2g6kprggARQgghhCgkauEYI9m0cMyePTsQHKtXr3Yp+Wfxsm/aH9Zucksil8ybU2fdf7iyqFs4XlVeZm3Dw9Y+vMXqSkrsiNpqO6quyh6A+LiqrcvlEkIIIYTIPxIcY6TYBcebPvw566uc5ZZELikd7rfHbvkv27ihwB/QywKO4QiflWzXaCwttVIYNg4NjyQKIYQQQhQACY4xko3gqK2ttXnz5tlDDz3kUoQQQgghhJgeqEN3Aeju7pbYEEIIIYQQ0xK1cIyRYv9Z3DBzTjC72M233WRbP4rH9IvwN/yVirA9G1Ktw5NkHy/0fx78nod5ndA5ZsEKW7V8mZ1xslsuFi5ZYa17h87f65dZyy06/kIIIUSxIcExRiaL4PCBeFhk+OWojcSlJZFUZiw+s8WvQ4Ijh0BotP4XbhKM6F8uMsEBsbHqrojAoAC56zNI0xkghBBCFBOF6VLFD/uFpnqXvJUk+yRn5syZtnjxYrdUOOIC/RexfBnSEUfGkmQX04jHEdAfB6FxrlseL4e22srWVms93S1HSbILIYQQYlKSf8HxqSut/vKzrSM0dYZFRZJ9ClBaWhoMHC8WKCry2dpQaLywolC6zKWJIgJCopVCYo8WO7OlxVqudumeJHscF0AIqfuUEEIIMSnQoHExinCrCOejLR3hNM5fi4ljM5rw9zo3ZWr3MF86G9PS5RFxXDoSxMdO27s8eca3WEBItDghMUogJNmFEEIIMSXI/xgOtmBccY51usUAtmCwJYPzSfYiJZsxHPzS+P7772933HGHSykMDNLTjZ2gPd2g8bjymaaFSWeP2uKWKVjSDTT3ZdjCka4eYoyMZdA4Wy0gJJamEhFJ9kzQoHEhhBBiUqAWjgLQ1tZWcLERBwNztjiEWwnaEaCfGpoKOX4jKi5I3BiSTMQG7Rp/UkTc3mItj7TaVWzBiBuTkWTPhAsgMI6FEPLTG1fYyqPD8lkIIYQQxYAExzSCAfkSTBe65TgKHbQ3Yl2+q5Sf/M/nivFQBF2qICqWsqsUhEWwXgiLUXIgyS6EEEKIKUH+BQe7S507+leoGpwpIMkupjTRFhY/ZdMtKjw+RGLFc/7IuIjYab3LUyDYmsH1pmrRSLILIYQQYlJTmBaO0C9QBZNL3kqSfZLDX6jaa6+93JLIFb47VVSsqFtVkeJbNFL9ClWSPQy/w3G0WkSEEEKIyYC6VBUACo4999zTLRWOuO5RDNLTtQLEjavIF6m6b7EOEgwiZyxvtdbCX35CCCGEcORfcPBXqNxsLEl2MS58UO+7HFFMhMdwRMdQhMVGtCynXHdZiltHoQSPmMTwOxwcJH7zClvlp7uW2VJ9ZVwIIYQoOvSzuGMkm5/FnT17ti1atMhWr17tUoQQBeH8ldZ681JrWeuWhRBCCFFw8i84SGQg+JaomEiyFyHZCI6ysjKrqqqy7u5ul1IYZpWV2llN9bY9/l7T1mV/6x9wFrP60hJbXFtth2H6bXev3YqpfXjbduxVWWFnzqi3FweH7Bsd3fbkwKCzmO1QXmanNNbaLuXldmN7l/2pt99ZzOpKS+2Imio7sq7a/tjTZ7fA76ahYWc1e3VFuX2quQFpQ/bV9m57POSX9fxoY50tQJ5vwXZnb9/WbyrUlJTYobVV9q66GrsH67u5s8deHt7md7fKcvv0jAbrxLqWvdzmUoUQQgghxERT1tTU9Hk3nz/uus36w5NL3kqSvQhpbm62hQsX2po1a1xKaihIBga2BfuF4oymOtsMEXFnX7/993ZN9nD/kD0NAVGL4P19DTX2Boig27r77O0QB3Mgih5BHfsR4b8WYuMr282wH3Z2Y3mLndhQi7KDQYBPsfFZCJEXBoft9/B70axGexJ+18EvRcHR8HUEJgqYQyA85iH/IxAVvfCzO0TBtds32w8gFjZh+VTU7+G+AXsJfik2KES6Ud/fQqhcMLPBnod4eAJlK+H3SIiN4+pr7JauHtu/utL2Rh0fhq0bfihQrobf1RBGz0PIPIS6CiGEEEKI4qAwgmMKko3gmCh2QrB/MwL0tQjAnx4Ysi/ObrRH8feAqgo7tKbaVrV12R96+2wd0k5qrLXSklIbti3WiuD9is0d9pOuXnsKQmIu/LDFYj2EwccgPtZDCHwDYuQBiIVnUHbF9k1BkL8nBAVFwVWbO+0OiAaWfT+Wa0tLjRLgv2fPsKvaOu1HqBNbTGYj/Vj4ewH+ToAA6oXY+FpHl93XPxAImCsgklj3eRVlQcvH/6C+t9Mv1vlO1Gc7iJQ++L10VpN9HX5/4Oo7kP82OyGEEEIIkSESHGMkG8HBLlU1NTUFb+V4FsF3h+sm9Tjmn0Cg/gkE7uxOxe5MD7guVhQQf4d4YBert2Fi9yu2UBC2TLAloRHi4H0QDw/1D9l3ITY2oAx5En7vR9klTfWBgLgu1HWLee6D7bDaKjsCfr/Z0WM/hSggbEl5GPWpLimxD0B0PIn5b3d0B+KDUHDc2zvid25FuV3b3hV0pSIbIXwegBB5Y/VI1y22mNzcPdL9SmJDCCGEEKK4KMwYjimIBo0LIYQQQgiRjL7DIYQQQgghhMgbEhxCCCGEEEKIvKEuVWMkmy5V/NL4vHnz7KGHHnIphSX8dfG20Ef1mH4R/paMLAaE7dmQah2eJPtYyGX9RRoWrLBVy5fZGSe75WLkEtRxb/y9/jN2hj7+J4QQQhQVauEoAPz+xkSKDX65+1Q38ave/+VspD1ki7NnQnQdcWIjnX085KL+IgUQGq0/RiB/uVsWQgghhBgDuRUcp33FGhrD75tD0MYP/HFqdGlhkuwia3ygHw7wX0wIypPsxc5kr39R8fgyazlumZ1xrlseL4e22srWVms93S1HSbKngq0bd6GeD9rWD0UKIYQQonjIjeDwYqHeLUeh/aazreNyN50QERVJdpFTGJSr25EoGBASrRQSe7TYmS0t1nK1S/ck2YUQQggxqcmN4LjGCYVOtxzmtCtHxES7WybM70VFGntZuVue5MycOdMWL17sloqbcKsI56MtBeE0zl+LiWMzmvD3OjdlavcwXzob09LlCcN80Vad6cmlI0F87LS9y5NnfIsFhESLExKjWiCS7Jlw8ZdHWjducctCCCGEKDo0hqMAlJaWBgPHi5HGUCDPKZtgnS0lSzBdiHkO1o6O0UiyEy8QvC2uOxTFSjhPuPx46j+1OX8kiI+d1rs8eYStFulaLJLsQgghhJgySHBMIxjcs8WBgbkP6idy0HVca0TcGIx0vzylQeNFyu0QEo+02lVswYgbk5Fkz4RLVljr3Z9V64YQQghR5EhwFIDh4eHgl6ommnCLQyriAv58Em2h4OR/PncsFLr+xUsRdKmCqFjKFgwIi2C9EBajflIiyS6EEEKIKYEERwHYuHGj3XrrrW5JhIm2UPhJ3aLGywR3qQrD1gyuN1WLRpI9DvfdjZJTvmyrbsY8J798tMsjhBBCiKJAgkMIURh8i0aqMRtJ9jAXLLMzjo1M/Fnc4MN/Lo8QQgghigIJjilMXPcijptI12WpkL/ylKr7E+sw1i5Rhay/mCQsb7XWPd28EEIIIQqOBEcB4C9U7bXXXm6psPig3o+PYDAeHsOR7leeomU5jWd8RRxx68hGMOhXqoQQQgghipuSuXPn5u7jvMEH/M6xjvaIS/9hP/+tjWyXi5D58+fbkiVLbPny5bZlS/pdOHv2bFu0aJGtXr3apRQGDsCtLy2xypIS2zQ0bMMjyVupRnot7N3DW6w3sg1ItqbSUhtCegfsYWvY72bYmCdMFdLrYO9xfqNlZ5SVGkzWPjz8ClsdylahbBsyDEb8ViJDPepEn/Qd55eJm+BXiIDzV1rrzUutZa1bFkIIIUTBKYzgILT5L5FfFyMmkuxFxmQQHAdUVdgnZzQE4uB/u3vtOx09QZBfhqB+t4oyO7Gh1g6orLD7+gbspo5ue2xwKAjyKULeU19rH6irsQ3Iv7qz227v6QuECYP+g6qr7GONdTYD+dbA77fgtw35sGi7lpfbCfD7eqz7of5B+y7KPgj/Q6hPDTK8q67aPtxQFwigH8H2a/jtgt8K2A+srrSPNtba9mVldgfSv4k6bUQ+NsPtXF5mH4TfQ5DnUfj9Hsr+HX4H6Rfb8w7UlWW5fR9+YSNShRBCCCFEMVDW1NT0eTc/fu69zfr73HwU2u5yU1yeJHuR0dzcbAsXLrQ1a9a4lNSwS9W8efNs7drCvmb9AAL0X0EQfL+zx05CkL8zRMajA0O2Y1mpHd9Qg+B8i13T3m2vQjB/cE2VPTMwaH22JQjs34TA/tJNHfYPpFF8sOXgBQTzr6+qtOPqa+yn8PldTMcj724V5YG42D4QBTU2hLytbV22XVlJ4IfluiFk3otyR9VW28UbO+z+/gF7P/KWW4k9D1HxOuSj3zXdfYEwend9te1ZWW4Pwu8M+KGIqUbe/9ncaXWlpfbW2ip7GfXvhO93o9w76qrsEtT3z70D9s8hyhshhBBCCFEM5LaFYxqRTQtHRUWFQdjZhg0bXEphYIvB/X0D1of67Q5R0DKj3toR3LNVgC0S30Ng/yKC8zllbO2oCQTDZtgpQK5q67SHEeyz9WARxMjbEOCzDLs0/aGnz37jWjx2Q96zmhusDeUGoEp6kfYdCJHnB4cgOChsam0X+kXZnbCeVRAMayFi2O2KrRXvqKsOuk9xPff09dsvu3qtC/Wdj/qehfp2oBx9km90dNuz8DsTdaB4WQBBwjrNwfKNsLHFoxz5uH1CCCGEEKI4kOAYI9kIjomCXafC4ysaSkuCLk8UIAzce0I2CoC5EAbs9vQUBAFbPzzlsM2GeNgOgf3LECjrnWjxcNwFBcIA5p8eHAzGV3g4zuNV5aVBq8TTA0OB8PCwfrOwPnahYvqLqBN9eNi1az7qy214GuulwPGwa9cusHGsyHMoxy5a26xCCCGEEKJYkOAYI5NBcAghhBBCCDHR6GdxC0BZWVkwjkMIIYQQQojphlo4xshk+JUqT/hjf22h71Qw/SL85U/KesL2bEi1Dk+SfTzk07cAC1bYquXL7IyT3XIxcAnqtLebDxN8aVy3NCGEEKKYkOAYI5NFcDAYD38ML7wctZG4tCSSyozFZ6ZEfedzXdMOCI3W/8JNgor05SIUHHcts5Zbgh9QE0IIIUQRk9suVfyWRmP4fXkI2s51U6NLi5KuvMiauODbf9kbcWQsSfZiYizbJ7LgcQT0x0FonOuWx8uhrbaytdVaT3fLUZLsQgghhJiU5EZweDHhP9wXhXZ+OfxyN50QER1J5Sc53d3dBf8GRzoYlKsFQBQMCIlWCok9WuzMlhZrudqle5LsQgghhJjU5LZLVSAsIl8aP+1Kl+aWPV6EhNPjyhcpk+FXqpK6F8XZw2mZ2KNjQIgfR5Fk9zBfqjEYfn1stYjmCddFRLkUQXyTm4/yeWtpWe/mM2CsYzjYYvF+HP/7UoiIJHs64sZwXK8uVkIIIUQxIsExRqaK4Eg3aDyufKZpYdLZo7a4ZQqNqBAhSesVOWIsgoOtFnu02FIIidirI8meRNwYDqS13vUZpBX//UMIIYSYTuhncacRDNCvxXQdJj/GoR0B+6mhqZDjH+IEQ9wYjDixIYqc21us5ZFWuyrVmIwkexIXQACpNUMIIYSYFEhwFICmpqbgV6omGgbzSzBd6JbjKPSg60asiwIoPPmuU2I8sEsVgvnYaXuXJ89AVCzlmAwIi2C9EBajutcl2YUQQggxJZDgKAAVFRXBT+OKVxJtYfHTeFo02HKiX6k631oYzMdOWYzfyAVszeB6U7VoJNmFEEIIMamR4BBCFAbfopFqgHiSPQzHcBytFhEhhBBiMiDBUQCGh4eDn8YtNHHdo/wg7FQUciB2qu5bmbZQpNo+DSQXo1jeaq17unkhhBBCFBwJjgKwceNGu/XWW91SYfFBuR8fwWA8PIYjOoYiHKxHy3LK9fiKuHVkIxjitk9iYxrAQeNvXGErb15hq/x01zJbql+oEkIIIYqO/P8sLon+BG7cT+IS/SyuECKXnL8SouRMW7pW16gQQggxURSmheMa93Vxfk2cU5zYEDmntrTEFtdW2/H1NbZDeZlLHaGyxGz/qkr7AGz8W1Uyujf89mWl9j7YjkL55tLRp0kd8r7d+d054rcC0z6VFfZ+2BbCb3XE76yyMnt/Q60dXVdtM7GOMLXIe2hNVeB31/JylzoCl/Z0ft9QXRlsW5hm+KLfY+BXiK1culRiQwghhJhgypqamj7v5sfPvbdZf5+bj0LbXW5KlyeVrchobm62hQsX2po1a1xKaqqrq23nnXe2trY2l1IYPlhfiyC93LYgkD+9qc4e6R+09UPDgQg4orbG3oXgfAj5DqutshqkPTU4ZAOIzeZWlNkXZjZhfovtBEHx5ppKe3xgyNqHtwQi4bSmeptfAb9WYqfAL20vDA1BxEAwwOf7sF76ZTkKgScHBq0fy7vA1yWz4Xd4GMKj1N6OvP9A2c1YZr6PN9bZXhApQ9ASJzXU2NODw/ZP+KWIORh1/AgEBf2+HoJjBwiXJ1G2L6hjqV00q9FQPWuEnz/1cm1CCCGEEKIYyK3gmEZkIzhmzJhhBx98sK1du9alFIb9qsrtJ129dndfv9VCHJw2o87uh+jYC+nvRrBP2y2YOhGpn4BgvhPBex9kxGWzmux3PX32jfZuexwi5AAE+K/D9CyCf7Y+1JeW2rc6uuxOBPZV8HsO/P6tb9AWVJbZ8XU18NkT+G6Dv/cgP0VCN+Yvhii4B2Vu7Oi2x1CPvSsr7JCaKgiLITsG+ebA73c6e+z3Pf1WDvGyrLne/to/EIieUyBGft7daz+C/WWIpnfVVwcCpwN+L5zZYA/2DdgNqNNa+OW6hBBCCCFEcSDBMUayERy1tbU2b968gguOFxCYc2Krxf0Dg1YGcXDx7CZbUFFu3+7stjt6+6wPNgb8bKE4a0a9fQjC42ddffZViIJeBO7tw8P2D5Rl96hPwr4J4uRGCBG2LtDvg7D1IO3L2zXZPvBLwfBr5/dZ+H0e61/SWG8fbay1X3X32TUoS78UN4/BvjfKfLq5wXrh42sdPfYIBEY/bGvhdyPKrpg9w15fXWU3we+tKM8WDbZ60PdHIULYKvIHiJhr2roCodGDSQghhBBCFA+5HTQ+jchm0Dg/+scvja9evdqlCCGEEEIIMT3Qz+IWAI7duOOOO9ySEEIIIYQQ0wcJjgIwMDBgGzZscEtCCCGEEEJMH9SlaoxMpu9whL8u3hb6MB7TL8Lf8A/Mhu3ZkGodniT7WMhl/UUaFqywVcuX2Rknu+Vi4ZIV1rp36Phfv8xabjHTDU0IIYQoLiQ4xkg2gqOsrMyqqqqsu7vbpRQOBuXhr2+Hl6M2EpeWRFKZsfjMhFzVX6QAQqP1v3CTYET/cpEJDogNfll8lMCgALnrM8HXxnVTE0IIIYqH3Hap4pfCG8Pvm0PQ5j/81+jSPGFbnH2Sw1+0Wrx4sVsqHHHB94tYvgzpiCNjSbKLacTjCOiPg9A41y2Pl0NbbWVrq7We7pajbLWnuIcIIYQQYlKSG8HhBUO9W45CO78ufrmb+NVxLypOu3K0LWoXOYeiYqq2AEgwFSEQEq0UEnu02JktLdZytUv3HLoyYh9j+8QFbPFQ64YQQghRbORGcFzjhEKnWw7jBUW7WybML1FRlIRbRTgfDdzDaZy/FhPHZjTh73VuytTuYb50NqalyyPiuHQkiI+dtnd58oxvsYCQaHFCY5QY2Go/M94uhBBCiClBbsdwBC0Z50BchFwGgoNpbtnjWz2i6SSdrUjIZgxHQ0OD7bHHHnbPPfe4lMLAID3deAba0w26jiufaVqYdPaoLW6ZgiXVQPQ4v+nWJ8bAWAaNs1UDQmNpKhGRZE+CYzj2dvMeDRoXQgghihL9LG4B6OjoKLjYiIOBOFscwq0E7QjMTw1NheyOFCcM4rpE6ZenJiG3t1jLI612FVsw4sZkJNkzgQLjWAghP71xha08umSUgBZCCCHExFN8giOuC5bICQzml2C60C3HUegxEI1Yl+8q5Sf/87liPBRBlyqIiqXsKvXIVSPrPX10a1qiXQghhBBTguISHEFXqk9KbEwjoi0sflKLxng5f2RcROy03uUpELcvHVlvqhaNJLsQQgghJjXFIzi2jtuYej2wm5qabNGiRW5J5BON3yhifItGql+hSrILIYQQYlJSHIJjEgwSHw8VFRU2e/Zst1Q44rpHMSBP12WpkAF7qu5brEOhunSJacD5K611TzcvhBBCiIIz8YJDYzbyig/q/fgIionwGI7oGIqw2IiW5ZTr8RVx68hG8KSrv5jCXOAGid+8wlb56a5l+sq4EEIIUYTk/2dxSbQFI7yc6mdzi5xsfhaXrRvsUrV69WqXIoQoCOevhCg505aulQwRQgghJorCtHD4D/3xa+Scoi0ap4ZsfppCHwXcsGHDhIiNXcrL7Gc7zba/zp1jR9VWu9QRZpWV2fkzGwPb8uYG265s9KnwltqqwPajHWbZ/pUVLnWEBRXl9oMdZwX2Y+pG+51RWmrnwB9tX4T/HVGHMK+vrgxsP0e9/rWq0qWOMB9+v7HDzMD+gfqaUb9Y1FBaYqc31Qe2L89qsldF/B5QVRHYfr1z4buuiSLm0qUSG0IIIcQEk9sWjmlENi0cE8VnEPg/0T9ojw4O2crtmuzKzV32s64ea0TwfmJDre0A0fFjLL8fwf2m4S12Y3uXbUDeQ2qqgrJf2tQRCBGKilVtXfaXvn7bDaLgbAT+f+wdsPsHBuyyWY321bZu+xH81MHvB+prbXfk+X5njx1dV2VD2DU3wO8L8HsQ/P7HzAb74saOIO9HsN6r27vt7t4+m4cyS5vq7P6+QbsH67kEouK7Hd2Bnyooj/fC70KIim8i/9sghlj+Bsw/MzBoB0LEfAH1uAR+KZtu7+kb2QFCCCGEEGLCKWtqavq8mxdZ0NzcbAsXLrQ1a9a4lOKjBkH57Qjmn0Gw/wCEx8mNtVZZUmL7IXDfqbzMroeIYPrjA0O2qKbSXoWgfw7ST0bg/58QG3f29tuzsFWhzBEQHWxlOKquxv7eP2A3Q2Csg+0hlD+tqdbKYdsHfik2roHf+5DnCYiBg6qrbLfKctsefk/C+i/f3GG/7+m354eGgr72iwO/pfY2iBHWYzX8Pun8ng6/FSWl9lqUP6CywlZBYPwt8Dtk+1dV2p5Y32wIIoqnlRBTv4XQ+OfQsA2NbL4QQgghhCgC1MIxRrJp4aiurrY5c+bYunXrXEphoFDoC9WNXZYOqa60tuFh+3PvgL2IoN8zC0H/myA6GvH3bgiNxyAWPDXws68TE08i/W99A9YV8svuTW+trbZOBPt39/XbPyFwPDMhCA6G6GiGILkH5dZCMHhYv30gJvaEmHgaZf6Ksh3D2/zuhLJvg8DpRdqdEBMUKR523ToI28IWmL84v8POJoQQQgghigcJjjGiQeNCCCGEEEIkUxzf4RBCCCGEEEJMSSQ4pgH8kJ7/TkUxfVCP9bo2VLd81S/VhwSz+cCgzxv+5axpw4Iv26ob3HyxcEno+xvh6eiS6XmMhBBCiCJGgqMAtLW12R133OGWCgsDZX4M71Q3xX3ZeyJpD9WtGOs3rVmwwlp/jCD+8iIM4fnhv2Mj04Omj/4JIYQQRUhuBQc/6NeYIjihLdU3NsK2KfYNDjIwMBB8i6PQeLER/vK2/7K3gnqRyOPLrOU4BPLn5iiMP7TVVra2WuvpKe4RSfZ0sMVDXxoXQgghipLcCA4vGOrdchT/ZfHL3cSPAHpREXxpPGSL2kXOoegIi5BiohgFkRdurNdlLk1kwaErrZVCYo8WO7OlxVqujkiCJLsQQgghJjW5ERz8kjiFQqdbDuMFRfjL4v7L4xIVecUH70ljIxhQpxtHEbaHbUznciq7J8mexFjXz3SOEbkY800p8pCx1s+vP0w4Lc5OUqXnlktHgvjYaXuXJ8/4Fos9zrSWQEhEujwl2TPl4i8HrRtn3KIuVUIIIUQxMvFjOK45Z7QYmYLwZ3Hf+973uqXCQtHhx0akCrbDYzyi4yii9mjrQ2OCPal8EuNZP7d9CaYLMd8WyhNu3Umq/3iIa63x25P/FqbzR4L42Gm9y5NHICbStlgk2YUQQggxZdCg8WlCWHj4ADhV8Mu8TIuzR4NoDvpOFTxnUj4dY1l/Nv5JuvqTcB2y9U3CZVLt7ynJ7RASj7TaVWzBiBuTkWQXQgghxJShOARHdNB4tAuWyBnZBs1sAfDdjfzELkqZMtHliwG/zyk2znNp+acIulRBVCxlC8YjV42s9/TIzwon2TPh4i9b692fDbpTCSGEEKI4KQ7B4ceATNFB4319fbZu3Tq3NLmI/mytnzJ9Sz/R5XNBePzH5BE7E9ylKsztS0fWm6pFI8kuhBBCiEmNulQVgI6ODrvnnnvcUuFgF55suv8UA9l2O2ILSHgbc9ltyfuKip1su1V5Pyw3rX/lyrdopBqzkWQXQgghxKREgmMKE9d9KhyQp+pexTxMS7InUYjybAFhHt8CkSuxkSsy2d8iz5y/0lr3dPNCCCGEKDgTLzj4s7n6edy84YPcVAF51B7Nk2RPIql8dIxGtvUjzONbH+LqFfWRq4A/rm7hLldhseHxZSQ6hBBCCDFdKJk7d27u+i8EH/jjz9xGXPoP//mB4OHl4DsdkZ/GjeYvQubPn29Lliyx5cuX25Yt6XdhQ0OD7bHHHhPSrWoqExfQCzGK81faypvPtKVr1U1LCCGEmCgKIzgIbf5L5NdFxETYRqL2IiQbwcHvcCxatMhWr17tUgpDOaY9KiusrrTEHuwbsK5QPctKSmxOWantVF5m/xwcsheHhm0wZK8rLbXXVpRbL9IeHxgM/noqSswWlJdbI8qv7R+wjuHRfrdH+s7wux5+n4/4rYF9z8pyG8T8o/0Rv5h2g60R634Mts3DwyMGgE2w2aVlNhd+NyD9WdSJPjzV8LsXyrIqj8DWE/LL/TAP29KMej0B20bUyVvZxDcT6fOwPRuHhuwZ1HlgxBRQBb97wy95GGW7Q9vK1FdVlNnssjJ70vn1NeawZ65vPvy2o75PDQ7awLaiQgghhBDThtwKjmnEZBAcR9ZW2+K6autH/VjDlZs77WkE1BQMC6sq7d11NVaNSH4AQfQvunvtrt7+IO8sBMqnN9VBkJQFgfvjCP5Xd/bYywic6xGAv7u+xg5E+SF4ZYC9qq3LnkLAzQB8v+pKOw7rpGDph99f9/TZ7zFRWMyCv9Maa20HiAYuP40y34PflxCo18LvO+D3oCrKDrMh2K+B3ydQ33InJt6H+lLk9MF2B3z+FhMFAAXDyY11gRjhMsXTtzu68XfIarF9h9dU2ZsxUQTQ79c6egKhRBHzmooKO6Gh1pqw0Ieyd/X22a+7+6wT+WbA78fgdwH9YnkT/H4dfinQKJzeWltlb62uCuo3iH3Bdd4PYUfmQ4h8BGWbYevDzr+nr99+iX3cjnUIIYQQQkwnypqamj7v5kUWNDc328KFC23NmjUuJTW1tbU2b948W7t2rUspDIchyL4VwfMvMf1rdYUtwvJDA0O2G4Lh99bX2t8RHN/U2R0E5RQmDPwZzH9yRj2kaIldBYHC1o1DEVjviKD7eQTwRyLo/xeIgh9CKNza1Wf7Yp5l74co2QV+P4jg/WHMf6u9C4F4qb0dZdkCwoB9KfxSWHwFfhnwvxWCiC0PbFXgOv4VYuWnnb32MwTme1ZW2DEQIPfB13YI/E9C8M7Wia+3dwdCh34pWigMToU4mgGBQ79/h9+3wLY7BMo6+D0E28zptq5e+yn8LoDfo+uq7AH4ZRmWfRb5boS4YR2PQFkqkTbU+SRsyxxs9//b3GV/hmCgaNkHfp/APjwQ+/NQ1P/2nl77EXzvgjoejeWHBwetCkJm6YyGYH9ej/qypeYI7KNKrI8iKNz6IoQQQggx1VELxxjJpoVjotgdwfyTCKbZpWk239YjgN4fQT3f1N/Z22+3QDQwYGerBUXD2xEw863/OgTUq9o6g4CZrRYUFe+HQNmxHAHz4LD9CCLlLxArfJc/E0E0WwEWIgBnYP2nnn67uasneJNfB79HwOdRCPArMP8Myq7a3BG0QLBVYE/U7/iGGnsVgvr1SPspAvc/uVYWtlp8GPU9qLoKwf+w3dPbB5HTG8yzi9hbEfy/ky00qO8zqO+1EAzPIZhnl67d4e8E1Gl+4HfIfgG/f4RfChR2czoB2/ImlG+DjYLmux3dtgl+2WrxZuyfoyF0GrBdz0I8fBWCgd2l2PVqPur7IdTp1fjLbl3/C79saaGAoHh5X311IKLYyvIghM834ZfdrNjd62D4ZctQG5Y/v7F9a5cuIYQQQoipjgTHGJkMgoNdiMI1o3hgwD2EvxQH4d49DKibYKtEKXadCo+7oJ8aBPkUJl2utWKUX6Q3w05/m2FjtyUP/XJMBsdCcIxEeHwE/TIYb0BZBukcYxL2S/EwEzambYI96peigOU3DQ9BpIykE/rl+hpRlmKAdd42GmSbX7Ix4peprE9NSWmwj9jiE4Z+g+5XSO7gPnTphC5nolwp8nAfRv3WI4Pfv0IIIYQQ0wXGbWKKMjpUtmCQNVstgsHNESNDYLZ8sMtPWGwQLlEQsBUiKgoI89NvNMgm9MvAnX7DYoMwJwUB/bKlJeqXvuh3A6Y4v2ztoN+w2CBcZGsG/bI7VzS89345Rf1yia0z9BsVG4Rp9Mt1R/1yn7Llg60qcX5ZF4kNIYQQQkw3JDgKQHV1te26665uSQghhBBCiOmDBEcBqK+vtwMPPNAtFR5+ryLXH73LBeEvhodJlZ4OX2ako1TuSed/LPWdVCz4sq26wc0XE5essNabV9gqPx2dv+MvhBBCiLEjwTHFYTDMj+P5L3HrK9ciYxYgoP8xAvnLizCMh9hYddcyW3rsMjvDT29cYSuPLpHoEEIIIYqM3AoOfsCvMcXjnrZz3dTo0uLgl8eT8oiM8GIj/CXuFyU6xgT3G/fjK0d1TGEeX2YtxyGQPzdHW31oq61sbbXW01PcI5LsQgghhJiU5EZweDER/lp4GNpvOts6LnfTCdNLUHR2dto999zjliYeHzxPNHHiJ04kiUnOoSutlUJijxY7s6XFWq6OCJgkuxBCCCEmNbkRHNc4IdHplsOwxYJio90tE+aPEx2BMPlkvJ9JTG9vr61bt84tFQ4f0CeN3WCQ78d4xOUN26PigMup7J4kexL5Lh+2p8vD9PC7d6Zdi+lizDe5suHycWWIT88vl44E8bHT9i5PnvEtFnucaS2BkIi0ECXZhRBCCDEl0BiOKQ5Fhx+7ERdMM/gNj/GIjvOI2qMtEo0J9qTySeS7fNL2p4P7dgmmCzHfFipfHK0z548E8bHTepcnj0BMpG2xSLIncYEbsxEeNM4xHbe88ueVhRBCCDGxFI/g8N2u2hUu5IOw8PDBtA+2owEy8zItzu5bTbyP9pjynkzKh5ej+TMpn46k8t5+3ohpK8yTapuywa/rMrdM4uo0JbkdQuKRVruKLRhxYzKS7Elo0LgQQggxaVALRwGYPXu2vfe973VLE0s2ATthC4bvKuQndiHKlIkuT6ZnAFoEXaogKpayBeORq0bWe3rkWCTZhRBCCDElKA7BsbV1wy2LooEtGL6rUHjK9A39RJefaDJpUckPE9ylKsztS0fWm6pFI8kuhBBCiEmNWjimMAxwM23JmEh8UF64YFxMCL5FI9WYjSS7EEIIISYlEy84+CtW/DndU7+y7TsdbrmsPMgx6RkYGLANGza4pcIR130qPIYgVfcqL1SS7EkUS/lUYyji7CRT/5ni1+MFlcLpAnP+Smvd080LIYQQouCUzJ07N3fxT9A16pzRA7+Dn8Vlmlv2pOtGNQm6WM2fP9+WLFliy5cvty1bijuEZADtxz3w15Si3ZHCdhLNk8oeDt49qdLS+Se+XFxAnsvyLBvNM17/JLqObMsXNQu+bKuWf8bOONktFwuXrLDWvUPjPq5fZi23xOxfCo6bl1rLWrcshBBCiIKSf8FBogIiSVBIcIgpAEXGRfjLgDhOhIgCALGx8uYzbelaXaNCCCHERFHW1NT0eTc/fg5cbFUP3Gb9fW7Zcy/SPgYR8VbYD8b09QQxkcpPEdHc3GwLFy60NWvWuJTiY1ZZqX22ucGOr6+x5waH7IWhYWcxqy8tsWPqauzfZjRYfUmJPQN7Xygm26uywr4wq8kOrKq0p2HbPLyt7A7lZXbOjHo7saHOXoJP+vbUlZbaO2ur7Wysdybmnxkast6QIHt1RbldPLvJDq6utHUotynkd3vUtwV+T2qss81DW4I6eWpQx7fXVdun4HeHsjJ7emDIekJ+d6sst0tQ30XVVYHfl0N+Z8PvqU119nH47RreYs+izt5aBb+Hor7nwe/c8nJs66B1hfzOc/U9ogZ+sc4NIb+zUI+Pwecp8D2AMqyvr3EFpv0er7J9nmu0Bx8pt+th68S6RYH5wy/sF4XvzSiEEEKIELkVHBQWqUQCbXe5KUlIpPNTJGQjOBoaGmzfffe1559/3qUUhjMQCG9GkHtnX7/993ZN9nD/UCAeahFkv6+hxt5QVWW3dfcFgfwcBM+PDAxYP2Li10JsfGW7GfbDzm4sb4GwqEXZwSCIp9j4LETBC4PD9nv4vWhWoz0JvwzyKQqOhq8jMN3a3WuHIEifh/yPDAwGomN3iIJrt2+2H3T22CYsUwQ83DdgL8EvxQbFRDfq+9uePrtgZoM9D2HwBMpWwu+RtVV2HITTLV09tj/Eyt6o48OwdcPPAoiCq+F3dUc3ygzZWc319gjq+yLKU3T9G+pbhv1xO/yeg3VQPD2KshwidCj8fgTC6Wfwy/pRYLG+FAfzscz98HPU9zFs32dQp4f7BgPhNhN+l6D+MyCq1sDvKU31wb57FKIE1bVD4Hcp7D/p7LWdUb83Qwixvh0SHUIIIYSYZuRWcEwjshEcjY2Ntt9++9natYXtRL4Tgv2bEUivRfDNFoEvzm4MAuIDqirs0JpqW9XWZX/o7Qve3J/UWGulJaU2bFusFcH7FZs77CddvfYUAu258HMkRMR6BOofg/hYj4D7GxAjD0AsPIOyK7Zvsoewjj0RoFMUXLW50+5AEM6y78dyLYLyQdTnv2fPsKvaOu1HqNOTCL5nI/1Y+GMAfwIEUC+C8a91dNl9/QOBgLkCIol1n1dRZh9trLP/QX0pGp7COt+J+myHoJ+69Euzmuzr8PsDV986bAf9PQe/x9VXWxXy3NDeZX+lX6z3IuwHCogdIbL+DULh/6Hsr+GX6zy0ttJ2xfZ2Yz/8R3Oj3Qyx8V1MT6AepVZip0C8MN9REBTbI9/18HtP70h9l0PMPAMh1lBaYp+b2WhXYj/8EsKL23pwTSWEXHmw717GJIQQQggxXZDgGCPZCI7a2lqbN29ewQXHswiC/Rv1xzH/BAL1TyBwZ3eqr7ZDMCAAJwyC/w7xsLi22t6G6RoE9myhIGyZ4Jv5RoiD90E8PNQ/hAC82za4oPlJ+L0fZZcgcKeAuA5l/+b8Ms99sB2G4PwI+P1mR4/9FKKAsDXgYdSnuqTEPgDR8STmv93RvbXbFwP4exHI0+/cinK7Ngjs+wPbRgifByAA3lhdFQihH0IQ3NzdFwwWHsB/bN3g/AkNdUErx7fgl+KDsNsT/Z6G/bBHZYVdDb93O79s+XgQZQ+oqrTF8Psz1PXHmCiWWPox7Ae2wHwIZdvx95vwy3oTdiujoOH+XVhdaa3YD7+HiCHMS3G2J/y+CXVmi4gQQgghxHQht4PGpxHZDBrnl8YXLVpkq1evdilCCCGEEEJMD/ThvwLAb3BIbAghhBBCiOmIBIcQQoyDV61cGfz8scgHR1hr66luXuScU1Za69vdvMg5/4F7w3w3L8R0R12qxshU+PBf+DsRnrF+LyKTD9+ls4sipcHs2qPdOdJutuTn7sN6SL8O6aMI27Mh7CvOR5J9vND/W8xOhd+xQMGxZOlS+5xbzoYjcV28z83/FddFq5sPp3vC9mxItQ5Pkn0s5K7+FBzzrKXlOrecHdeiHv7+dirW77kO6VHC9mwI+1oCH9FzM8k+HlJtX8ZQcDy91Fr+1y1nw5FY/0y3/lux/s1BapB+HdJHEbZnQ9gXfCyBj1H7L8k+FnJYfwqOb+De8KRbzoZxH9s8kctrJx3c/tNSXE+Zro8+eM2J4kCCY4xkIzgqKiqsqakp6FpVaBjoh7/8HV6O2khcWhJJZcbiUxQBFBsIxE8LiYytyy5IHxX8R/NngitDP7Ek2XOB25ZCCw4G5QtwXYRFhl+O2khcWhJJZcbiMxNyVf/xCA4GJuEAP7wcF7RE82dCUkCTz4An3fZlzFgFB4PyP2F9PsAPL7v5UQF6NH8moMy1rkwsSfaxkqv6g7EKjpwc2zzBuuTi2klCgmPqkdsuVfxCeKPX5BFoO9dNjS6NnHbltvTwFM4zyaHY4KDxQhMX6L+I5cuQ/l9uOUqSXUwTXBA+Sjx04Ob9O7Nr3umWoyTZxVbigu9fYvlxpLe45ShJ9mKnkPX3QUk4WOHyNUhPRZK9mBjL9uWMUEC+df2/xPIbsP4ZbjlKkl1sJd2xTRFdCTEpyI3g8GKi3i1Hof2ms63jcjedEBEU14Vsfkr3JXIxLigq1NogxgRFRT5bGwqNa0E5FULpOgiliX6gMyjPdWuD2IbeduYRiIqctzYUC0UgmIqlhSOOYhREvoWEAk4UB7kRHNc4kdDplsOwBYNiIywgmD8qOkRREG4V4Xy0pSOcxnle1Byb0YS/vLA5ZWr3MF/YFr5p+fVF83j8OlKVn75caq2trSmm7V2eHOOCd7aKBC0k0QCedp9GO48Zx4fgPuCP39YySXYPfaazMc37issziQi3inA+2lIQTuM8t5fjKA5w85wytXt8vlQ2pqXLE4b58tF9K1ew/gxQ/HwUpvlzx28vl/18NnZP+N4Vxef3dr+cjqIVVK5V5DQKEs5HA3eXFmwf57m9HB+y2M1zytTuQb6t+zfV+ryvuPITBIN3X6d09QmfO3F5U51bfjnduUeS7EmMdf0+jdsTzpPp9iURlz/sP5U/ri/d8RDJ5HYMR9CScQ7ERchlIDiY5pY9vtXjhBT2IiebMRzV1dU2Z84cW7dunUspDAzGk8ZWpBs0Hlc+07Qw6exRW9wy69geU97nPQ/z/gikW5fIAgbpbuxE7NlNe7pB43HlKQCi3bRcWspWk3T2qL+4ZQoW1Cvl+Azvny0cbj1b65YhYxnDkRR8055u0HVc+UzTwqSzR21xy6xj0kB0TyEHjTNoYOCWirigIpw/rjzTom+ZGYSkC/LT2aP+4pZJ3HbE1W9MjGUMB4P06BiHMLSnG3QdV96ljRojgbQxj+GI+otbZh3jBoO7vHHp2Y4ZGc+gceKD3EzPRT/mId255c+rpHMvXfm4cy+X6ydhf2GyLc+/4foyb9L+TFoWY6M4fhb3VIiPKTp+g/T29hZcbMTBYJwXHy8e30rAQJ4Xn58KOX4jLBg8cWNI4sRGKtRdLE8gMOd5E0zvdGkUGNjfW88fN36jIG+BWJ+wuCBxY0icCIolJFBYtqD1j8AA3e9f30rAAD18bRZy/EZUXJC4MRjpRMRE1j/K1nMXkydcN060FerYc11cZziA4XJ0DAavr6KHAbrbt1tbEhjIu/0aTG8YsRVk/4YEw9b9G9clyv2qVTHj76/hczPu3CE+IE53bnkfceU9mZRPx1jWn41/Ei0fhXXwYoV5uZypbxKuT9z2iLFRHIIjOoZD3a3yAoNx3pQudMtxxAX82Vyo2dKIdXkR5Cf/87lJ+LryxlAokTR5yHGXKgbk2N+n3pLmxlvoQeO4R0TPnaALljNPJhjMc//+0C3HUehB4+GuVn6KtlpkQ6HrHyY4dzGlCxpo572kUET3LafJeO4GwTz378Y0+7fQYyDCXa38xC5YzjzZ8OdmpvV/xbZnUZZMdPligLES9zn3vcgNEy84rpl83alE7mDrhX+LE56yadFgeQoP3tQoPCbrQyW3nG8tLS0ppvUuzyQn2sLip1QtGnGERcskFSv5ItpC4afsu0WJOOL2LafxwHNZgGgLi5+KvEUjV8RuO6ZM39LHleVUqPK5IPwyShQHxdHCMcWZOXOmLV682C2JfEDhwRsahcdlLk2IlPguWaGHYTAVsoVGCDE5cN20gkHveWYyBsisc9x4i1Qwf/jlTrbl00Ffo+7pbsqmhYhQsLBOk/F4FCsSHAWgtLTUamtr3VLhiOsexXET0S5L4YuwkIOuff2iAoF1yKSLlM+nt9J5IG5MA8c8pGsFCI+JyDepxlywDpNAMMR1L4obaB0mblxFvkjV/Yl1GGuXqELWnwFGXFCT7l7hg55CEFc/kmkLRartK0j9XfeoUWMyGJCn67JUwIA9tn4Edbi2UF26xkG6Y8uAPN25w7QkexKFKM88FADMx4nLhWz9SIJ1StrfduJKW3lcJntEeIrzV6q8rYi7WmXzK1WzZ88OPvy3evVql1JYwiKDv0LFIJ+ign/jfqUq+qtP6X7JiiSJlEzsYRGU9EtZYaL1i9ZfjJOwyGAXJgb5/DUn/E37K1UkTqDE5aG/VCIlE3t4HWH/ruyogeUe2GJ/lSppfTGM9UvjJCwy2IWJQT6Dcv5N+pWnOIESlyddkJ+JPbyOsP90ZTOpW2aM/UvjJBrkcJnd8BhARKE9TFwelg2fL95fKjKxh6+PsH+uP7q+KNHty5qxfmmcMID3IoNdmBDkB7/ixGA/3a9UESdQRuEGcW/dXvpP96tQmdjDIijsn+t3ZV+xf1PUbSzdscbzK1VJxzbduUNS2XlexZ3r2ZSPkk394tafirCPTOufyj99eRERtw3ZlA+g4Og505b+eGuKSCD/goNEBUR4OU6QTDHBwS+N77///nbHHXe4lMLAC7W+tMQqS0ps09CwDY8kb6Ua6bWwdw9vsd7INiDZmkpLbQjpHbCHrWG/m2FjnjBVSK+Dvcf5jZadUVZqMFn78PArbHUoW4WybcgwGPFbiQz1qBN90necXyZugl8xfvz50YV93Rc5FmWwNcKWdH7EnXf+/OB5R7/hsmxybUp3fqAcy6c779KdHyzSFuO3FmWrUTauvkmMRXBwnY04l8sxsxHrjNanBnXh/u9EXftHbybKlFgD7IPYxs7I/mNZ2iqQJ25bapBO37k+pmnvJZj8MeW+z46xCY4KTPVYJ/ddd8zxZn1YL25L1FaL41KFmQ7YBkaSt1KOqYF+sTHdMft+vMd0AH67Yo9pKY7pSH1THdN2lI3eMxMZo+Coxzp5n467DnmO8FwZz3W4Gds5NJK8FW4/7//9KMzzLFqWx5R/WfYVfsdxTPkcRJWCY5otYxEcU/Xe2oZyPD/DAb1/prOuYz2m7bANjiRvZev1D5/pjmnc9e+v07hzZSsntkJsLLUzITbC5UV6CiM4CG3+S+T8VaqowAh/pTxqL0KyERwTxQFVFfbJGQ3BDep/u3vtOx09wY2GN7TdKsrsxIZaO6Cywu7rG7CbOrrtscGh4IbAwOE99bX2gboa24D8qzu77faevuCGwBvEQdVV9rHGOpuBfGvg91vwyxsNL+Bdy8vtBPh9Pdb9UP+gfRdlH4R/Pjx4Ib+rrto+3FAXXOg/gu3X8MvghzeIA6sr7aONtbZ9WZndgfRvok68yfNGuXN5mX0Qfg9Bnkfh93so+3f45Y2GD9x3oK4sy+37yAsbdRMYJ7whnzuj3vbFcfw79vd3cCz+MTAYPIh4fry/vsbeW1drLw4N4fzoCY5XD2w8Pw7G+cFjQR+/7u6zb6Mszw+ed/NwHHneLYTf+/sH7Hs4dx6GX3/eHYvj+EGcexvg9+auXpwfvcF5x2DjDfSLsrPwIPkt/H4Dfje78+5V7rw7CH7p77vt3fYA/Pvz4504707COduG8+nHXT32S5TvQlmed68Lzrs62wF+L3y5LThv882baqrsbOzfMjzifoJz+UfYhx3YBww8X1tZbh/BNfIaXKP39Pbbd2Bbh21icMF9yn3P6+h5bMsPsQ/uRB4GAgwKFtXi2kRZPoh/ge38AcoyEKXfV1eU24caauxfcM3/1V3zj+Oa5zGl0H8/9t9x2P8jx7TbftfTv/WYHuKOKQPqX2Hf8Xzwx3S+O6av4zGlX5R9dGDbveQ41Pd4nCtPDw7av720Oe/XJuu7FPe9t+K4Po56fA91/Ut/vw1gxQwk3o59dDKON7ftJzjHfoZ9ROHGwPNfsA08T3ie3o39+i2cR89jfxCed7wHHYFj9xT2G/ftn5GHATD3/dvg9xMoS34K248x+WO6F47ph3BevwZ/eUy/DdvT7pg2wy+P6Ttrq+05HNMfoL5/RB4GYcExrakM/FJE/gL1/QH2rz+mu+Mc+RDqtDeO6ZWbOuwOlMs3u+M8+nRzg23H6xDX/Tewj4LrELZdUB9evwdj3z/i7v88J7Zeh9jOk1Bfnjs/wT64NXwdYr/StiP88pz+RnuXvYT9gcMZXJsfxD5YBL+8D3Hf/wV5GBDymB6J6+EU2CnmftKJY4pzn8KNx3Tfqkoc01o8m8rsLpT5Fvbv8zh+9Mtt+ADqewSO3ZOB3177v76RY0q/h+OYfBx1Gkbmj+G5Qp/5hHViXafivfUP2Pdfb+uyl2Hjdu6I+n4Q58NbcNwfc8f0r6Fjuhh+P46y3Oc3oz63oM7+mO4Pvx9G2V1xLvKYMlb459Zjylihxt4Gv08i7fuw3RMc0xG/R8DvJ7A9XA+v05sx+et/H/j9EPzyXslrm+fKs/CheCI3lDU1NX3ezY+fe2+z/j43H4W2u9wUzRO2xdmLkObmZlu4cKGtWbPGpRQfH8BF9SsIgu/jgjoJQcjOeBgwEOAN/XhckHxoXYObx6tw4R+Mi/MZXPR9uLT4UH0TLrxL8QDjzZ3ig1fcC7hRvB43bwYQvFC/i+l45N0NFyeDtO15A4HfIeRtxY1lu7KSwA/L8S3De1HuKNzAL97YEdwQ34+85bhFMHDijYl+1wTBTI+9u77a9sTD+UH4nQE/vOFVI+//bO60Otxs34oHxMuoPx8w70a5d9RV2SWo7597B7YGCGLsMOidjfPkWpwfC3DeHITjsw4BIx/EfKjxPOD58TRuxsfiWG3BjfxFHMc3It8xOB4/xoOb5wcDXD6wHsZxnFPOgA2BHo7ZKvjdCecLA+/n4IMBM4Ouw3B+XLKx3R4JzrsaBOQWnB//6s4PPswY7B6Hdb6G5x3yzcL5wHOW78KuwvnBt20MvNejHM+741CHd/C8Q33/guDnA/DDQO45nCf74SHK8/L3eKjz4cKyrE++YVDxbeyDm/GAZpA1C/vmCax3PraJ++HJgQH7KurDYIkBRCAMcBF+BA/gPZHnMmwnH9x82DMw3YCLjtv8bix/HX4ZlPKlAK/Jf+Can4u/9MsAjseUQeMbeExhG4DfE1EfCv7/xD56Bsf5GAQnfHyvxzoY5PCY/hDH9HvBvaTWdkZ9eUx3xN/jcUz50uBqBIgMOA/BMX0WPnhMeX94K5YvwTX/D2wDz5d8w0CG950r2zqDIPhw7Be+teXLiHdgO47GPvryps7gJcqHsN1sPWC9eM7zXLgf23VjR1dwT9wf+34tzjEG+wzsea+8fHNHsM+PhF8GKvTNdbwb++x/sM6fITD6CPLOxL5hwLMA+/p9sPH43gC/B6Bur4NAYJBFwcFjugeWL0OdNuGcfCfy9uIe+jKOFe9zx+D++1Ucsx/imPK8YZDM84HHlMHyC8h3Hex841uI/ft27L+HcP/+Nu7Tx2Ke++1BbMtM1IvXId++8z7diGUee55zDBSPxb59B7aH9+l7cR0ej7rzOnwW20yhx33/R4hcBo9vR7l9cO4zsG3A/f9E7CO+4PoK/PJYMJjc5I8p6vAu7LMvbWq33yNI5DHlSzbuiz3h9324/v+G9X0NfnleMFjl84pv3Xkv433oChxTBqAULmxV4DHldlLYc52/wH1nENcJ7yf5hKJiCbZ1Kt5bj0S+fZDGY8pz40TYeO39P1wzVSWldhjquxH7vcPd147GMb0Ux/QPOCf4/GcLy9PwuzePKcryHOK9joJlX1w/D8IvBcWHcfz50vK/cUx5NfA4MtahMOPxPRr1uALb8r/Y3o8gbxP88gXC7u76p1C+EfXlfnkdzkHuL4qV/F9ZU5/ctnBMIyZDCwcDCL5d4sORAUbLjPqtzY+8+PgGhG9R5uDiPBE3DgYnbLrkQ/Uq3AR4I+MbjEW4oPn2jmXY/PkH3EB+g4lvR3ZD3rOaG4K3GwxcepHGN7J8g8QHIwOOXegXZXfCelbhQucDnDcltlbwYdGGMlwP30L80r3FYOB1FurLmw99Er514duGmagDbwwLcINgneZgmTcItnjwLUX+309PffbEDfxlnBt8sOyA48aH2yz85f5moMOH8KM4jnxzdijOD54jfPg34Dj+Fg8IvvnkWzm+KToTx5HnBx/YXTiUfLPOt1HbM0BB0LEjglT63Rn+KVTXugcHHyR888iHBR82f4TPNfDNt2d8q84Wgnasg+f3IPx+EwEvH6B8SFLM8u0X67QDlq+FjeKVb/MOrqqyd+GhSr9cD9/239bdEwQafNOf77eY5AA8yCi6+fZxf8yfhPpyW/iGjsKfQQUFxU7YR3zLR5HNa2gOlltxbfLNPbu18GH6BpRv3zIcvPW8FdcPr08GTxQmS7iPsF38x8CPb/v4l0H5h3Ft8u06jw2vUQaJPKbc14fVVNuba+AX6+R6GJzfgX3P4IXHdKm7l/AhzDwMgF5wx5RB3Bxe887vShzTh90xZfl8Mw/1G8Z6GLBx+96NAGMvBCm8z/CeRKHHew3fCh+IdAZJ3PdlqBpFAN+kslsm687gj/m4jdy/1+E84ptwzjMo2g/XCc9dXhtsFfoTziWum+kUB/6YPo3jRXFJEcH74MlNtdgf2Pcoy33GY/oE8vD6YVD0etwbeVwY4P0c5e7EvucxZUvJKU28L26BWNli6weHAyHCY8rjRAGUb9iSxaCM1wlfNvE+zf3D+zSD429gW9hSw+uQwT7v5dzOHUrL7HrsP573fPv9Rlzfx7j7P1vkKApu6+4Nto0t5S3YR2yvYWBbib34VZR9xh1Tvq2n0GFZ7j+2hjDgZavPQuz7D7jric8D1pXHlNcPn22nNbEVqiR4trDrEsXaU+6YUowyeGV9ZyMvrxe2eHC3sqtctCtcruH9dBecH1Px3srrcin2Pe8BPfBJwfM1d0wpVnlM2QLI+jIm+TpsLM9j+q9OZNAv17PWHVPm5fOIx5SHhud/HY7t9RD2fJkyA/VjffYJjukWm43l7+N6YesFoaDg/aoN909e/08MDtpP4Zc9K9ir4lRc/1z/rdgGXoNifEhwjJFsBEdDQ4Ptscceds8997iUwsAHZbgvJvsI80bOmwgDd960PBQAvHDZ7Yk3X17YHl5wfNu9HS5WH4SGg3oGaXyo8IHIbhPs4+nh265XlZcGARMfurzpe1i/WVgf30Yw/UXUiT48vOHOR325DXyzQYHj4ZugXWDjzZJvcaJ9McX4iJ47PD/YJYFvBRlw8QHi4fnBQI43cwbJwfkRKstAiA8bto7w4RI97xgE8FjzAcEHiId1oE8+PDe682PUeQcbH45M43n3ivMD51UdyvJc5/nhod+ZWB8falwfA+XweVcI+Obd1whVDYIdBrh84PPBzmvUwwc39x+36Qk8aMNBJQMqbgcf2Nzv7AIZPm4MqObiOuE+9287PfTLaz7VMeV+Z4BBnwxo445pqnuJP6ZP4ZgyMCkk0XOXwe1OqGsj0vkihOeSt/I4NGP/sdWX+/V5nEfhoJIvQuYjaOMbXu6jsBil3x2wnQxqXsD9iWLinR9eajUzdrQS5KsZ7LPmrg7rw/7fXNtogwi4PRVDgza7a7OVDQ/Zhrpm662odBbUH/Vr6Ouyuj4EatV11lnFLj08S3CuwG/1YL/N7Gq3fvqtabCBMp4FhaMUdfD1IZVDAza7czPEBq7/ukbrL+OeGaEc2zeju92qkGcT6tpdWeMsI37q+nussafLeisrbXN1vQ2F9pH3a1jXy3VN1ge/vZuetZ9+++pg3++MY8ogPLj/R48pjglF9ViOKcvxevwnjikDz8KevaOZavdW/0wPXghg/7Jl1EMhwWc6W6eeh5DeCLu3ho8puyn+M+aYsps476Y8puGWqHTHlH4p6vkSgOcB7w/hey/9sqtasI9C2ynGhgTHGJlMv1IlhBAi/xzfcqFd//MH3ZLINacufq199+pL3ZIQYjJBgSeEEGKCOJy/cuXmRbFxobW2vsbNi8nGYlxbn3DzItcssZUrD3fzQiQjwTFN4Pcq0n0kb7x2MUXhdylw7PlThtdFP7JXDOSifvwmxyT4WGAcp/ptx/Qul1YMhOuVz/pxPXF+U6UXlPIf200H/9i+y+n1Li2X0H+e/AZ1Dk+FrD/Xn4/1ZckZoXP3KJdGwulx9mxItQ5Pkn0ys/W+jamYSFUf1jfb5wvL5JN0/sdS33wjwVEANm3aZLfeeqtbEmKS4D6Cx48d8XfTY7/sPZEUe/3yDIPqF/y2Y9oBy8UkOn4aqlsx1i+vMGh+3XF24h+Psw9y+stIED1pzs1BV+/JWv9xwkD/ydC5Ox/L4YB/dcgWZ8+E6Dpuc+meJPtkhkH91vs2Ji5Pl3NrOpNbwcHvaTSmOG1oO9dNjS7NE7bF2Sc5Q0ND1t3d7ZaEmATwrX/0K90dNvKl8WJoDSj2+uUZLzZ+5pbJdVieVkF9seLExgf/HDo3GcAjaP9OEby5F+nxgX44wF+F5XSiIskutkFxQZERHvnK5WuQLtGRHfw6+mQiN4LDC4bwx/vC0M4vh1/uphNCoiL40njIFrWLccPuUOfhxLwMfy/Dsi5qMWYY1CPIF8UJRUdYhBQTEkSTGAmmQFRMpVaGYoPBc/qf3ykMcS0uXGaLTDHUbzKTG8FxjRMKnW45jBcU4S+HM/80EhUVFRXBL1UJUTgutdbW1hTT9i5PGiAsgi5KuNGmHd/Abk3M46dol6awPWxjCwWXU9k9SfYoUUGUbfko6crT5rYhsI91HWPAB+9cZ7oAPjqWIpo3bA/b/BiIVHZPkj2Jsa7fpzP+fXeKPGS89cspCNpP+DP+xo1RcGlbzx0upxpD4W3MH84XLk9gix1DEikzyt9IjsxI59/5Tbt+rs/P+2WXJSBV+SIk3CrC+WhLRziN8zwfX4f597p5TpnaPT5fKhvTUuUJp8eVzyc+oOeU7nzbet9NkTdsD+OXU9k9SfYk8l0+bOcUt6+YJ0o4f9iHL8/5OJg33fHIBcU5hoOCJCxQJjlNTU3Bz+IKUTjOt5aWlhTTepcnAQbveDhQeAQ3rbiAOzyGwuXd2qUpane2rT4aE+xJ5ZMoRHm3DYGdU7iLV56h6OA6UwkPBtvhMR4+r88XtUdbHxjIp7MnlU9iPOv32874PTxWJNy6k1T/ooVBOLtkpRpD4cdXsMtWeKxFuAuX85FyDIkvx3S/rmxaMJL8p7OPo/7FQlgIcIp2wUoHW0p4Pv4F8+GxIL58kp1QMITHd8R152Id48aARMumKp9P/HqDF1qYojBt6303lNefX1E7l7eee2C89iTyXT5q55RplzOfn9dS8PwOLU80GjQ+xfHdqT6N+Rfx13erEiJj2NrBm1Y44EYw/ooxFMS3MMTZaXM+AtpH8sbeCDMpn45ClXfbMJGEhYcPqH0wH+1exbxMi7P7VhPvg4F8qu5ZmZRPx1jWn41/kq7+kw4G5uGAPB1esITzs3w2giIdmfiP1jfb9WezvXkmrpUgF4PGx4oXDGEBEjeGhHXMRgRlmjeX+ICY+9YH05xnWvTY+y5XcXYuhwPyuPKeTMv75Wj+TMqnI6l8nJ3kqssZfXMd4bpymQInF/7TURyC49SvTOlB40IUnnF2qYojm4Cd8O0/bmS8mW2djs7sphww3vLTjGwD8nBXJD9lE49OdPkpiwvOi7orEUWH7+4U6vY0Fa/NcItDKuIC/nwSbWHhxC5YmeDryjKFbNVIRzjgzoTotnPK5tyb6PLTleIQHNe5MSBTdNA4f6Fq7dq1bqnwNIYuiotdmpjq5KBL1Xjh23/3sB41ZdoiMJbyDRApmQqiaU70Z2v9lGmrwESXn3QgSM/4uxkUHb4rUTEKD1+/6PRnZxd5JdrC4qdsWjSYv9iER6ZEt9tPmb6hjyvLqVDlJxrWNalFJR+oS1UBoOB46KGH3FLh8N2pon0B2a2KH/ETIiXsUoTAXW9tihN2Scq0JaNYSNXNKxVsAQlvY7blpwRh4TGRLQh+TEWmgoL5w/XNtrwoCGHhUSjRwQB3MsCXXQzKuX9EbpDgEEK8kg7caF33qa1BA1sP3LiGWDvxLQxJ9iTG4j+pfmF7EuMtn2fiuk+FA/JU3au8UEmyJ1GI8mwBYZ7r3DRpxIbvEjXWgNsF62NmvOtPIs4/wTq2tuC4PN/x3a2iYz6KmLjuURw3ka7LUty4inyRqvsW65CJaMg0X75gAM/rOXzucNmPIYizE/8rSkn2JIqxPJcz3f5cMRGCqmTu3Lm5uwcE39s4xzraQy6Dn8Vlmlv2+G9znBBj97ZomSJi/vz5tmTJElu+fLlt2VKct1HfwnEe5sM1DA8k96TK60myiykKg2w/boJdnBBsjzr+YTuJ5kllRzoHZb8irwvoE8u7xazqF2cnri6xXbXSlactWt8xcPjKlbbb0qV2rVvOBgboPsaLGyQdtpNonlR2pkcD/FRpqcqH00k29YtbVyrCPrKtfzIXWmvr962l5VG3nJ7jWy6063/+4MiCC8CDc4cBeDjYjxMVyMOfzQ3Opag9Wt4TzhcuT1Ktn2WcAIjO34T5E5yYGEXc+sP+iV9/2GcSzButf1x5l7Zm1mvtu1df6hKTWYxra0dcW191y9kQFhnswsQgn6KCf6PiIzpAO06gxOVJJ1IysYfXEfY/nrKZs8RWrnzCli79tVvOjnAAHRf0RgPs6KDpVHYG61F/TMu0fBjmYXocuSw/lu0n6fyTsI+xlM81+RccJCogwstxgmSKCY6ZM2faG97wBrv11ltdihBCjDAewTFVGZs4yAfjEBzTlWwER5acurhwgkMkMT7BISYGii9PnAjJJ2VNTU2fd/Pj58DFVvXAbdbf55Y99yLtYxARb4X9YExfD4mJqC1qL1Kam5tt4cKFtmbNGpeSmrq6Ott9990LPnC8trTEDq+ptoVVFfby8BbrxOSphOz9l6pKe0tNpVWUlNqm4WEbcjayfVmpLa6rtrnl5fby0LD1hkRVWUlJQU9SUXh4jPfHefOWmiorx/wmnDvh82OH8jI7qrbadikrC86t8PlRj/yH1lbZgTi/NuLc6QzZKnDe7Q2/b4XfSuTbjLKDzkZm47x7B867eTjvNuCcDPutQ/63YJ2vR/l2lOPkKcf02srywG9dKc5nrDfstxl+31VfY6+uGPHbE/aL/AdXV9pBmLqR3Aa7h9u+O/weBr+N9AvbwLaiNsP53QN+X8I6w34z5Ylf/MLudfOZ0ohr+931tcE2vzQ4jHpvW28NbG+orrI3Ynv6uT2weSuP6zwcuyOwH2fh2PH49DsbacI2cv//S2VFsD1hv9UouxA+D8E0bCPHzu8p9s19VUWZvR1+tw/OCfgN7QrW98i6GtsffjcMbbGukN8q+D0APt+EqQT/eOz+7wEzhvh8O7cT9vFRqNNOqPfLKNsXKtvAexzW+Tre42ALn2s8v/aFz7dg4j1u4/DQqHM4M35nP//5yyOzGbDPv77F/vLYS25pmjK8p/3wOTefYxbuPtseuOcPbimZf+Da+qubzxR/bcVd03ym8trivaIPydFraz7KHI5730xeAyg74GyE19Y7cR7vU1kJv0Ojr1mUPRA+eR8ail5buAjmwu/b4Xc7XrNx1xauAd6vWd/wtcVr1l9bZDPs3i+vrZ3dfbwZdXtmMNur4177xS+ecPOZwXXujXtA0n16QYr7NLfjDZi6kDzqPo1pd/jlfbqB8cyW0fdp7/c1uEfFHdOD3DHtdX69lfd/f0ybS0ful9FjejSOKbdpPWzR+/C/4hnIY8ptbAsdU54ru8LvEe6Y8lwJ34f5rDkKtv1SHNPXwSfvw0zlPgwf011wTHk+7ODuwzxPPbxf9j5RY88+WmFf/fvo+yXvwwvwPGFd8kVuBQfFQ1RseGi7y01xgsTb4uxFSDaCo7a21ubNm1dwwfFB3DT3xAm0BSfS6U119kj/YHBR8IQ9orbG3oULhbeYw3Bi84b3FG44vEjn4qL8wswmzG8JHvJvhih5fGAoCPBm4sJlQBm+AMTU41U47ic31gU3SganFbiVrcP5wWXeKP9jZmMw/yrM84b6D5xbHTgnZuJG2dLcACEyct6dhvPusYFBexHnHW9oh0EAvxfnJcsugl+eS0/h3OJNnOv84uyR8257zPPh8Q+U5Y2a590pTfW2O9bHYPdjqNuTsL0AvxQxb8Y5fGLDSH0ZaFO4PDU4GNxs+VC9ZNaI35mYX4z1/gPr3Iyb8QzU96TGWtsHD4Zh+PlQQ439Ez6fw7byIfYGnPtcF/0yINgZfp9EWQohXhv/MasxeEVUV1Zix+F6+l1P/6gHUr44H/u/FvuBD7X34kHKfcxAhA+UDzbU4kFXge0psfdhexhkPI3tgcn2w4OxZUY9tqcED8lyew2mJ7A9fFBSRJ6PY8d7QTkyc188ChsfQDxO78Hym/FgHsIGvxvb2oPtXof18k6wF/yei7K8f+xRVY6gqiLwy/sEX16c29wY7OstqMPHsb95L2JAUYf1HI368xyDXrDF9dWBP96LeG+iQPws/A5i/buifq9396IOnBM8xmfNaLA5+MttPY1+YeM9jttwJOr4Tuf3MJRjMPEk/OYTCY78kq3gGAvLca7y/PHX9GM4p/iigYH98bh3HVhdEdzbPoDrgdcGry0GkAfgmuP9joLhX3ANvJrXAM5zBre8tpbjmuU9sAJ+TsA5/yiuHQaE9VjmNXwI7ne8Pnht8Xp8enAk8N0Hfs/GeT6IhT3hl9faEyjrr63z4LcJwTDvXx/HvWrbtYUgG74oyHkNvAPXFv/yvsiQktf+Z7CtvLfxJcGf+8Ihb37Yzl2zvAr53OB9/UnUhwKK9+kv8f7P+z3mj+T9H/s2uE8j38dwfe/l7tMfxr5/Fvv+edh5nz4IeT+KNPrlPWInbI+/T++Isl/A/R+z1oD5YyLH9ATcLw/APvXHlC9EKL54TPkiY0lwTHHvxPxuFRXBPYTHdEfU8ULs+wrkq4Qf3ncfxb7nfZjH9P04pgfjfsn68jziPetp1Jn8C3xxP4wc0woc03Lc1waD4z4HfnlcGnD8cCrZR3FMWd8NKMuXbsfAL1/osezROKa85/I+TM+vxXacx/sl0igeDsD+ehz15ctm7vtzsM7t4J95T4FfnoMUNBRdfMH86vJy+3t//p5guRUc04hsBEcFTtLGxkZbt26dSykM++Hm9JOuXrsbNxIGJ6fNqLP7cUHshXTe1Gi7BRNPRl50VLt9uMWtwMX5+54++0Z7d3Cy8g0JFfWzQ0O44dbYAzhJw60lYurBGxdvrL/A+cG3/h/CzZ43Ut6KLp89w34bnB9dQdDPlox98RB+Hg9I5mPr2bc6e+yPvX14cJfav+G8+1vfoO1RWYYAuNZ+2tVjP+scOe/ejxs83y/wwXApHjZ3I2D/egfOO/jdD375NusZnHd8IPPh9G3Y/gC/vMkvm9lgf8HNcS5uoB+FX57LN2O9fEAdi/yoRnADpyjgTfSrqO8j8Lsntu2teCgxqOUbR74R+i783oF18039p3DD/hvyM0g4HSLn1q4+Ww2/DA7eUVcTBCMUV+dj/Y/heroOfh/C9vGt3PO4eXM/5ZvdsK5vdGC9WP981JMPHoqot+FBxO37fkeP/Qbbw8t0KfY/8/EBtgzb9r/dfbB324swvg0Paj6AWOdzIERewD65Aba/4p6xM0QjBcsjSDsE+4tv61bj2LE8BcupTbXBPsTusC9iH/+qu9duQlmKNbaM8cUF3+Sehn3Ih+2NuJ/8H/wyuPkIzpOHsI/ZYrII04+wf29DeT7IKfAoUPmQ/0+cE7fjXPsWyjKw45vIPfAgpdCkcKH45PnyJ/itx/adirQH4Pdf4JPC8ifw+3P45XnAffMb+MonEhz5pRCCY+u15a5ptq7xOci33MG1hXMquLaQ9yxcMw/i2mLg+mnM89r4Ac7H9QhaD6+ttFm4thjYfhI2Xhe8tv6Oc3UX+KWAfxRpfGvP5+sP4fdXOD8pCpbg2noC99NyXFt8ufO/uLfxHvUc0hbh2mL5Dbi2WnBt8YUM72339A0EwSrvwby2+NKBLcK8d/0S1wBfvnwCfnmP4jq+hOc8r4dv49pi3diqkm9eg/33wtAgrsveYH3vxT5goN+1Zdi+gO3k/ZzbwhcoFFZvxrbyRReFEwP876Cuv+vlfRr7u7k+uE8znULvVmwjt5Vi62jcp6txTPiSlKJgLfbN9e5+uQDx2Nvh7wn4ZavR7lj+Pu5rt+OYkrNcnNSM8jxut+H+z2PDexJbcCl+NuN+ci6Cd96Trm/rsvvgn71BjsF9mOKAPUf2x/3yB53d9mv4HUR+Pkv4Ao3PR9aJx/R7OKYUTWzx2dkd0zOxzpeR9lXU916cgztgfR/EflqLsnwBdjCmH+L+zmNKoXYytv051I3n40W4D/8G5yCfkxRkB+O5zPN5PfzyhV0/4rsbUd8/o758nvIeyvsl68qXPnw2U4Dki9yO4ZhGTIZB43z7wZOHtWPT4AcRhC3FyUw1zCCJQSNvPAyy2JzIYIQn4XdwMl8POy8SBm0MyE5FEMCWkD/iYr/w5Xac6DptpjIMttfjpsdbD9/0vBE3pM8iwOaD9Zu46d+IG5o/P3ij5Q2fN9k/4Py4Gjc0/+ab5917cXM/B+fWs/B3HWxrenq3nncMYnnebVdeat/FTf1a2L3fHRGYngq/fCjc3Ttg17R1Bg8i7/dduEFSdDBI5vl6G260QyhLv6+DX75x3wV+V+PhtnJzRyCW6JfXxSca6/FQqgoe0lwnH9D0y219B/xeAL8v4yZ9XVu3/Qw3du93X/g9Bw8kPrQYzK7CerucwJgFv7Uon33XhOzh20u/XnYX+FhDnb0fDzs++K5Bnf6Ov/7YHY6H2b9jeygcr8c+/CEedH572CXrLDyI9sH1/wtsz9Uoy24DpAFlP4zr/iMQcw9jv1+D/fR/EHve71tRhg9O7tPrcT4wIPLHji1RDIYOxDnxa+y/VZu78MAe2S8UbCfCJ9+w8Xhei3X+Efci75cB2HLUl/koUr4Z8svuYGfALx+6vH/xXGOwFJwTmPiWkfe4JxEw8B53R8gvu4n9DcFePuEYjt8/tNEtiVzzltc2ZTWGYyzwbW+3C755TfNlxvvw7LwP59TVmzuDlxf+XnEErq3PI8hrx7XIe9uPQtcWxcnZOBcZOFP0rkJZvgwhvI+ehPP/xHqIgwHe2xBc4t7pz9VD4fdzuAbo6wZcA9/DtclrgH4ZtLfgvkiR8iusrxXXtA8SWfcPwecn4PsR+OW97e6Q3zcH1xZbWiy4tr4VurZGtji/zME9fQO7NmJl3JaFwX26Pmjd+AG2sRX7iC0urA/zfgIBMV8K/R+2gfe1h3EMgmsd28L7NF/6sJXpWuyDn4fu//tiH30S938G2z9G0M/72tZjinsnW0ve448p9tF9uC/4Y/p2d0zZVYn7/kcIwr1fHku+mOELuZ+7fe+7drF71Uk4V06AOKAIZX3/Etr3fLnD+2U/xNVX3TH1fveAvzNxTPfD8fkl/K6CX7ZoELZqfBh+2dLxCM493i//FPLLLqMXwC9b+m/AtnzHnSvchxTMvB++Hnl+Db+s0z/d/ZKtbYwJT4edLWbX4ln3OzybR/ZSfpDgGCOTQXAIIYQoHLu9Zi+bPWcntyRyzYYXn7cnHi38N62EEONHgmOMSHAIIYQQQgiRDFtzRJ647LLL7De/+U0wfe5zn3OpQgghhBBCTB8kOPLIeeedZ4cddpjdc889duihh0p0CCGEEEKIaYcEhxBCCCGEECJv5FZw8AvhjRwbHwNt57qp0aURfmncp4encJ5pwb9ba+urg5+YFEIIIYQQYqqQG8HhxUS9W45C+01nW8flbjohJCiuOWdbup86nU0IIYQQQggxqcmN4LgmjVBgCwbFRrtbJswfFh1h4vJPC75oLS3/CL6GKYQQQgghxFRBYzgKwLJly+zee+8NBo7rF6uEEEIIIcR0orgER9D16pNTrnVjxYoVtnDhQrv99tuDX6266KKLnEUIIYQQQoipjVo4hBBCCCGEEHlDgqNo0K9UCSGEEEKIqUfxCA7/S1btGjUthBBCCCHEVEEtHEIIIYQQQoi8IcFRFHzOWlu/o5/FFUIIIYQQU478Cw5+2C/6zY2t3afc8hTlsssuC34G98ADDwx+oSr1r1NdFIgNIYQQQgghpholc+fOzd079UBIQGDEjcOgzX+J/LqYPJNMhMyfP9+WLFliy5cvty1qlhBCCCGEECKW3AqOaYQEhxBCCCGEEMloDMc4mTdvXiA+/DRr1ixnEUIIIYQQQqiFY4z4Fo4od955p91yyy1uSQghhBBCiOmNBIcQQgghhBAib6hLlRAF4xhbufLD+pq8EBPKOdbaepCbF0IIUQjUwpFP9rzJvroLdrJbHMV9J9jHZ8K+8UQ7+cUtNuog7PkduxHp47a/6JaTYP5dXC3vO9E+4f2x/nH+40DeGzeegLL2yryp/HuS7KkY6/6NI1X9Ubevom7BOuAza/tWjkGQ02BLl37LfWuly9b98uXA8kq2t12PHIK9zOYdVR35NkuXPXXbSHp66D+ufBwjeXc9MpXPJHs6WN+XncjaPsP6FIKk/T+WbY0ycqzmL56obR6977PfpkzPtWxJdT6Nd33ZlKfouBvX491Fcj4KIcTURi0c+YYB9K8Q/EYnLwb2RcA6JzZkLgwMmDd+aFu9Zn7bbshlfZL8j3f9Sft3PASC60N2svcJAcO6ba1dkn0rI2KjpcWLDQ8D8LkIvKJTrgO8icIH3H67huzJW3uLpIWnLrS/+UMPDMj98lTY/yNBfXjfr/tlsez7YuBKXI8H2VVXqaVDCCEKQW4FB7+l0ZjiiUbbuW6K5jntym22OLtITVSwuDfuGeED5hdDUfBaBPAI+m+c45bHQ5L/fK9/PKBubPEY1Tqy9oSgboEgSrLnhPUI2MNBYviNdS5h8J3rINsHvOG3+3UQWCOiQ+STbS0I4X1fXIJvfUQAjbQ4FZ8gUvcrIYTIBbkRHF4w+A/7RaGdH/W73E0n/Pe2L48Htk9us0XtUx2+oS+GAHs8QOQw+E79hj8CREXaFogke67Jpv4URGGBFOUVdo7bGGndEISiY6q04Ew2Rva9uhB5rrSlSw+SoBBCiAKQG8FxzTkjQqHTLYfxgiL8BXHmP4EtGW5ZjJ2wYPEtBs+OM6LIVcDv3/gfcVO8oEqyFzOoeyBQgrrn67Usu1z5FgHfYjArEjCy1eNp2DjFvb1OshP6HmurQyr//o36SHpqwuWjPkgq/yN1LinJxfanI658qv3FvCN1GsnPN/ZspcqkvN8et7h1OV39R9u2MbLv48uESVV+dP1H5sO+kurv7an8k5FxSuFzm13b0p3br2S89kxg16u73bwQQoixojEc+YZdnhiUhqdogMoAH8Erg+6UscFkhW/83fgGv+2jtjHJnkQm+zdfUDAFdYfgC9ab7fELB6PbAqPUAWIUBlTpxkjQfz7HUCStn2/UR9Ljty1afpuPeHu225dUPolU5X1AP3pd27qQ0c78DKDD43SybV2Ibl+4vF+ft0Xr4+vAOo/s+9GkKz+6/iPznLKpP4VKuvolkbR9cfZwl6yk8kIIIQqH2f8H6dT4kXa+ICcAAAAASUVORK5CYII=;" parent="WIyWlLk6GJQsqaUBKTNV-1" vertex="1">
          <mxGeometry x="346.94" y="620" width="676.12" height="282" as="geometry" />
        </mxCell>
      </root>
    </mxGraphModel>
  </diagram>
</mxfile>
